<mxfile host="app.diagrams.net" agent="Mozilla/5.0 (Windows NT 10.0; Win64; x64) AppleWebKit/537.36 (KHTML, like Gecko) Chrome/134.0.0.0 Safari/537.36" version="26.1.1">
  <diagram name="PÃ¡gina-1" id="JEG6G7JopfcsXNGq9rVm">
    <mxGraphModel dx="1434" dy="746" grid="1" gridSize="10" guides="1" tooltips="1" connect="1" arrows="1" fold="1" page="1" pageScale="1" pageWidth="827" pageHeight="1169" math="0" shadow="0">
      <root>
        <mxCell id="0" />
        <mxCell id="1" parent="0" />
        <mxCell id="iRdQwPABQsQ_W9aUvFbF-1" value="" style="rounded=1;whiteSpace=wrap;html=1;fillColor=#f5f5f5;fontColor=#333333;strokeColor=#666666;" vertex="1" parent="1">
          <mxGeometry x="40" y="80" width="760" height="560" as="geometry" />
        </mxCell>
        <mxCell id="iRdQwPABQsQ_W9aUvFbF-2" value="hl7-fhir.com" style="text;html=1;align=center;verticalAlign=middle;whiteSpace=wrap;rounded=0;fontStyle=1" vertex="1" parent="1">
          <mxGeometry x="320" y="90" width="200" height="30" as="geometry" />
        </mxCell>
        <mxCell id="iRdQwPABQsQ_W9aUvFbF-3" value="Orderers [orderer.hl7-fhir.com:7050]" style="rounded=1;whiteSpace=wrap;html=1;fillColor=#dae8fc;strokeColor=#6c8ebf;fontStyle=1" vertex="1" parent="1">
          <mxGeometry x="80" y="120" width="680" height="50" as="geometry" />
        </mxCell>
        <mxCell id="iRdQwPABQsQ_W9aUvFbF-8" value="" style="rounded=1;whiteSpace=wrap;html=1;fillColor=#e1d5e7;strokeColor=#9673a6;" vertex="1" parent="1">
          <mxGeometry x="80" y="200" width="680" height="400" as="geometry" />
        </mxCell>
        <mxCell id="iRdQwPABQsQ_W9aUvFbF-9" value="channel: channelhl7fhir" style="text;html=1;align=center;verticalAlign=middle;whiteSpace=wrap;rounded=0;fontStyle=1" vertex="1" parent="1">
          <mxGeometry x="331" y="210" width="178" height="30" as="geometry" />
        </mxCell>
        <mxCell id="iRdQwPABQsQ_W9aUvFbF-4" value="" style="rounded=1;whiteSpace=wrap;html=1;fillColor=#f5f5f5;fontColor=#333333;strokeColor=#666666;" vertex="1" parent="1">
          <mxGeometry x="110" y="255" width="200" height="290" as="geometry" />
        </mxCell>
        <mxCell id="iRdQwPABQsQ_W9aUvFbF-6" value="Org1 [org1.hl7-fhir.com]" style="text;html=1;align=center;verticalAlign=middle;whiteSpace=wrap;rounded=0;fontStyle=1" vertex="1" parent="1">
          <mxGeometry x="125" y="270" width="140" height="30" as="geometry" />
        </mxCell>
        <mxCell id="iRdQwPABQsQ_W9aUvFbF-11" value="" style="rounded=1;whiteSpace=wrap;html=1;fillColor=#f5f5f5;fontColor=#333333;strokeColor=#666666;" vertex="1" parent="1">
          <mxGeometry x="570" y="310" width="170" height="160" as="geometry" />
        </mxCell>
        <mxCell id="iRdQwPABQsQ_W9aUvFbF-13" value="CLI" style="text;html=1;align=center;verticalAlign=middle;whiteSpace=wrap;rounded=0;fontStyle=1" vertex="1" parent="1">
          <mxGeometry x="585" y="375" width="140" height="30" as="geometry" />
        </mxCell>
        <mxCell id="iRdQwPABQsQ_W9aUvFbF-14" value="peer0.org1.hl7-fhir.com:7051" style="rounded=1;whiteSpace=wrap;html=1;" vertex="1" parent="1">
          <mxGeometry x="120" y="310" width="170" height="40" as="geometry" />
        </mxCell>
        <mxCell id="iRdQwPABQsQ_W9aUvFbF-16" value="chaincode:hl7-fhir-java" style="rounded=1;whiteSpace=wrap;html=1;" vertex="1" parent="1">
          <mxGeometry x="120" y="460" width="170" height="60" as="geometry" />
        </mxCell>
        <mxCell id="iRdQwPABQsQ_W9aUvFbF-17" value="" style="rounded=1;whiteSpace=wrap;html=1;fillColor=#fff2cc;strokeColor=#d6b656;" vertex="1" parent="1">
          <mxGeometry x="120" y="360" width="170" height="90" as="geometry" />
        </mxCell>
        <mxCell id="iRdQwPABQsQ_W9aUvFbF-18" value="" style="shape=image;imageAspect=0;aspect=fixed;verticalLabelPosition=bottom;verticalAlign=top;image=data:image/jpeg,/9j/4AAQSkZJRgABAQEAAAAAAAD/4QAuRXhpZgAATU0AKgAAAAgAAkAAAAMAAAABAAAAAEABAAEAAAABAAAAAAAAAAD/2wBDAAoHBwkHBgoJCAkLCwoMDxkQDw4ODx4WFxIZJCAmJSMgIyIoLTkwKCo2KyIjMkQyNjs9QEBAJjBGS0U+Sjk/QD3/2wBDAQsLCw8NDx0QEB09KSMpPT09PT09PT09PT09PT09PT09PT09PT09PT09PT09PT09PT09PT09PT09PT09PT09PT3/wAARCAHaAdoDASIAAhEBAxEB/8QAHwAAAQUBAQEBAQEAAAAAAAAAAAECAwQFBgcICQoL/8QAtRAAAgEDAwIEAwUFBAQAAAF9AQIDAAQRBRIhMUEGE1FhByJxFDKBkaEII0KxwRVS0fAkM2JyggkKFhcYGRolJicoKSo0NTY3ODk6Q0RFRkdISUpTVFVWV1hZWmNkZWZnaGlqc3R1dnd4eXqDhIWGh4iJipKTlJWWl5iZmqKjpKWmp6ipqrKztLW2t7i5usLDxMXGx8jJytLT1NXW19jZ2uHi4+Tl5ufo6erx8vP09fb3+Pn6/8QAHwEAAwEBAQEBAQEBAQAAAAAAAAECAwQFBgcICQoL/8QAtREAAgECBAQDBAcFBAQAAQJ3AAECAxEEBSExBhJBUQdhcRMiMoEIFEKRobHBCSMzUvAVYnLRChYkNOEl8RcYGRomJygpKjU2Nzg5OkNERUZHSElKU1RVVldYWVpjZGVmZ2hpanN0dXZ3eHl6goOEhYaHiImKkpOUlZaXmJmaoqOkpaanqKmqsrO0tba3uLm6wsPExcbHyMnK0tPU1dbX2Nna4uPk5ebn6Onq8vP09fb3+Pn6/9oADAMBAAIRAxEAPwD2WiiigAooooAKKKKACiiigAooooAKKKKACiiigAooooAKKKKACiiigAooooAKKKKACiiigAooooAKKKKACiiigAooooAKKKKACiiigAooooAKKKKACiiigAooooAKKKKACiiigAooooAKKKKACiiigAooooAKKKKACiiigAooooAKKKKACiiigAooooAKKKKACiiigAooooAKKKKACiiigAooooAKKKKACiiigAooooAKKKKACiiigAooooAKKKKACiiigAooooAKKKKACiiigAooooAKKKKACiiigAooooAKKKKACiiigAooooAKKKKACiiigAooooAKKKKACiiigAooooAKKKKACiiigAooooAKKKKACiiigAooooAKKKKACiiigAooooAKKKKACiiigAooooAKKKKACiiigAooooAKKKKACiiigAooooAKKKKACiiigAooooAKKKKACiiigAooooAKKKKACiiigAooooAKKKKACiiigAooooAKKKKACiiigAooooAKKKKACiiigAooooAKKKKACiiigAooooAKKKKACiiigAooooAKKKKACiiigAooooAKKKKACiiigAooooAKKKKACiiigAooooAKKKKACiiigAooooAKKKKACiiigAooooAKKKKACiiigAooooAKKKKACiiigAooooAKKKKACiiigAooooAKKKKACiiigCpqV4unWE10ylvKXdtHeuLPjy/ycW8AHpzXU+KP+RcvP9z+teXV6uX4enUg3NXdzycwxFSnNKDsjqP+E9v/APn3g/Wj/hPb/wD594P1rmKK7/qVH+U8/wCuV/5mdP8A8J7f/wDPvB+tH/Ce3/8Az7wfrXMUUfUqP8ofXK/8zOw0zxtc3GoQQXNvHslYISpORnoa7WvJNL/5C1n/ANdl/nXrg6V5WYUYUprkVro9XL606sXzO9gooorgPRCiiigAooooAKKKKACiiigAooooAKKKKACiiigAooooAKKKKACiiigAooooAKKKKACiiigAooooAKKKKACiiigAooooAKKKKACiiigAooooAKKKKACiiigAooooAKKKKACiiigDJ8T/APIuXv8Auf1ry6vUfE//ACLl7/uf1ry6vbyv+G/U8LNP4i9BaKKK9M80KKKKALWl/wDIWs/+uy/zr1vtXkml/wDIWs/+uy/zr1vtXi5p8cfQ9rK/hkLRRRXlnqhRRRQAUUUUAFFFFABRRRQAUUUUAFFFFABRRRQAUUUUAFFFFABRRRQAUUUUAFFFFABRRRQAUUUUAFFFFABRRRQAUUUUAFFFFABRRRQAUUUUAFFFFABRRRQAUUUUAFFFFABRRRQBk+KP+RcvP9z+teXV6rr9vJd6HdQwqWkZPlA715l/Z96OtncfjGa9nLJxUGm+p4uZQk6iaXQgoqf+z7z/AJ9Lj/v2aP7PvP8An0uP+/Zr0vaR7nm+zn2ZBRU/9n3n/Ppcf9+zR/Z95/z6XH/fs0e0j3D2c+zH6X/yFrP/AK7L/OvXBXluj6Xevq9r/oswCyqzMyEAAHPevURXjZlKMpxs+h7OWRcYSuuotFFFeaemFFFFABRRRQAUUUUAFFFFABRRRQAUUUUAFFFFABRRRQAUUUUAFFFFABRRRQAUUUUAFFFFABRRRQAUUUUAFFFFABRRRQAUUUUAJmjNeeeLNUvF12aBLmRIowoVUbHbJ/Gsb+0rz/n7n/7+GvRpZdOcVK6V1c82pmUac3GzdmeufjR+NeR/2lef8/c//fw0f2lef8/c/wD38NX/AGXL+ZGf9qR/lPXPxo/GvI/7SvP+fuf/AL+Gj+0r3/n7n/7+Gj+y5fzIP7Uj/Keu0ZrC8I3s99oivcuZJEcpuPUgevvVTxvf3FlYW628rRebIQzKcHAFcKoSdX2XW9jveISpe16WudP+NH415H/aV5/z9z/9/DR/aV5/z9z/APfw13f2XL+ZHB/asf5T1z8aPxryP+0rz/n7n/7+Gj+0rz/n7n/7+Gj+y5fzIP7Uj/Keu5pPpXkf9pXn/P3P/wB/DXQ+DNTvJdXa2mnkkjaMttc5AIPas62Xypwc7p2NKWYxqTULNXO8pvHfFUNeupbPRbqeE7ZFQ7W9D615mdTviSTeTkk8kyHmssNhJV02naxricZGg1Fq9z1yj8a8j/tK8/5+5/8Av4aP7SvP+fuf/v4a6v7Ln/Mc39qR/lPXPxo/GvI/7SvP+fuf/v4aP7SvP+fuf/v4aP7Ln/MH9qQ/lPXBjtilry7R9Wvo9Xtv9KlZWkVWVmyGBNeoD1rixOHlQkk3c7cNiVXi2lYWiiiuc6QooooAKKKKACiiigAooooAKKKKACiiigAooooAKKKKACiiigAooooAKKKKACiiigAooooAKKKKACiiigAooooAKKKKACiiigDzHxb/AMjLd/8AAf8A0EVj1seLf+Rlu/8AgP8A6CKx6+ow/wDCj6I+WxH8WXqFFFFbGIUUUUAeheBv+QGf+urVU+IP/HpZf9dG/wDQat+Bv+QGf+urVU+IP/HpZf8AXRv/AEGvCp/7782e5P8A3L5HEUUUV7p4YUUUUAFb/gj/AJGJf+uTVgVv+Cf+RiX/AK5NXPi/4MvQ6ML/ABo+qOx8T/8AIuXv+5/WvLq9R8T/APIuXv8Auf1ry6uTK/4b9TqzT+IvQWiiivTPNCiiigC1pf8AyFrP/rsv869bryTS/wDkLWf/AF2X+det9q8XNPjj6HtZX8MhaKKK8s9UKKKKACiiigAooooAKKKKACkyAMmlrmPGWtNY2gs7dsTzjkg8qvc/U9PzrSlTdSaiuplWqKlByZdtfFOm3d69ss2x1bapcYV/oa2eteM10GheKrnTGWK4LT2uehOWT6e3tXo18taV6bv5HnUMyu7VFbzPR6Kr2d5Bf26z28iyRsOCKsV5TTTsz1U01dBRRRQMKKKKACiiigAooooAKKKKACiiigAooooAKKKKACiiigAooooAKKKKAPMfFv8AyMt3/wAB/wDQRWPWx4t/5GW7/wCA/wDoIrHr6jD/AMKPoj5bEfxZeoUUUVsYhRRRQB6F4G/5AZ/66tVT4g/8ell/10b/ANBq34G/5AZ/66tVT4g/8ell/wBdG/8AQa8Kn/vvzZ7k/wDcvkcRRRRXunhhRRRQAVv+Cf8AkYl/65NWBW/4I/5GJf8Ark1c+L/gy9Dowv8AGj6o7HxP/wAi5e/7n9a8ur1HxP8A8i5e/wC5/WvLq5Mr/hv1OrNP4i9BaKKK9M80KKKKALWl/wDIWs/+uy/zr1vtXkml/wDIWs/+uy/zr1uvFzT44+h7WV/DIWiiivLPVCiiigAooooAKKKKACiiigCOaZLeJ5ZDhEUsx9hXk2p376lqE13J1kbKj+6vYflXbeOL82+lLbIcNcNg4/ujk/0rgK9nLKNouo93ojxMyrXkqa2W4UUUV6p5ZpaJrc+i3W9MvC5/eR5+97j0Nel2N7BqFqlxbMHjccH/ABryKtzwvrraTeiKVv8ARJjh8/wn+9XnY3CKonUgtV+J6OCxbptQm9H+B6VRSAhgCOQaWvCPeCiiigAooooAKKKKACiiigAooooAKKKKACikFZ1xr+mWsrRTXcauvDLnJFOMXLSKuTKcYq8nY0qKyv8AhKNI/wCf6P8AI0f8JRpH/P8AR/kav2NT+V/cR7an/MjVorK/4SjSP+f6P8jR/wAJRpH/AD/R/kaPY1P5X9we2p/zI1Pypayl8S6S7hRexZJwM8VqBgwBHINTKEofErFRnGfwu5yOv+ELrUdUku7aaICQDKvnIIGKzP8AhBdR/wCe1v8Ama7S91ix05gl3cxxuRkKTzVc+KNIP/L7H+tdlPE4lRSirpbaHDUwuGc25PV+Zyn/AAgmpf8APa2/M0f8IJqX/Pa2/M11f/CUaR/z+x/rR/wlGkf8/sf61p9axfb8CPqmE7/icp/wgmpf89rb8zR/wgmpf89rb8zXV/8ACUaR/wA/sf60f8JRpH/P7H+tH1rF9vwD6phO/wCI7w/pTaNpi2zyB5CxZmA4yfT2qDxNob65ZxJDKI5Im3Lu6HtzWtBPFcwrLC6yRsMqynINNuruCygMtzKsSA4yxxXEqk1V51udrpU3S5H8Jwv/AAgmpf8APa2/M0f8IJqX/Pa2/M11f/CUaR/z+x/rR/wlGkf8/sf612/WsX2/A4vqmE7/AInKf8IJqX/Pa2/M0f8ACCal/wA9rb8zXV/8JRpH/P7H+tH/AAlGkf8AP7H+tH1rF9vwD6phO/4nJ/8ACCal/wA9rf8AM1s+G/C02k3r3V1KjNt2oqZwPXOa0/8AhJ9I/wCf2P8AWrNlqllqBYWlwkpXqAeR+FZ1cTiJQanon5GlLDYaM04u7XmLqdiNR06a1LbfMUrux0riv+ED1L/ntbH3BP8AhXfO6ohZiFUckntWafE2kAkfbouOOMms8PWrU7qmvwua4ihRqNOo7P1OT/4QTUv+e1t+Zo/4QTUv+e1t+Zrq/wDhKNI/5/Y/1o/4SjSP+f2P9a6PrWL7fgc31TCd/wATlP8AhBNS/wCe1t+Zo/4QTUv+e1t+Zrq/+Eo0j/n9j/Wj/hKNI/5/Y/1o+tYvt+AfVMJ3/E53TfBN5b6hBPPND5cbhyEyScdBXbis+113TryURQXUbyHoueTWjXJiKtSpL95udmHpUqa/dvQKKzrnXtNs5TFcXcaSDqvcVF/wlGkf8/0f5Gs1Sm1dRf3FutTTs5I1qKyv+Eo0j/n+j/I0f8JRpH/P9H+Rp+xqfyv7g9tT/mRq0Vlf8JRpH/P9H+RoHibSCQPt0XPHOaPY1P5X9we2p/zI1aKRWDqGUgqehFLWZqFFFB6GgDzfxnd/adfaMHKwIEA9CeT/AErBqzqczXOp3UpOS0rYPqM/4YqtX1OHhyU4x8j5WvPnqOXmFFFFamQUlLRQB6B4L1f7dYG0mbM1tgAn+Je3+FdNmvKtAvzp2s28+fkZtj/7p4/Tg16p1xXzuPoqnUutnqfQ4Cs6lKz3QtFFFcZ3BRRRQAUUUUAFFFFABRRRQAUUUUAI33TXjtxk3MxPJMjEk9+a9if7h+leO3H/AB8y/wC+f5162V7y+R5Ga7RI6KWivYPHEopaKAEPQ/SvWdFydEs8/wDPFf5V5Meh+les6L/yBLP/AK4r/KvKzT4Ynq5X8cjz/wAW8+JbrP8As/8AoIrGrZ8W/wDIy3X/AAH/ANBFY9d2G/hR9EcGI/iy9RKKWitzESilooA9C8DH/iQkZOBKwAqp8QSfslkOxlOR68Vb8Df8gI/9dWqp8Qf+PSy/66t/6DXhU/8Affmz3Z/7l8jh6KWivdPCEopaKAErofBBI8QAAkAxNkflXP1v+Cf+RiX/AK5NXPi/4MvQ6ML/ABo+qOx8Tkjw7e4JGUxxXl1eo+J/+Rcvf9z+teXVyZX/AA36nXmn8RegUUtFemeYJRS0UAWtK41ezI4ImXH51632ryTS/wDkLWf/AF2X+det9q8XNPjj6HtZX8EjyLUSTqd0SckytknnPNVqs3//ACErn/rq386r169P4F6HkVPjfqJRS0VZAlFLSUAeqeG/+Rdsf+uQFaYrM8Nf8i9Y/wDXIVpivla38SXqz6uj/Dj6IKZMcQufRTT6jnGYJB6qahbly2PHOTyeSeTS0g6Clr6xbHyL3CiiimAUUUUAJXq2hXf27RbWckFigDY9Rwf1FeVVsaf4nvtMsRa24i2gkhmBJGea4cdh5V4rl3TO3A4hUZvm2Z6dRXmTeLdYbP8ApYA9kXj9KgPiPVj/AMv8v4GuBZZV6tHoPM6XZnqlFeXJ4m1dOl9IfqAasQ+NNXiOXlilHoyAfypSy2qtmmCzOk900ekUda4q18ft8ovLPPHLRN/Q/wCNdBp3iPTtSIWG4Cyf883+U/kev4VzVMLVp/Ejpp4qlU0izWoozRWB0hRRRQAUUUUAI/3D9K8duP8Aj5l/3z/OvYn+4fpXjtx/x8y/75/nXrZXvL5HkZrtEZRRRXsHjhRRRQAh6H6V6zov/IEs/wDriv8AKvJj0P0r1nRf+QJZ/wDXFf5V5WafDE9TK/jkef8Ai3/kZbr/AID/AOgisetjxb/yMt1/wH/0EVj134f+FH0Rw4j+LL1CiiitjEKKKKAPQvA3/IDP/XVqqfEH/j0sv+ujf+g1b8Df8gM/9dWqp8Qf+PSy/wCujf8AoNeFT/335s9yf+5fI4iiiivdPDCiiigArf8ABP8AyMS/9cmrArf8Ef8AIxL/ANcmrnxf8GXodGF/jR9Udj4n/wCRcvf9z+teXV6j4n/5Fy9/3P615dXJlf8ADfqdWafxF6C0UUV6Z5oUUUUAWtL/AOQtZ/8AXZf51632ryTS/wDkLWf/AF2X+det9q8XNPjj6HtZX8EjyK//AOQlc/8AXVv51Xqxf/8AISuf+urfzqvXr0/hXoePU+N+oUUUVZIUlLSUAeqeGv8AkXrH/rkK0xWZ4a/5F6x/65CtOvla38SXqz6qj/Dj6IKRhlSD0IpaKzNTx++hMGoXEJBGyVlAP14qGt3xlZG1195APkuFDg579D/SsKvqaE+empLsfK1oOFRxfcKKKK1MgooooAKKKKACiiigAooooAKT+nIpaKAN/RfF11pzCK7L3Fv05PzL9D3+hrrP+Et0j/n6H/fLf4V5vBC9zPHBGMvIwVR9a77/AIQ2x/2/zrysXRw0ZJyum+x6mFr4lxtDVI6WiiivGPbCiiigBr/cP0rx64/4+Zf98/zr2I1gz+DdKuJ3laOVWkbcQshAzXdgsTCg3zX17HBjcNOuly20POKK9E/4QfSf7s//AH9NH/CD6T/dn/7+mvQ/tKj5nn/2bW8jzuivRP8AhB9J/uz/APf00f8ACD6T/dn/AO/po/tKj5h/ZtbyPOj0P0r1nRf+QLZ/9cU/lWWPA+kgg7JjjnBkPNb8USQxrHGoVFAAA7CuHG4qFdJR6HdgcJOg2521PNPFv/Iy3f8AwH/0EVj16dqPhnTtUuftFwjiQjBKORn61V/4QfSf7s//AH9NdNHMKUaai73SOWtl9WdRyVrNnndFeif8IPpP92f/AL+mj/hB9J/uz/8Af01r/aVHzM/7NreR53RXon/CD6T/AHZ/+/po/wCEH0n+7P8A9/TR/aVHzD+za3kN8Df8gI/9dWqp8QP+PSy/66H/ANBrpbCxg020S2tk2xp2znPuaZqWl22rW/kXSFlByCDgg+xry414rEe1tpc9SWHk8P7JPWx5NRXon/CD6T/dn/7+mj/hB9J/uz/9/TXqf2lR8zy/7NreR53RXon/AAg+k/3Z/wDv6aP+EH0n+7P/AN/TR/aVHzD+za3ked1v+Cf+RiH/AFyaul/4QfSv7s+P+upq7pfh+x0iR5LVG3uMFnbJxWNfH0p03FXuzWhgKtOopO1kN8T/APIu3n+5/WvL69huII7uB4JkDxSLtYHoRWH/AMIPpP8Adn/7+msMFi4UYuMr7nRjcJOtNSied0V6J/wg+k/3Z/8Av6aP+EH0n+7P/wB/TXb/AGlR8zi/s2t5HndFeif8IPpP92f/AL+mj/hB9J/uz/8Af00f2lR8w/s2t5HC6X/yFrP/AK7L/OvW+1Ylp4S0yyukuI45GkjO5d7kgH1rb7V5uNxEa8k49D0cFh50ItStqeRX/wDyErn/AK6t/Oq9ek3fhDS7y5eeSORXkOWCuQCai/4QfSf7s/8A39NehDMaSik7nBPLark2rHndFeif8IPpP92f/v6aP+EH0n+7P/39NV/aVHzJ/s2t5HndJXov/CD6T/dn/wC/po/4QfSf7s//AH9NH9pUfMP7NreRe8N/8i9Y/wDXIVqVDBDHbQJDEoSONQqqOwqavDnLmk33Pcpx5YqPYKKKM+4qSznfGOlm+0ozRrmW3O8Y7juP6/hXnVenah4m0yxDK84lfH+rj+Yn+lea3DxyXMrwxmONmJVCfuj0/Cvcy1zUHGSaXRnhZkoOalFpvqhlFFFekeaFFFFABRRRQAUUUUAFFFFABRRWjomjSa1eiFcrEvMkgH3R/iaic4wi5SdkioQc5KMVds2/BGjmWc6jMvyR5WLPdu5/pXc1Fa28VpbRwQrtjQYUCpq+axFZ1qjk/kfTYeiqNNRW/Ur3l7BYW7TXUqxxqOpP+c1zU/j22VyILWWRR/E2FzXNeINafWL7eAywxjCIf1P1zWXXp0Muhyp1d30PLxGYzcmqeiXU7P8A4WCP+fBv+/lH/CwR/wA+Df8AfyuMorp+oUO34nP9fr9zs/8AhYI/58G/7+Uf8LBH/Pg3/fyuMoo+oUO34h9fr9zs/wDhYI/58G/7+Uf8LBH/AD4N/wB/K4yij6hQ7fiH1+v3Oz/4WCP+fBv+/lH/AAsEf8+Df9/K4yij6hQ7fiH1+v3Oz/4WCP8Anwb/AL+Uf8LBH/Pg3/fyuMoo+oUO34h9fr9zs/8AhYI/58G/7+Uf8LBH/Pg3/fyuMoo+oUO34h9fr9zs/wDhYI/58G/7+Uf8LBH/AD4N/wB/K4yij6hQ7fiH1+v3Oz/4WCP+fBv+/lH/AAsEf8+Df9/K4yij6hQ7fiH1+v3Oz/4WCP8Anwb/AL+Uf8LBH/Pg3/fyuMoo+oUO34h9fr9zs/8AhYI/58G/7+Uf8LBH/Pg3/fyuMoo+oUO34h9fr9zs/wDhYI/58G/7+Uf8LBH/AD4N/wB/K4yij6hQ7fiH1+v3Oz/4WCP+fBv+/lH/AAsEf8+Df9/K4yij6hQ7fiH1+v3Oz/4WCP8Anwb/AL+Uf8LBH/Pg3/fyuMoo+oUO34h9fr9zs/8AhYI/58G/7+Uf8LBH/Pg3/fyuMoo+oUO34h9fr9zs/wDhYI/58G/7+Uf8LBH/AD4N/wB/K4yij6hQ7fiH1+v3Oz/4WCv/AD4N/wB/KP8AhYI/58G/7+VxlFH1Ch2/EPr9fudn/wALBH/Pg3/fyj/hYI/58G/7+VxlFH1Ch2/EPr9fudn/AMLBH/Pg3/fyj/hYI/58G/7+VxlFH1Ch2/EPr9fudn/wsEf8+Df9/KP+Fgj/AJ8G/wC/lcZRR9QodvxD6/X7nZ/8LBH/AD4N/wB/Khf4gTnOywjHoTIT/SuSoprA0F9kHjq7+0b8/jXVZlIRoYc9CiZI/Osm61S9vs/arqWQE/dLYH5dKrUVtChSh8KRhOvUn8TYlLRRWpkFFFFABRRRQAUUUUAFFFJQAtFT2en3eoSbLS3eVu5A4H1Paut0jwOqES6o28jkQoePxPf6D9a562Kp0l7z17G9HDVKr91adzn9E8P3OszKVBjtgfmlI/Qetej6dp1vplqILZdqDqe5PqaniijgjWOJFRFGAqjAFSV4WIxUq77Lse7hsJCgu77hRRRXMdZ4yfvUUHqaK+uPkAooooAKKKKACiiigAooooAKKKKACiiigAooooAKKKKACiiigAooooAKKKKACiiigAooooAKKKKACiiigAooooAKKKKACiiigAooooAKKKKACiiigAooooAKKKKACj+vFFbHhXT/AO0Nbi3LmKH94+fbp+uPyNZ1JqnBzfQulB1JqC6lpPA2pugJeBSRkgsamj8BXx+/cwJ9ATXfUV4bzCu+p7qy6iuhxkPw/H/Le+bP/TNMfzrVtPB+lWpDGEzMO8jZx+Fb1FYzxdae8mbQwlGG0RkcUcKBI0VFHQKMAU+iiufc6dgooooAKKKKAPGn++aSpbuBra6kif7y4z+Wair61NNXR8i007MKKKKYgooooAKKKKACiiigAooooAKKKKACiiigAooooAKKKKACiiigAooooAKKKKACiiigAooooAKKKKACiiigAooooAKKKKACiiigAooooAKKKKACiiigAooooASvRPBemmz0jz5BiS5O85HRe3+P41xOj6e2qanDajO1jlz6KOv+FeroixoqKMKowBXlZnWslTXqz1cso3bqPpoh1FFFeMe0FFFFABRRRQAUUUUAFFFFAHmnjCDyPEU3pIisPyx/SsSuq8fW+zULWcD78ZUn6Hj+Zrla+mwkuajF+X5HzGLjy1pLzCiiiug5wooooAKKKKACiiigAooooAKKKKACiiigAooooAKKKKACiiigAooooAKKKKACiiigAooooAKKKKACiiigAooooAKKKKACiiigAooooAKKKKACiiigAooq5pGntqmpw2q52scuw7KOv+H41M5KEXJ7IqEXKSit2df4I0v7PZPeyLiSfhM9kH+J5/KurpkUSwxrGihVUBQB2Ap9fL1qjqTc31PqKFJUoKKCiiiszUKKKKACiiigAooooAKKKKAOX8eQGTSIZh/yylGfx4rga9V161+16LdxcZMZIyO45/pXlI5ANe7ls70nHszwczhaqpd0LRRRXonnBRRRQAUUUUAFFFFABRRRQAUUUUAFFFFABRRRQAUUUUAFFFFABRRRQAUUUUAFFFFABRRRQAUUUUAFFFFABRRRQAUUUUAFFFFABRRRQAUUUUAFFFFACV6D4M0f7FYfa5VxPcDPPUL2H9a5fwxpB1bU13j/AEeAh5Pf0X8f5V6aAAAB0ryMxxH/AC6j8z1stw//AC9l8haKKK8g9kKKKKACiiigAooooAKKKKACiiigBOteTavaGw1a6t8EBHJXPcHkV6yK4Tx5Y+VewXqj5ZV2MQP4h/iOPwr0MtqctTlfU87MqfNSUl0OVooor3jwQooooAKKKKACiiigAooooAKKKKACiiigAooooAKKKKACiiigAooooAKKKKACiiigAooooAKKKKACiiigAooooAKKKKACiiigAooooAKKKKACnwwyXM6QRLukkbao9TUdd34O0E2sQv7lSJpBhFI+6vr9T/KufE4hUYOXXob4ag681FbdTb0XSk0jTkt05bq7f3m7mtGiivmpScm5Pdn00YqEVFbIKKKKRQUUUUAFFFFABRRRQAUUUUAFFFFABWN4o046jokyIMyR/vE+o/xGR+NbNIcEEHoaqEnCSkuhFSCnFxfU8Zpa0/EOmnS9ZliAxE53x/Q//XyKzK+ppzU4KS2Z8rUg4ScXugoooqyQooooAKKKKACiiigAooooAKKKKACiiigAooooAKKKKACiiigAooooAKKKKACiiigAooooAKKKKACiiigAooooAKKKKACiiigAoorV8P6FLrV4MgraxnMr+v8Asj3/AJVE6kacXKTskXTpupJRirtl3wnoH9pT/a7lT9mib5QR99v8BXoYGBxTIIY7eFIoUCIowqgcAU+vm8RiHWnzPbofSYbDqhDlW4tFFFYHQFFFFABRRRQAUUUUAFFFFABRRRQAUUUUAFFFFAHOeMdIN/pv2iJcz22WGByy9x/WvO69mxnIPQ15j4m0c6TqrCMf6PNl4vb1H4fyr18txGjpS+R42ZUNVVXzMiiiivXPJCiiigAooooAKKKKACiiigAooooAKKKKACiiigAooooAKKKKACiiigAooooAKKKKACiiigAooooAKKKKACiiigAooooAKKK1tD8Pz61KDho7UH5pCOvsPWonUjTTlJ2SLp05VGoxV2xmhaFPrV1tXKW6H95Ljp7D3r0uzs4bC1S3t0CRoOAKLOzhsLZILaMJGgwAKnr57FYqVeXZdEfQ4XCxoR7ti0UUVynWFFFFABRRRQAUUUUAFFFFABRRRQAUUUUAFFFFABRRRQAVm63pUer6c9u/D9Ub+63atKinGTi1JbomUVOLi+p47cW8tpcPDOhSRDhh/X6VHXoXinw6NUgN1bLi6jHQf8tB6f5+leekEEgggg4IIxivpMNiFXhfr1R83isO6E7PbowooorpOYKKKKACiiigAooooAKKKKACiiigAooooAKKKKACiiigAooooAKKKKACiiigAooooAKKKKACiiigAooooAKSpbe2mu51ht4mlkboFH+eK7jQvB0VntuNQAmnGCqD7qf4n9K5q+Jp0V7z17HRQw06z91adzG0DwlJqGLi+DQ22eFxhn/wFd/DDHbwpFEgREGFUDAAp4GMCivBr4ideV5bHv4fDwoq0dxaKKKwOgKKKKACiiigAooooAKKKKACiiigAooooAKKKKACiiigAooooAKKKKACuU8T+Fvtu68sVAuOroOBJ/8AX/nXV0VpSqypS5osyq0Y1Y8sjxplaN2R1ZXU4ZSMEUleka94Yg1dTLGRFdAcSAcH615/f6dc6bcGG7iKN2bs30Pevfw2LhWXZ9j5/E4SdF913K9FFFdZyhRRRQAUUUUAFFFFABRRRQAUUUUAFFFFABRRRQAUUUUAFFFFABRRRQAUUUUAFFFFABRSVsaZ4W1HUsN5fkxH/lpKMfkOp/SonUhTV5uxcKcqjtBXMit7R/CV5qWJJw1tbn+Jh8zfQf1P611uk+FrHSsSbfPnH/LSQdPoO1bQrycRmV9KS+Z6tDLba1X8ijpmkWmlQ+Xaxhc/eb+Jvqav0UV5cpOTu3dnqxioqyVgooopFBRRRQAUUUUAFFFFABRRRQAUUUUAFFFFABRRRQAUUUUAFFFFABRRRQAUUUUAFFFFABVa7s4L+AxXMSSIeoYf5xVmihNp3Qmk1ZnD6r4FkQmTTJN69fKkPI+jf4/rXLXNrcWcnl3ULwv6MMZr2Gobi1huoyk8SSIezDNejRzGpDSeqPOrZdCesNGeP0V3194GsLjc1o72znoB8y/kf6VgXfgvVLYkxLHcJngocH8j/wDXr0aeNoz62fmebUwNaHS68jAoqWe0uLUhbiCWInoGQjNQ11qSaujlaadmLRRRTEFFFFABRRRQAUUUUAFFFFABRRRQAUUUUAFFJ14HJ9uauWukahe4+z2krqeQ23AP4niplOMVeTsVGEpOyVypRXTWngW/mwbmWKBSM4Hzkf0/nW7Z+CtMtsGYPct/00PH5DiuSpj6MOt/Q6qeArT6WXmefwW011II7eJ5WPZBmui0/wAD3tzh7yRbdD/CPmY/4V3cFtDbIEgiSNR2UYqU1wVcym9IK35noUsthHWbuZOm+GtO0whooQ8g/wCWknzH/wCt+Fa/SiivPlOU3eTuehCEYK0VYKKKKksKKKKACiiigAooooAKKKKACiiigAooooAKKKKACiiigAooooAKKKKACiiigAooooAKKKKACiiigAooooAKKKKACiiigBrIrqVZQwPUEVm3Hh3SrrmSyhz6qNv8q1KT8qcZyi7xbREoRkrSVzmLjwJp0gPkyzxMeh3ZAqhN8P5B/qL5T/10T/Cu3pK6I42vH7RzywVCW8Tz2bwNqcf+reCX6MRVaTwhrEf/AC7I3+5IK9MorZZlWW9mZPLaL2ujys+G9XGf9Al/Db/jTDoOqr10+f8ALNer0Vf9p1OyI/sun3Z5N/Yupf8APhP/AN8Uo0PUz0sJ/wDvmvWKKf8Aac/5UL+y4fzM8qHh3Vz0sJvxwKlj8K6xJ/y5Mv8AvMBXqGKKTzOp2Q1ldPuzzdPBWruw3JCoPUmTOP0q5H4BvDjzLqFR3ABOK7yis3mNZ7WXyNFl1FdGzkYfAFuGBmvJXHcKoWr8HgzSIc7oGmz/AM9HJx+Vb2KWsJYqtLeTN44SjHaJTt9LsrTHkWsKEDAIQZ/OrnSj8aKxbb1bNlFJaIKKKKRQUUUUAFFFFABRRRQAUUUUAFFFFABRRRQAUUUUAFFFFABRRRQAUUUUAFFFFABRRRQAUUUUAFFFFABRRRQAUUUUAFFFFABRRRQAUUUUAFFFFABRRRQAUUUUAFFFFABRRRQAUUUUAFFFFABRRRQAUUUUAFFFFABRRRQAUUUUAFFFFABRRRQAUUUUAFFFFABRRRQAUUUUAFFFFABRRRQAUUUUAFFFFABRRRQAUUUUAFFFFABRRRQAUUUUAFFFFABRRRQAUUUUAFFFFABRRRQAUUUUAFFFFABRRRQAUUUUAFFFFABRRRQAUUUUAFFFFABRRRQAUUUUAFFFFABRRRQAUUUUAFFFFABRRRQAUUUUAFFFFABRRRQAUUUUAFFFFABRRRQAUUUUAFFFFABRRRQAUUUUAFFFFABRRRQAUUUUAFFFFABRRRQAUUUUAFFFFABRRRQAUUUUAFFFFABRRRQAUUUUAFFFFABRRRQAUUUUAFFFFABRRRQAUUUUAFFFFABRRRQAUUUUAFFFFABRRRQAUUUUAFFFFABRRRQAUUUUAFFFFABRS0UAJRS0UAJRS0UAJRS0UAJRS0UAJRS0UAJRS0UAJRS0UAJRS0UAJRS0UAJRS0UAJRS0UAJRS0UAJRS0UAJRS0UAJRS0UAJRS0UAJRS0UAJRS0UAJRS0UAJRS0UAJRS0UAJRS0UAJRS0UAJRS0UAJRS0UAJRS0UAJRS0UAJRS0UAJRS0UAf/2Q==;" vertex="1" parent="1">
          <mxGeometry x="90" y="130" width="20" height="20" as="geometry" />
        </mxCell>
        <mxCell id="iRdQwPABQsQ_W9aUvFbF-19" value="" style="verticalLabelPosition=bottom;verticalAlign=top;html=1;shape=mxgraph.basic.patternFillRect;fillStyle=diag;step=5;fillStrokeWidth=0.2;fillStrokeColor=#dddddd;dashed=1;dashPattern=8 8;" vertex="1" parent="1">
          <mxGeometry x="130" y="410" width="150" height="30" as="geometry" />
        </mxCell>
        <mxCell id="iRdQwPABQsQ_W9aUvFbF-20" value="" style="verticalLabelPosition=bottom;verticalAlign=top;html=1;shape=mxgraph.basic.patternFillRect;fillStyle=diag;step=5;fillStrokeWidth=0.2;fillStrokeColor=#dddddd;" vertex="1" parent="1">
          <mxGeometry x="130" y="370" width="150" height="30" as="geometry" />
        </mxCell>
        <mxCell id="iRdQwPABQsQ_W9aUvFbF-21" value="couchdb:5984" style="text;html=1;align=center;verticalAlign=middle;whiteSpace=wrap;rounded=0;" vertex="1" parent="1">
          <mxGeometry x="170" y="370" width="80" height="30" as="geometry" />
        </mxCell>
        <mxCell id="iRdQwPABQsQ_W9aUvFbF-22" value="lebeldb" style="text;html=1;align=center;verticalAlign=middle;whiteSpace=wrap;rounded=0;" vertex="1" parent="1">
          <mxGeometry x="165" y="410" width="80" height="30" as="geometry" />
        </mxCell>
        <mxCell id="iRdQwPABQsQ_W9aUvFbF-26" value="" style="shape=image;imageAspect=0;aspect=fixed;verticalLabelPosition=bottom;verticalAlign=top;image=data:image/jpeg,/9j/4AAQSkZJRgABAQEAAAAAAAD/4QAuRXhpZgAATU0AKgAAAAgAAkAAAAMAAAABAAAAAEABAAEAAAABAAAAAAAAAAD/2wBDAAoHBwkHBgoJCAkLCwoMDxkQDw4ODx4WFxIZJCAmJSMgIyIoLTkwKCo2KyIjMkQyNjs9QEBAJjBGS0U+Sjk/QD3/2wBDAQsLCw8NDx0QEB09KSMpPT09PT09PT09PT09PT09PT09PT09PT09PT09PT09PT09PT09PT09PT09PT09PT09PT3/wAARCAHaAdoDASIAAhEBAxEB/8QAHwAAAQUBAQEBAQEAAAAAAAAAAAECAwQFBgcICQoL/8QAtRAAAgEDAwIEAwUFBAQAAAF9AQIDAAQRBRIhMUEGE1FhByJxFDKBkaEII0KxwRVS0fAkM2JyggkKFhcYGRolJicoKSo0NTY3ODk6Q0RFRkdISUpTVFVWV1hZWmNkZWZnaGlqc3R1dnd4eXqDhIWGh4iJipKTlJWWl5iZmqKjpKWmp6ipqrKztLW2t7i5usLDxMXGx8jJytLT1NXW19jZ2uHi4+Tl5ufo6erx8vP09fb3+Pn6/8QAHwEAAwEBAQEBAQEBAQAAAAAAAAECAwQFBgcICQoL/8QAtREAAgECBAQDBAcFBAQAAQJ3AAECAxEEBSExBhJBUQdhcRMiMoEIFEKRobHBCSMzUvAVYnLRChYkNOEl8RcYGRomJygpKjU2Nzg5OkNERUZHSElKU1RVVldYWVpjZGVmZ2hpanN0dXZ3eHl6goOEhYaHiImKkpOUlZaXmJmaoqOkpaanqKmqsrO0tba3uLm6wsPExcbHyMnK0tPU1dbX2Nna4uPk5ebn6Onq8vP09fb3+Pn6/9oADAMBAAIRAxEAPwD2WiiigAooooAKKKKACiiigAooooAKKKKACiiigAooooAKKKKACiiigAooooAKKKKACiiigAooooAKKKKACiiigAooooAKKKKACiiigAooooAKKKKACiiigAooooAKKKKACiiigAooooAKKKKACiiigAooooAKKKKACiiigAooooAKKKKACiiigAooooAKKKKACiiigAooooAKKKKACiiigAooooAKKKKACiiigAooooAKKKKACiiigAooooAKKKKACiiigAooooAKKKKACiiigAooooAKKKKACiiigAooooAKKKKACiiigAooooAKKKKACiiigAooooAKKKKACiiigAooooAKKKKACiiigAooooAKKKKACiiigAooooAKKKKACiiigAooooAKKKKACiiigAooooAKKKKACiiigAooooAKKKKACiiigAooooAKKKKACiiigAooooAKKKKACiiigAooooAKKKKACiiigAooooAKKKKACiiigAooooAKKKKACiiigAooooAKKKKACiiigAooooAKKKKACiiigAooooAKKKKACiiigAooooAKKKKACiiigAooooAKKKKACiiigAooooAKKKKACiiigAooooAKKKKACiiigAooooAKKKKACiiigAooooAKKKKACiiigAooooAKKKKACiiigAooooAKKKKACiiigAooooAKKKKACiiigCpqV4unWE10ylvKXdtHeuLPjy/ycW8AHpzXU+KP+RcvP9z+teXV6uX4enUg3NXdzycwxFSnNKDsjqP+E9v/APn3g/Wj/hPb/wD594P1rmKK7/qVH+U8/wCuV/5mdP8A8J7f/wDPvB+tH/Ce3/8Az7wfrXMUUfUqP8ofXK/8zOw0zxtc3GoQQXNvHslYISpORnoa7WvJNL/5C1n/ANdl/nXrg6V5WYUYUprkVro9XL606sXzO9gooorgPRCiiigAooooAKKKKACiiigAooooAKKKKACiiigAooooAKKKKACiiigAooooAKKKKACiiigAooooAKKKKACiiigAooooAKKKKACiiigAooooAKKKKACiiigAooooAKKKKACiiigDJ8T/APIuXv8Auf1ry6vUfE//ACLl7/uf1ry6vbyv+G/U8LNP4i9BaKKK9M80KKKKALWl/wDIWs/+uy/zr1vtXkml/wDIWs/+uy/zr1vtXi5p8cfQ9rK/hkLRRRXlnqhRRRQAUUUUAFFFFABRRRQAUUUUAFFFFABRRRQAUUUUAFFFFABRRRQAUUUUAFFFFABRRRQAUUUUAFFFFABRRRQAUUUUAFFFFABRRRQAUUUUAFFFFABRRRQAUUUUAFFFFABRRRQBk+KP+RcvP9z+teXV6rr9vJd6HdQwqWkZPlA715l/Z96OtncfjGa9nLJxUGm+p4uZQk6iaXQgoqf+z7z/AJ9Lj/v2aP7PvP8An0uP+/Zr0vaR7nm+zn2ZBRU/9n3n/Ppcf9+zR/Z95/z6XH/fs0e0j3D2c+zH6X/yFrP/AK7L/OvXBXluj6Xevq9r/oswCyqzMyEAAHPevURXjZlKMpxs+h7OWRcYSuuotFFFeaemFFFFABRRRQAUUUUAFFFFABRRRQAUUUUAFFFFABRRRQAUUUUAFFFFABRRRQAUUUUAFFFFABRRRQAUUUUAFFFFABRRRQAUUUUAJmjNeeeLNUvF12aBLmRIowoVUbHbJ/Gsb+0rz/n7n/7+GvRpZdOcVK6V1c82pmUac3GzdmeufjR+NeR/2lef8/c//fw0f2lef8/c/wD38NX/AGXL+ZGf9qR/lPXPxo/GvI/7SvP+fuf/AL+Gj+0r3/n7n/7+Gj+y5fzIP7Uj/Keu0ZrC8I3s99oivcuZJEcpuPUgevvVTxvf3FlYW628rRebIQzKcHAFcKoSdX2XW9jveISpe16WudP+NH415H/aV5/z9z/9/DR/aV5/z9z/APfw13f2XL+ZHB/asf5T1z8aPxryP+0rz/n7n/7+Gj+0rz/n7n/7+Gj+y5fzIP7Uj/Keu5pPpXkf9pXn/P3P/wB/DXQ+DNTvJdXa2mnkkjaMttc5AIPas62Xypwc7p2NKWYxqTULNXO8pvHfFUNeupbPRbqeE7ZFQ7W9D615mdTviSTeTkk8kyHmssNhJV02naxricZGg1Fq9z1yj8a8j/tK8/5+5/8Av4aP7SvP+fuf/v4a6v7Ln/Mc39qR/lPXPxo/GvI/7SvP+fuf/v4aP7SvP+fuf/v4aP7Ln/MH9qQ/lPXBjtilry7R9Wvo9Xtv9KlZWkVWVmyGBNeoD1rixOHlQkk3c7cNiVXi2lYWiiiuc6QooooAKKKKACiiigAooooAKKKKACiiigAooooAKKKKACiiigAooooAKKKKACiiigAooooAKKKKACiiigAooooAKKKKACiiigDzHxb/AMjLd/8AAf8A0EVj1seLf+Rlu/8AgP8A6CKx6+ow/wDCj6I+WxH8WXqFFFFbGIUUUUAeheBv+QGf+urVU+IP/HpZf9dG/wDQat+Bv+QGf+urVU+IP/HpZf8AXRv/AEGvCp/7782e5P8A3L5HEUUUV7p4YUUUUAFb/gj/AJGJf+uTVgVv+Cf+RiX/AK5NXPi/4MvQ6ML/ABo+qOx8T/8AIuXv+5/WvLq9R8T/APIuXv8Auf1ry6uTK/4b9TqzT+IvQWiiivTPNCiiigC1pf8AyFrP/rsv869bryTS/wDkLWf/AF2X+det9q8XNPjj6HtZX8MhaKKK8s9UKKKKACiiigAooooAKKKKACkyAMmlrmPGWtNY2gs7dsTzjkg8qvc/U9PzrSlTdSaiuplWqKlByZdtfFOm3d69ss2x1bapcYV/oa2eteM10GheKrnTGWK4LT2uehOWT6e3tXo18taV6bv5HnUMyu7VFbzPR6Kr2d5Bf26z28iyRsOCKsV5TTTsz1U01dBRRRQMKKKKACiiigAooooAKKKKACiiigAooooAKKKKACiiigAooooAKKKKAPMfFv8AyMt3/wAB/wDQRWPWx4t/5GW7/wCA/wDoIrHr6jD/AMKPoj5bEfxZeoUUUVsYhRRRQB6F4G/5AZ/66tVT4g/8ell/10b/ANBq34G/5AZ/66tVT4g/8ell/wBdG/8AQa8Kn/vvzZ7k/wDcvkcRRRRXunhhRRRQAVv+Cf8AkYl/65NWBW/4I/5GJf8Ark1c+L/gy9Dowv8AGj6o7HxP/wAi5e/7n9a8ur1HxP8A8i5e/wC5/WvLq5Mr/hv1OrNP4i9BaKKK9M80KKKKALWl/wDIWs/+uy/zr1vtXkml/wDIWs/+uy/zr1uvFzT44+h7WV/DIWiiivLPVCiiigAooooAKKKKACiiigCOaZLeJ5ZDhEUsx9hXk2p376lqE13J1kbKj+6vYflXbeOL82+lLbIcNcNg4/ujk/0rgK9nLKNouo93ojxMyrXkqa2W4UUUV6p5ZpaJrc+i3W9MvC5/eR5+97j0Nel2N7BqFqlxbMHjccH/ABryKtzwvrraTeiKVv8ARJjh8/wn+9XnY3CKonUgtV+J6OCxbptQm9H+B6VRSAhgCOQaWvCPeCiiigAooooAKKKKACiiigAooooAKKKKACikFZ1xr+mWsrRTXcauvDLnJFOMXLSKuTKcYq8nY0qKyv8AhKNI/wCf6P8AI0f8JRpH/P8AR/kav2NT+V/cR7an/MjVorK/4SjSP+f6P8jR/wAJRpH/AD/R/kaPY1P5X9we2p/zI1Pypayl8S6S7hRexZJwM8VqBgwBHINTKEofErFRnGfwu5yOv+ELrUdUku7aaICQDKvnIIGKzP8AhBdR/wCe1v8Ama7S91ix05gl3cxxuRkKTzVc+KNIP/L7H+tdlPE4lRSirpbaHDUwuGc25PV+Zyn/AAgmpf8APa2/M0f8IJqX/Pa2/M11f/CUaR/z+x/rR/wlGkf8/sf61p9axfb8CPqmE7/icp/wgmpf89rb8zR/wgmpf89rb8zXV/8ACUaR/wA/sf60f8JRpH/P7H+tH1rF9vwD6phO/wCI7w/pTaNpi2zyB5CxZmA4yfT2qDxNob65ZxJDKI5Im3Lu6HtzWtBPFcwrLC6yRsMqynINNuruCygMtzKsSA4yxxXEqk1V51udrpU3S5H8Jwv/AAgmpf8APa2/M0f8IJqX/Pa2/M11f/CUaR/z+x/rR/wlGkf8/sf612/WsX2/A4vqmE7/AInKf8IJqX/Pa2/M0f8ACCal/wA9rb8zXV/8JRpH/P7H+tH/AAlGkf8AP7H+tH1rF9vwD6phO/4nJ/8ACCal/wA9rf8AM1s+G/C02k3r3V1KjNt2oqZwPXOa0/8AhJ9I/wCf2P8AWrNlqllqBYWlwkpXqAeR+FZ1cTiJQanon5GlLDYaM04u7XmLqdiNR06a1LbfMUrux0riv+ED1L/ntbH3BP8AhXfO6ohZiFUckntWafE2kAkfbouOOMms8PWrU7qmvwua4ihRqNOo7P1OT/4QTUv+e1t+Zo/4QTUv+e1t+Zrq/wDhKNI/5/Y/1o/4SjSP+f2P9a6PrWL7fgc31TCd/wATlP8AhBNS/wCe1t+Zo/4QTUv+e1t+Zrq/+Eo0j/n9j/Wj/hKNI/5/Y/1o+tYvt+AfVMJ3/E53TfBN5b6hBPPND5cbhyEyScdBXbis+113TryURQXUbyHoueTWjXJiKtSpL95udmHpUqa/dvQKKzrnXtNs5TFcXcaSDqvcVF/wlGkf8/0f5Gs1Sm1dRf3FutTTs5I1qKyv+Eo0j/n+j/I0f8JRpH/P9H+Rp+xqfyv7g9tT/mRq0Vlf8JRpH/P9H+RoHibSCQPt0XPHOaPY1P5X9we2p/zI1aKRWDqGUgqehFLWZqFFFB6GgDzfxnd/adfaMHKwIEA9CeT/AErBqzqczXOp3UpOS0rYPqM/4YqtX1OHhyU4x8j5WvPnqOXmFFFFamQUlLRQB6B4L1f7dYG0mbM1tgAn+Je3+FdNmvKtAvzp2s28+fkZtj/7p4/Tg16p1xXzuPoqnUutnqfQ4Cs6lKz3QtFFFcZ3BRRRQAUUUUAFFFFABRRRQAUUUUAI33TXjtxk3MxPJMjEk9+a9if7h+leO3H/AB8y/wC+f5162V7y+R5Ga7RI6KWivYPHEopaKAEPQ/SvWdFydEs8/wDPFf5V5Meh+les6L/yBLP/AK4r/KvKzT4Ynq5X8cjz/wAW8+JbrP8As/8AoIrGrZ8W/wDIy3X/AAH/ANBFY9d2G/hR9EcGI/iy9RKKWitzESilooA9C8DH/iQkZOBKwAqp8QSfslkOxlOR68Vb8Df8gI/9dWqp8Qf+PSy/66t/6DXhU/8Affmz3Z/7l8jh6KWivdPCEopaKAErofBBI8QAAkAxNkflXP1v+Cf+RiX/AK5NXPi/4MvQ6ML/ABo+qOx8Tkjw7e4JGUxxXl1eo+J/+Rcvf9z+teXVyZX/AA36nXmn8RegUUtFemeYJRS0UAWtK41ezI4ImXH51632ryTS/wDkLWf/AF2X+det9q8XNPjj6HtZX8EjyLUSTqd0SckytknnPNVqs3//ACErn/rq386r169P4F6HkVPjfqJRS0VZAlFLSUAeqeG/+Rdsf+uQFaYrM8Nf8i9Y/wDXIVpivla38SXqz6uj/Dj6IKZMcQufRTT6jnGYJB6qahbly2PHOTyeSeTS0g6Clr6xbHyL3CiiimAUUUUAJXq2hXf27RbWckFigDY9Rwf1FeVVsaf4nvtMsRa24i2gkhmBJGea4cdh5V4rl3TO3A4hUZvm2Z6dRXmTeLdYbP8ApYA9kXj9KgPiPVj/AMv8v4GuBZZV6tHoPM6XZnqlFeXJ4m1dOl9IfqAasQ+NNXiOXlilHoyAfypSy2qtmmCzOk900ekUda4q18ft8ovLPPHLRN/Q/wCNdBp3iPTtSIWG4Cyf883+U/kev4VzVMLVp/Ejpp4qlU0izWoozRWB0hRRRQAUUUUAI/3D9K8duP8Aj5l/3z/OvYn+4fpXjtx/x8y/75/nXrZXvL5HkZrtEZRRRXsHjhRRRQAh6H6V6zov/IEs/wDriv8AKvJj0P0r1nRf+QJZ/wDXFf5V5WafDE9TK/jkef8Ai3/kZbr/AID/AOgisetjxb/yMt1/wH/0EVj134f+FH0Rw4j+LL1CiiitjEKKKKAPQvA3/IDP/XVqqfEH/j0sv+ujf+g1b8Df8gM/9dWqp8Qf+PSy/wCujf8AoNeFT/335s9yf+5fI4iiiivdPDCiiigArf8ABP8AyMS/9cmrArf8Ef8AIxL/ANcmrnxf8GXodGF/jR9Udj4n/wCRcvf9z+teXV6j4n/5Fy9/3P615dXJlf8ADfqdWafxF6C0UUV6Z5oUUUUAWtL/AOQtZ/8AXZf51632ryTS/wDkLWf/AF2X+det9q8XNPjj6HtZX8EjyK//AOQlc/8AXVv51Xqxf/8AISuf+urfzqvXr0/hXoePU+N+oUUUVZIUlLSUAeqeGv8AkXrH/rkK0xWZ4a/5F6x/65CtOvla38SXqz6qj/Dj6IKRhlSD0IpaKzNTx++hMGoXEJBGyVlAP14qGt3xlZG1195APkuFDg579D/SsKvqaE+empLsfK1oOFRxfcKKKK1MgooooAKKKKACiiigAooooAKT+nIpaKAN/RfF11pzCK7L3Fv05PzL9D3+hrrP+Et0j/n6H/fLf4V5vBC9zPHBGMvIwVR9a77/AIQ2x/2/zrysXRw0ZJyum+x6mFr4lxtDVI6WiiivGPbCiiigBr/cP0rx64/4+Zf98/zr2I1gz+DdKuJ3laOVWkbcQshAzXdgsTCg3zX17HBjcNOuly20POKK9E/4QfSf7s//AH9NH/CD6T/dn/7+mvQ/tKj5nn/2bW8jzuivRP8AhB9J/uz/APf00f8ACD6T/dn/AO/po/tKj5h/ZtbyPOj0P0r1nRf+QLZ/9cU/lWWPA+kgg7JjjnBkPNb8USQxrHGoVFAAA7CuHG4qFdJR6HdgcJOg2521PNPFv/Iy3f8AwH/0EVj16dqPhnTtUuftFwjiQjBKORn61V/4QfSf7s//AH9NdNHMKUaai73SOWtl9WdRyVrNnndFeif8IPpP92f/AL+mj/hB9J/uz/8Af01r/aVHzM/7NreR53RXon/CD6T/AHZ/+/po/wCEH0n+7P8A9/TR/aVHzD+za3kN8Df8gI/9dWqp8QP+PSy/66H/ANBrpbCxg020S2tk2xp2znPuaZqWl22rW/kXSFlByCDgg+xry414rEe1tpc9SWHk8P7JPWx5NRXon/CD6T/dn/7+mj/hB9J/uz/9/TXqf2lR8zy/7NreR53RXon/AAg+k/3Z/wDv6aP+EH0n+7P/AN/TR/aVHzD+za3ked1v+Cf+RiH/AFyaul/4QfSv7s+P+upq7pfh+x0iR5LVG3uMFnbJxWNfH0p03FXuzWhgKtOopO1kN8T/APIu3n+5/WvL69huII7uB4JkDxSLtYHoRWH/AMIPpP8Adn/7+msMFi4UYuMr7nRjcJOtNSied0V6J/wg+k/3Z/8Av6aP+EH0n+7P/wB/TXb/AGlR8zi/s2t5HndFeif8IPpP92f/AL+mj/hB9J/uz/8Af00f2lR8w/s2t5HC6X/yFrP/AK7L/OvW+1Ylp4S0yyukuI45GkjO5d7kgH1rb7V5uNxEa8k49D0cFh50ItStqeRX/wDyErn/AK6t/Oq9ek3fhDS7y5eeSORXkOWCuQCai/4QfSf7s/8A39NehDMaSik7nBPLark2rHndFeif8IPpP92f/v6aP+EH0n+7P/39NV/aVHzJ/s2t5HndJXov/CD6T/dn/wC/po/4QfSf7s//AH9NH9pUfMP7NreRe8N/8i9Y/wDXIVqVDBDHbQJDEoSONQqqOwqavDnLmk33Pcpx5YqPYKKKM+4qSznfGOlm+0ozRrmW3O8Y7juP6/hXnVenah4m0yxDK84lfH+rj+Yn+lea3DxyXMrwxmONmJVCfuj0/Cvcy1zUHGSaXRnhZkoOalFpvqhlFFFekeaFFFFABRRRQAUUUUAFFFFABRRWjomjSa1eiFcrEvMkgH3R/iaic4wi5SdkioQc5KMVds2/BGjmWc6jMvyR5WLPdu5/pXc1Fa28VpbRwQrtjQYUCpq+axFZ1qjk/kfTYeiqNNRW/Ur3l7BYW7TXUqxxqOpP+c1zU/j22VyILWWRR/E2FzXNeINafWL7eAywxjCIf1P1zWXXp0Muhyp1d30PLxGYzcmqeiXU7P8A4WCP+fBv+/lH/CwR/wA+Df8AfyuMorp+oUO34nP9fr9zs/8AhYI/58G/7+Uf8LBH/Pg3/fyuMoo+oUO34h9fr9zs/wDhYI/58G/7+Uf8LBH/AD4N/wB/K4yij6hQ7fiH1+v3Oz/4WCP+fBv+/lH/AAsEf8+Df9/K4yij6hQ7fiH1+v3Oz/4WCP8Anwb/AL+Uf8LBH/Pg3/fyuMoo+oUO34h9fr9zs/8AhYI/58G/7+Uf8LBH/Pg3/fyuMoo+oUO34h9fr9zs/wDhYI/58G/7+Uf8LBH/AD4N/wB/K4yij6hQ7fiH1+v3Oz/4WCP+fBv+/lH/AAsEf8+Df9/K4yij6hQ7fiH1+v3Oz/4WCP8Anwb/AL+Uf8LBH/Pg3/fyuMoo+oUO34h9fr9zs/8AhYI/58G/7+Uf8LBH/Pg3/fyuMoo+oUO34h9fr9zs/wDhYI/58G/7+Uf8LBH/AD4N/wB/K4yij6hQ7fiH1+v3Oz/4WCP+fBv+/lH/AAsEf8+Df9/K4yij6hQ7fiH1+v3Oz/4WCP8Anwb/AL+Uf8LBH/Pg3/fyuMoo+oUO34h9fr9zs/8AhYI/58G/7+Uf8LBH/Pg3/fyuMoo+oUO34h9fr9zs/wDhYI/58G/7+Uf8LBH/AD4N/wB/K4yij6hQ7fiH1+v3Oz/4WCv/AD4N/wB/KP8AhYI/58G/7+VxlFH1Ch2/EPr9fudn/wALBH/Pg3/fyj/hYI/58G/7+VxlFH1Ch2/EPr9fudn/AMLBH/Pg3/fyj/hYI/58G/7+VxlFH1Ch2/EPr9fudn/wsEf8+Df9/KP+Fgj/AJ8G/wC/lcZRR9QodvxD6/X7nZ/8LBH/AD4N/wB/Khf4gTnOywjHoTIT/SuSoprA0F9kHjq7+0b8/jXVZlIRoYc9CiZI/Osm61S9vs/arqWQE/dLYH5dKrUVtChSh8KRhOvUn8TYlLRRWpkFFFFABRRRQAUUUUAFFFJQAtFT2en3eoSbLS3eVu5A4H1Paut0jwOqES6o28jkQoePxPf6D9a562Kp0l7z17G9HDVKr91adzn9E8P3OszKVBjtgfmlI/Qetej6dp1vplqILZdqDqe5PqaniijgjWOJFRFGAqjAFSV4WIxUq77Lse7hsJCgu77hRRRXMdZ4yfvUUHqaK+uPkAooooAKKKKACiiigAooooAKKKKACiiigAooooAKKKKACiiigAooooAKKKKACiiigAooooAKKKKACiiigAooooAKKKKACiiigAooooAKKKKACiiigAooooAKKKKACj+vFFbHhXT/AO0Nbi3LmKH94+fbp+uPyNZ1JqnBzfQulB1JqC6lpPA2pugJeBSRkgsamj8BXx+/cwJ9ATXfUV4bzCu+p7qy6iuhxkPw/H/Le+bP/TNMfzrVtPB+lWpDGEzMO8jZx+Fb1FYzxdae8mbQwlGG0RkcUcKBI0VFHQKMAU+iiufc6dgooooAKKKKAPGn++aSpbuBra6kif7y4z+Wair61NNXR8i007MKKKKYgooooAKKKKACiiigAooooAKKKKACiiigAooooAKKKKACiiigAooooAKKKKACiiigAooooAKKKKACiiigAooooAKKKKACiiigAooooAKKKKACiiigAooooASvRPBemmz0jz5BiS5O85HRe3+P41xOj6e2qanDajO1jlz6KOv+FeroixoqKMKowBXlZnWslTXqz1cso3bqPpoh1FFFeMe0FFFFABRRRQAUUUUAFFFFAHmnjCDyPEU3pIisPyx/SsSuq8fW+zULWcD78ZUn6Hj+Zrla+mwkuajF+X5HzGLjy1pLzCiiiug5wooooAKKKKACiiigAooooAKKKKACiiigAooooAKKKKACiiigAooooAKKKKACiiigAooooAKKKKACiiigAooooAKKKKACiiigAooooAKKKKACiiigAooq5pGntqmpw2q52scuw7KOv+H41M5KEXJ7IqEXKSit2df4I0v7PZPeyLiSfhM9kH+J5/KurpkUSwxrGihVUBQB2Ap9fL1qjqTc31PqKFJUoKKCiiiszUKKKKACiiigAooooAKKKKAOX8eQGTSIZh/yylGfx4rga9V161+16LdxcZMZIyO45/pXlI5ANe7ls70nHszwczhaqpd0LRRRXonnBRRRQAUUUUAFFFFABRRRQAUUUUAFFFFABRRRQAUUUUAFFFFABRRRQAUUUUAFFFFABRRRQAUUUUAFFFFABRRRQAUUUUAFFFFABRRRQAUUUUAFFFFACV6D4M0f7FYfa5VxPcDPPUL2H9a5fwxpB1bU13j/AEeAh5Pf0X8f5V6aAAAB0ryMxxH/AC6j8z1stw//AC9l8haKKK8g9kKKKKACiiigAooooAKKKKACiiigBOteTavaGw1a6t8EBHJXPcHkV6yK4Tx5Y+VewXqj5ZV2MQP4h/iOPwr0MtqctTlfU87MqfNSUl0OVooor3jwQooooAKKKKACiiigAooooAKKKKACiiigAooooAKKKKACiiigAooooAKKKKACiiigAooooAKKKKACiiigAooooAKKKKACiiigAooooAKKKKACnwwyXM6QRLukkbao9TUdd34O0E2sQv7lSJpBhFI+6vr9T/KufE4hUYOXXob4ag681FbdTb0XSk0jTkt05bq7f3m7mtGiivmpScm5Pdn00YqEVFbIKKKKRQUUUUAFFFFABRRRQAUUUUAFFFFABWN4o046jokyIMyR/vE+o/xGR+NbNIcEEHoaqEnCSkuhFSCnFxfU8Zpa0/EOmnS9ZliAxE53x/Q//XyKzK+ppzU4KS2Z8rUg4ScXugoooqyQooooAKKKKACiiigAooooAKKKKACiiigAooooAKKKKACiiigAooooAKKKKACiiigAooooAKKKKACiiigAooooAKKKKACiiigAoorV8P6FLrV4MgraxnMr+v8Asj3/AJVE6kacXKTskXTpupJRirtl3wnoH9pT/a7lT9mib5QR99v8BXoYGBxTIIY7eFIoUCIowqgcAU+vm8RiHWnzPbofSYbDqhDlW4tFFFYHQFFFFABRRRQAUUUUAFFFFABRRRQAUUUUAFFFFAHOeMdIN/pv2iJcz22WGByy9x/WvO69mxnIPQ15j4m0c6TqrCMf6PNl4vb1H4fyr18txGjpS+R42ZUNVVXzMiiiivXPJCiiigAooooAKKKKACiiigAooooAKKKKACiiigAooooAKKKKACiiigAooooAKKKKACiiigAooooAKKKKACiiigAooooAKKK1tD8Pz61KDho7UH5pCOvsPWonUjTTlJ2SLp05VGoxV2xmhaFPrV1tXKW6H95Ljp7D3r0uzs4bC1S3t0CRoOAKLOzhsLZILaMJGgwAKnr57FYqVeXZdEfQ4XCxoR7ti0UUVynWFFFFABRRRQAUUUUAFFFFABRRRQAUUUUAFFFFABRRRQAVm63pUer6c9u/D9Ub+63atKinGTi1JbomUVOLi+p47cW8tpcPDOhSRDhh/X6VHXoXinw6NUgN1bLi6jHQf8tB6f5+leekEEgggg4IIxivpMNiFXhfr1R83isO6E7PbowooorpOYKKKKACiiigAooooAKKKKACiiigAooooAKKKKACiiigAooooAKKKKACiiigAooooAKKKKACiiigAooooAKSpbe2mu51ht4mlkboFH+eK7jQvB0VntuNQAmnGCqD7qf4n9K5q+Jp0V7z17HRQw06z91adzG0DwlJqGLi+DQ22eFxhn/wFd/DDHbwpFEgREGFUDAAp4GMCivBr4ideV5bHv4fDwoq0dxaKKKwOgKKKKACiiigAooooAKKKKACiiigAooooAKKKKACiiigAooooAKKKKACuU8T+Fvtu68sVAuOroOBJ/8AX/nXV0VpSqypS5osyq0Y1Y8sjxplaN2R1ZXU4ZSMEUleka94Yg1dTLGRFdAcSAcH615/f6dc6bcGG7iKN2bs30Pevfw2LhWXZ9j5/E4SdF913K9FFFdZyhRRRQAUUUUAFFFFABRRRQAUUUUAFFFFABRRRQAUUUUAFFFFABRRRQAUUUUAFFFFABRSVsaZ4W1HUsN5fkxH/lpKMfkOp/SonUhTV5uxcKcqjtBXMit7R/CV5qWJJw1tbn+Jh8zfQf1P611uk+FrHSsSbfPnH/LSQdPoO1bQrycRmV9KS+Z6tDLba1X8ijpmkWmlQ+Xaxhc/eb+Jvqav0UV5cpOTu3dnqxioqyVgooopFBRRRQAUUUUAFFFFABRRRQAUUUUAFFFFABRRRQAUUUUAFFFFABRRRQAUUUUAFFFFABVa7s4L+AxXMSSIeoYf5xVmihNp3Qmk1ZnD6r4FkQmTTJN69fKkPI+jf4/rXLXNrcWcnl3ULwv6MMZr2Gobi1huoyk8SSIezDNejRzGpDSeqPOrZdCesNGeP0V3194GsLjc1o72znoB8y/kf6VgXfgvVLYkxLHcJngocH8j/wDXr0aeNoz62fmebUwNaHS68jAoqWe0uLUhbiCWInoGQjNQ11qSaujlaadmLRRRTEFFFFABRRRQAUUUUAFFFFABRRRQAUUUUAFFJ14HJ9uauWukahe4+z2krqeQ23AP4niplOMVeTsVGEpOyVypRXTWngW/mwbmWKBSM4Hzkf0/nW7Z+CtMtsGYPct/00PH5DiuSpj6MOt/Q6qeArT6WXmefwW011II7eJ5WPZBmui0/wAD3tzh7yRbdD/CPmY/4V3cFtDbIEgiSNR2UYqU1wVcym9IK35noUsthHWbuZOm+GtO0whooQ8g/wCWknzH/wCt+Fa/SiivPlOU3eTuehCEYK0VYKKKKksKKKKACiiigAooooAKKKKACiiigAooooAKKKKACiiigAooooAKKKKACiiigAooooAKKKKACiiigAooooAKKKKACiiigBrIrqVZQwPUEVm3Hh3SrrmSyhz6qNv8q1KT8qcZyi7xbREoRkrSVzmLjwJp0gPkyzxMeh3ZAqhN8P5B/qL5T/10T/Cu3pK6I42vH7RzywVCW8Tz2bwNqcf+reCX6MRVaTwhrEf/AC7I3+5IK9MorZZlWW9mZPLaL2ujys+G9XGf9Al/Db/jTDoOqr10+f8ALNer0Vf9p1OyI/sun3Z5N/Yupf8APhP/AN8Uo0PUz0sJ/wDvmvWKKf8Aac/5UL+y4fzM8qHh3Vz0sJvxwKlj8K6xJ/y5Mv8AvMBXqGKKTzOp2Q1ldPuzzdPBWruw3JCoPUmTOP0q5H4BvDjzLqFR3ABOK7yis3mNZ7WXyNFl1FdGzkYfAFuGBmvJXHcKoWr8HgzSIc7oGmz/AM9HJx+Vb2KWsJYqtLeTN44SjHaJTt9LsrTHkWsKEDAIQZ/OrnSj8aKxbb1bNlFJaIKKKKRQUUUUAFFFFABRRRQAUUUUAFFFFABRRRQAUUUUAFFFFABRRRQAUUUUAFFFFABRRRQAUUUUAFFFFABRRRQAUUUUAFFFFABRRRQAUUUUAFFFFABRRRQAUUUUAFFFFABRRRQAUUUUAFFFFABRRRQAUUUUAFFFFABRRRQAUUUUAFFFFABRRRQAUUUUAFFFFABRRRQAUUUUAFFFFABRRRQAUUUUAFFFFABRRRQAUUUUAFFFFABRRRQAUUUUAFFFFABRRRQAUUUUAFFFFABRRRQAUUUUAFFFFABRRRQAUUUUAFFFFABRRRQAUUUUAFFFFABRRRQAUUUUAFFFFABRRRQAUUUUAFFFFABRRRQAUUUUAFFFFABRRRQAUUUUAFFFFABRRRQAUUUUAFFFFABRRRQAUUUUAFFFFABRRRQAUUUUAFFFFABRRRQAUUUUAFFFFABRRRQAUUUUAFFFFABRRRQAUUUUAFFFFABRRRQAUUUUAFFFFABRRRQAUUUUAFFFFABRRRQAUUUUAFFFFABRRRQAUUUUAFFFFABRRRQAUUUUAFFFFABRS0UAJRS0UAJRS0UAJRS0UAJRS0UAJRS0UAJRS0UAJRS0UAJRS0UAJRS0UAJRS0UAJRS0UAJRS0UAJRS0UAJRS0UAJRS0UAJRS0UAJRS0UAJRS0UAJRS0UAJRS0UAJRS0UAJRS0UAJRS0UAJRS0UAJRS0UAJRS0UAJRS0UAJRS0UAJRS0UAf/2Q==;" vertex="1" parent="1">
          <mxGeometry x="130" y="300" width="20" height="20" as="geometry" />
        </mxCell>
        <mxCell id="iRdQwPABQsQ_W9aUvFbF-27" value="" style="shape=image;imageAspect=0;aspect=fixed;verticalLabelPosition=bottom;verticalAlign=top;image=data:image/jpeg,/9j/4AAQSkZJRgABAQEAAAAAAAD/4QAuRXhpZgAATU0AKgAAAAgAAkAAAAMAAAABAAAAAEABAAEAAAABAAAAAAAAAAD/2wBDAAoHBwkHBgoJCAkLCwoMDxkQDw4ODx4WFxIZJCAmJSMgIyIoLTkwKCo2KyIjMkQyNjs9QEBAJjBGS0U+Sjk/QD3/2wBDAQsLCw8NDx0QEB09KSMpPT09PT09PT09PT09PT09PT09PT09PT09PT09PT09PT09PT09PT09PT09PT09PT09PT3/wAARCAHaAdoDASIAAhEBAxEB/8QAHwAAAQUBAQEBAQEAAAAAAAAAAAECAwQFBgcICQoL/8QAtRAAAgEDAwIEAwUFBAQAAAF9AQIDAAQRBRIhMUEGE1FhByJxFDKBkaEII0KxwRVS0fAkM2JyggkKFhcYGRolJicoKSo0NTY3ODk6Q0RFRkdISUpTVFVWV1hZWmNkZWZnaGlqc3R1dnd4eXqDhIWGh4iJipKTlJWWl5iZmqKjpKWmp6ipqrKztLW2t7i5usLDxMXGx8jJytLT1NXW19jZ2uHi4+Tl5ufo6erx8vP09fb3+Pn6/8QAHwEAAwEBAQEBAQEBAQAAAAAAAAECAwQFBgcICQoL/8QAtREAAgECBAQDBAcFBAQAAQJ3AAECAxEEBSExBhJBUQdhcRMiMoEIFEKRobHBCSMzUvAVYnLRChYkNOEl8RcYGRomJygpKjU2Nzg5OkNERUZHSElKU1RVVldYWVpjZGVmZ2hpanN0dXZ3eHl6goOEhYaHiImKkpOUlZaXmJmaoqOkpaanqKmqsrO0tba3uLm6wsPExcbHyMnK0tPU1dbX2Nna4uPk5ebn6Onq8vP09fb3+Pn6/9oADAMBAAIRAxEAPwD2WiiigAooooAKKKKACiiigAooooAKKKKACiiigAooooAKKKKACiiigAooooAKKKKACiiigAooooAKKKKACiiigAooooAKKKKACiiigAooooAKKKKACiiigAooooAKKKKACiiigAooooAKKKKACiiigAooooAKKKKACiiigAooooAKKKKACiiigAooooAKKKKACiiigAooooAKKKKACiiigAooooAKKKKACiiigAooooAKKKKACiiigAooooAKKKKACiiigAooooAKKKKACiiigAooooAKKKKACiiigAooooAKKKKACiiigAooooAKKKKACiiigAooooAKKKKACiiigAooooAKKKKACiiigAooooAKKKKACiiigAooooAKKKKACiiigAooooAKKKKACiiigAooooAKKKKACiiigAooooAKKKKACiiigAooooAKKKKACiiigAooooAKKKKACiiigAooooAKKKKACiiigAooooAKKKKACiiigAooooAKKKKACiiigAooooAKKKKACiiigAooooAKKKKACiiigAooooAKKKKACiiigAooooAKKKKACiiigAooooAKKKKACiiigAooooAKKKKACiiigAooooAKKKKACiiigAooooAKKKKACiiigAooooAKKKKACiiigAooooAKKKKACiiigAooooAKKKKACiiigAooooAKKKKACiiigCpqV4unWE10ylvKXdtHeuLPjy/ycW8AHpzXU+KP+RcvP9z+teXV6uX4enUg3NXdzycwxFSnNKDsjqP+E9v/APn3g/Wj/hPb/wD594P1rmKK7/qVH+U8/wCuV/5mdP8A8J7f/wDPvB+tH/Ce3/8Az7wfrXMUUfUqP8ofXK/8zOw0zxtc3GoQQXNvHslYISpORnoa7WvJNL/5C1n/ANdl/nXrg6V5WYUYUprkVro9XL606sXzO9gooorgPRCiiigAooooAKKKKACiiigAooooAKKKKACiiigAooooAKKKKACiiigAooooAKKKKACiiigAooooAKKKKACiiigAooooAKKKKACiiigAooooAKKKKACiiigAooooAKKKKACiiigDJ8T/APIuXv8Auf1ry6vUfE//ACLl7/uf1ry6vbyv+G/U8LNP4i9BaKKK9M80KKKKALWl/wDIWs/+uy/zr1vtXkml/wDIWs/+uy/zr1vtXi5p8cfQ9rK/hkLRRRXlnqhRRRQAUUUUAFFFFABRRRQAUUUUAFFFFABRRRQAUUUUAFFFFABRRRQAUUUUAFFFFABRRRQAUUUUAFFFFABRRRQAUUUUAFFFFABRRRQAUUUUAFFFFABRRRQAUUUUAFFFFABRRRQBk+KP+RcvP9z+teXV6rr9vJd6HdQwqWkZPlA715l/Z96OtncfjGa9nLJxUGm+p4uZQk6iaXQgoqf+z7z/AJ9Lj/v2aP7PvP8An0uP+/Zr0vaR7nm+zn2ZBRU/9n3n/Ppcf9+zR/Z95/z6XH/fs0e0j3D2c+zH6X/yFrP/AK7L/OvXBXluj6Xevq9r/oswCyqzMyEAAHPevURXjZlKMpxs+h7OWRcYSuuotFFFeaemFFFFABRRRQAUUUUAFFFFABRRRQAUUUUAFFFFABRRRQAUUUUAFFFFABRRRQAUUUUAFFFFABRRRQAUUUUAFFFFABRRRQAUUUUAJmjNeeeLNUvF12aBLmRIowoVUbHbJ/Gsb+0rz/n7n/7+GvRpZdOcVK6V1c82pmUac3GzdmeufjR+NeR/2lef8/c//fw0f2lef8/c/wD38NX/AGXL+ZGf9qR/lPXPxo/GvI/7SvP+fuf/AL+Gj+0r3/n7n/7+Gj+y5fzIP7Uj/Keu0ZrC8I3s99oivcuZJEcpuPUgevvVTxvf3FlYW628rRebIQzKcHAFcKoSdX2XW9jveISpe16WudP+NH415H/aV5/z9z/9/DR/aV5/z9z/APfw13f2XL+ZHB/asf5T1z8aPxryP+0rz/n7n/7+Gj+0rz/n7n/7+Gj+y5fzIP7Uj/Keu5pPpXkf9pXn/P3P/wB/DXQ+DNTvJdXa2mnkkjaMttc5AIPas62Xypwc7p2NKWYxqTULNXO8pvHfFUNeupbPRbqeE7ZFQ7W9D615mdTviSTeTkk8kyHmssNhJV02naxricZGg1Fq9z1yj8a8j/tK8/5+5/8Av4aP7SvP+fuf/v4a6v7Ln/Mc39qR/lPXPxo/GvI/7SvP+fuf/v4aP7SvP+fuf/v4aP7Ln/MH9qQ/lPXBjtilry7R9Wvo9Xtv9KlZWkVWVmyGBNeoD1rixOHlQkk3c7cNiVXi2lYWiiiuc6QooooAKKKKACiiigAooooAKKKKACiiigAooooAKKKKACiiigAooooAKKKKACiiigAooooAKKKKACiiigAooooAKKKKACiiigDzHxb/AMjLd/8AAf8A0EVj1seLf+Rlu/8AgP8A6CKx6+ow/wDCj6I+WxH8WXqFFFFbGIUUUUAeheBv+QGf+urVU+IP/HpZf9dG/wDQat+Bv+QGf+urVU+IP/HpZf8AXRv/AEGvCp/7782e5P8A3L5HEUUUV7p4YUUUUAFb/gj/AJGJf+uTVgVv+Cf+RiX/AK5NXPi/4MvQ6ML/ABo+qOx8T/8AIuXv+5/WvLq9R8T/APIuXv8Auf1ry6uTK/4b9TqzT+IvQWiiivTPNCiiigC1pf8AyFrP/rsv869bryTS/wDkLWf/AF2X+det9q8XNPjj6HtZX8MhaKKK8s9UKKKKACiiigAooooAKKKKACkyAMmlrmPGWtNY2gs7dsTzjkg8qvc/U9PzrSlTdSaiuplWqKlByZdtfFOm3d69ss2x1bapcYV/oa2eteM10GheKrnTGWK4LT2uehOWT6e3tXo18taV6bv5HnUMyu7VFbzPR6Kr2d5Bf26z28iyRsOCKsV5TTTsz1U01dBRRRQMKKKKACiiigAooooAKKKKACiiigAooooAKKKKACiiigAooooAKKKKAPMfFv8AyMt3/wAB/wDQRWPWx4t/5GW7/wCA/wDoIrHr6jD/AMKPoj5bEfxZeoUUUVsYhRRRQB6F4G/5AZ/66tVT4g/8ell/10b/ANBq34G/5AZ/66tVT4g/8ell/wBdG/8AQa8Kn/vvzZ7k/wDcvkcRRRRXunhhRRRQAVv+Cf8AkYl/65NWBW/4I/5GJf8Ark1c+L/gy9Dowv8AGj6o7HxP/wAi5e/7n9a8ur1HxP8A8i5e/wC5/WvLq5Mr/hv1OrNP4i9BaKKK9M80KKKKALWl/wDIWs/+uy/zr1vtXkml/wDIWs/+uy/zr1uvFzT44+h7WV/DIWiiivLPVCiiigAooooAKKKKACiiigCOaZLeJ5ZDhEUsx9hXk2p376lqE13J1kbKj+6vYflXbeOL82+lLbIcNcNg4/ujk/0rgK9nLKNouo93ojxMyrXkqa2W4UUUV6p5ZpaJrc+i3W9MvC5/eR5+97j0Nel2N7BqFqlxbMHjccH/ABryKtzwvrraTeiKVv8ARJjh8/wn+9XnY3CKonUgtV+J6OCxbptQm9H+B6VRSAhgCOQaWvCPeCiiigAooooAKKKKACiiigAooooAKKKKACikFZ1xr+mWsrRTXcauvDLnJFOMXLSKuTKcYq8nY0qKyv8AhKNI/wCf6P8AI0f8JRpH/P8AR/kav2NT+V/cR7an/MjVorK/4SjSP+f6P8jR/wAJRpH/AD/R/kaPY1P5X9we2p/zI1Pypayl8S6S7hRexZJwM8VqBgwBHINTKEofErFRnGfwu5yOv+ELrUdUku7aaICQDKvnIIGKzP8AhBdR/wCe1v8Ama7S91ix05gl3cxxuRkKTzVc+KNIP/L7H+tdlPE4lRSirpbaHDUwuGc25PV+Zyn/AAgmpf8APa2/M0f8IJqX/Pa2/M11f/CUaR/z+x/rR/wlGkf8/sf61p9axfb8CPqmE7/icp/wgmpf89rb8zR/wgmpf89rb8zXV/8ACUaR/wA/sf60f8JRpH/P7H+tH1rF9vwD6phO/wCI7w/pTaNpi2zyB5CxZmA4yfT2qDxNob65ZxJDKI5Im3Lu6HtzWtBPFcwrLC6yRsMqynINNuruCygMtzKsSA4yxxXEqk1V51udrpU3S5H8Jwv/AAgmpf8APa2/M0f8IJqX/Pa2/M11f/CUaR/z+x/rR/wlGkf8/sf612/WsX2/A4vqmE7/AInKf8IJqX/Pa2/M0f8ACCal/wA9rb8zXV/8JRpH/P7H+tH/AAlGkf8AP7H+tH1rF9vwD6phO/4nJ/8ACCal/wA9rf8AM1s+G/C02k3r3V1KjNt2oqZwPXOa0/8AhJ9I/wCf2P8AWrNlqllqBYWlwkpXqAeR+FZ1cTiJQanon5GlLDYaM04u7XmLqdiNR06a1LbfMUrux0riv+ED1L/ntbH3BP8AhXfO6ohZiFUckntWafE2kAkfbouOOMms8PWrU7qmvwua4ihRqNOo7P1OT/4QTUv+e1t+Zo/4QTUv+e1t+Zrq/wDhKNI/5/Y/1o/4SjSP+f2P9a6PrWL7fgc31TCd/wATlP8AhBNS/wCe1t+Zo/4QTUv+e1t+Zrq/+Eo0j/n9j/Wj/hKNI/5/Y/1o+tYvt+AfVMJ3/E53TfBN5b6hBPPND5cbhyEyScdBXbis+113TryURQXUbyHoueTWjXJiKtSpL95udmHpUqa/dvQKKzrnXtNs5TFcXcaSDqvcVF/wlGkf8/0f5Gs1Sm1dRf3FutTTs5I1qKyv+Eo0j/n+j/I0f8JRpH/P9H+Rp+xqfyv7g9tT/mRq0Vlf8JRpH/P9H+RoHibSCQPt0XPHOaPY1P5X9we2p/zI1aKRWDqGUgqehFLWZqFFFB6GgDzfxnd/adfaMHKwIEA9CeT/AErBqzqczXOp3UpOS0rYPqM/4YqtX1OHhyU4x8j5WvPnqOXmFFFFamQUlLRQB6B4L1f7dYG0mbM1tgAn+Je3+FdNmvKtAvzp2s28+fkZtj/7p4/Tg16p1xXzuPoqnUutnqfQ4Cs6lKz3QtFFFcZ3BRRRQAUUUUAFFFFABRRRQAUUUUAI33TXjtxk3MxPJMjEk9+a9if7h+leO3H/AB8y/wC+f5162V7y+R5Ga7RI6KWivYPHEopaKAEPQ/SvWdFydEs8/wDPFf5V5Meh+les6L/yBLP/AK4r/KvKzT4Ynq5X8cjz/wAW8+JbrP8As/8AoIrGrZ8W/wDIy3X/AAH/ANBFY9d2G/hR9EcGI/iy9RKKWitzESilooA9C8DH/iQkZOBKwAqp8QSfslkOxlOR68Vb8Df8gI/9dWqp8Qf+PSy/66t/6DXhU/8Affmz3Z/7l8jh6KWivdPCEopaKAErofBBI8QAAkAxNkflXP1v+Cf+RiX/AK5NXPi/4MvQ6ML/ABo+qOx8Tkjw7e4JGUxxXl1eo+J/+Rcvf9z+teXVyZX/AA36nXmn8RegUUtFemeYJRS0UAWtK41ezI4ImXH51632ryTS/wDkLWf/AF2X+det9q8XNPjj6HtZX8EjyLUSTqd0SckytknnPNVqs3//ACErn/rq386r169P4F6HkVPjfqJRS0VZAlFLSUAeqeG/+Rdsf+uQFaYrM8Nf8i9Y/wDXIVpivla38SXqz6uj/Dj6IKZMcQufRTT6jnGYJB6qahbly2PHOTyeSeTS0g6Clr6xbHyL3CiiimAUUUUAJXq2hXf27RbWckFigDY9Rwf1FeVVsaf4nvtMsRa24i2gkhmBJGea4cdh5V4rl3TO3A4hUZvm2Z6dRXmTeLdYbP8ApYA9kXj9KgPiPVj/AMv8v4GuBZZV6tHoPM6XZnqlFeXJ4m1dOl9IfqAasQ+NNXiOXlilHoyAfypSy2qtmmCzOk900ekUda4q18ft8ovLPPHLRN/Q/wCNdBp3iPTtSIWG4Cyf883+U/kev4VzVMLVp/Ejpp4qlU0izWoozRWB0hRRRQAUUUUAI/3D9K8duP8Aj5l/3z/OvYn+4fpXjtx/x8y/75/nXrZXvL5HkZrtEZRRRXsHjhRRRQAh6H6V6zov/IEs/wDriv8AKvJj0P0r1nRf+QJZ/wDXFf5V5WafDE9TK/jkef8Ai3/kZbr/AID/AOgisetjxb/yMt1/wH/0EVj134f+FH0Rw4j+LL1CiiitjEKKKKAPQvA3/IDP/XVqqfEH/j0sv+ujf+g1b8Df8gM/9dWqp8Qf+PSy/wCujf8AoNeFT/335s9yf+5fI4iiiivdPDCiiigArf8ABP8AyMS/9cmrArf8Ef8AIxL/ANcmrnxf8GXodGF/jR9Udj4n/wCRcvf9z+teXV6j4n/5Fy9/3P615dXJlf8ADfqdWafxF6C0UUV6Z5oUUUUAWtL/AOQtZ/8AXZf51632ryTS/wDkLWf/AF2X+det9q8XNPjj6HtZX8EjyK//AOQlc/8AXVv51Xqxf/8AISuf+urfzqvXr0/hXoePU+N+oUUUVZIUlLSUAeqeGv8AkXrH/rkK0xWZ4a/5F6x/65CtOvla38SXqz6qj/Dj6IKRhlSD0IpaKzNTx++hMGoXEJBGyVlAP14qGt3xlZG1195APkuFDg579D/SsKvqaE+empLsfK1oOFRxfcKKKK1MgooooAKKKKACiiigAooooAKT+nIpaKAN/RfF11pzCK7L3Fv05PzL9D3+hrrP+Et0j/n6H/fLf4V5vBC9zPHBGMvIwVR9a77/AIQ2x/2/zrysXRw0ZJyum+x6mFr4lxtDVI6WiiivGPbCiiigBr/cP0rx64/4+Zf98/zr2I1gz+DdKuJ3laOVWkbcQshAzXdgsTCg3zX17HBjcNOuly20POKK9E/4QfSf7s//AH9NH/CD6T/dn/7+mvQ/tKj5nn/2bW8jzuivRP8AhB9J/uz/APf00f8ACD6T/dn/AO/po/tKj5h/ZtbyPOj0P0r1nRf+QLZ/9cU/lWWPA+kgg7JjjnBkPNb8USQxrHGoVFAAA7CuHG4qFdJR6HdgcJOg2521PNPFv/Iy3f8AwH/0EVj16dqPhnTtUuftFwjiQjBKORn61V/4QfSf7s//AH9NdNHMKUaai73SOWtl9WdRyVrNnndFeif8IPpP92f/AL+mj/hB9J/uz/8Af01r/aVHzM/7NreR53RXon/CD6T/AHZ/+/po/wCEH0n+7P8A9/TR/aVHzD+za3kN8Df8gI/9dWqp8QP+PSy/66H/ANBrpbCxg020S2tk2xp2znPuaZqWl22rW/kXSFlByCDgg+xry414rEe1tpc9SWHk8P7JPWx5NRXon/CD6T/dn/7+mj/hB9J/uz/9/TXqf2lR8zy/7NreR53RXon/AAg+k/3Z/wDv6aP+EH0n+7P/AN/TR/aVHzD+za3ked1v+Cf+RiH/AFyaul/4QfSv7s+P+upq7pfh+x0iR5LVG3uMFnbJxWNfH0p03FXuzWhgKtOopO1kN8T/APIu3n+5/WvL69huII7uB4JkDxSLtYHoRWH/AMIPpP8Adn/7+msMFi4UYuMr7nRjcJOtNSied0V6J/wg+k/3Z/8Av6aP+EH0n+7P/wB/TXb/AGlR8zi/s2t5HndFeif8IPpP92f/AL+mj/hB9J/uz/8Af00f2lR8w/s2t5HC6X/yFrP/AK7L/OvW+1Ylp4S0yyukuI45GkjO5d7kgH1rb7V5uNxEa8k49D0cFh50ItStqeRX/wDyErn/AK6t/Oq9ek3fhDS7y5eeSORXkOWCuQCai/4QfSf7s/8A39NehDMaSik7nBPLark2rHndFeif8IPpP92f/v6aP+EH0n+7P/39NV/aVHzJ/s2t5HndJXov/CD6T/dn/wC/po/4QfSf7s//AH9NH9pUfMP7NreRe8N/8i9Y/wDXIVqVDBDHbQJDEoSONQqqOwqavDnLmk33Pcpx5YqPYKKKM+4qSznfGOlm+0ozRrmW3O8Y7juP6/hXnVenah4m0yxDK84lfH+rj+Yn+lea3DxyXMrwxmONmJVCfuj0/Cvcy1zUHGSaXRnhZkoOalFpvqhlFFFekeaFFFFABRRRQAUUUUAFFFFABRRWjomjSa1eiFcrEvMkgH3R/iaic4wi5SdkioQc5KMVds2/BGjmWc6jMvyR5WLPdu5/pXc1Fa28VpbRwQrtjQYUCpq+axFZ1qjk/kfTYeiqNNRW/Ur3l7BYW7TXUqxxqOpP+c1zU/j22VyILWWRR/E2FzXNeINafWL7eAywxjCIf1P1zWXXp0Muhyp1d30PLxGYzcmqeiXU7P8A4WCP+fBv+/lH/CwR/wA+Df8AfyuMorp+oUO34nP9fr9zs/8AhYI/58G/7+Uf8LBH/Pg3/fyuMoo+oUO34h9fr9zs/wDhYI/58G/7+Uf8LBH/AD4N/wB/K4yij6hQ7fiH1+v3Oz/4WCP+fBv+/lH/AAsEf8+Df9/K4yij6hQ7fiH1+v3Oz/4WCP8Anwb/AL+Uf8LBH/Pg3/fyuMoo+oUO34h9fr9zs/8AhYI/58G/7+Uf8LBH/Pg3/fyuMoo+oUO34h9fr9zs/wDhYI/58G/7+Uf8LBH/AD4N/wB/K4yij6hQ7fiH1+v3Oz/4WCP+fBv+/lH/AAsEf8+Df9/K4yij6hQ7fiH1+v3Oz/4WCP8Anwb/AL+Uf8LBH/Pg3/fyuMoo+oUO34h9fr9zs/8AhYI/58G/7+Uf8LBH/Pg3/fyuMoo+oUO34h9fr9zs/wDhYI/58G/7+Uf8LBH/AD4N/wB/K4yij6hQ7fiH1+v3Oz/4WCP+fBv+/lH/AAsEf8+Df9/K4yij6hQ7fiH1+v3Oz/4WCP8Anwb/AL+Uf8LBH/Pg3/fyuMoo+oUO34h9fr9zs/8AhYI/58G/7+Uf8LBH/Pg3/fyuMoo+oUO34h9fr9zs/wDhYI/58G/7+Uf8LBH/AD4N/wB/K4yij6hQ7fiH1+v3Oz/4WCv/AD4N/wB/KP8AhYI/58G/7+VxlFH1Ch2/EPr9fudn/wALBH/Pg3/fyj/hYI/58G/7+VxlFH1Ch2/EPr9fudn/AMLBH/Pg3/fyj/hYI/58G/7+VxlFH1Ch2/EPr9fudn/wsEf8+Df9/KP+Fgj/AJ8G/wC/lcZRR9QodvxD6/X7nZ/8LBH/AD4N/wB/Khf4gTnOywjHoTIT/SuSoprA0F9kHjq7+0b8/jXVZlIRoYc9CiZI/Osm61S9vs/arqWQE/dLYH5dKrUVtChSh8KRhOvUn8TYlLRRWpkFFFFABRRRQAUUUUAFFFJQAtFT2en3eoSbLS3eVu5A4H1Paut0jwOqES6o28jkQoePxPf6D9a562Kp0l7z17G9HDVKr91adzn9E8P3OszKVBjtgfmlI/Qetej6dp1vplqILZdqDqe5PqaniijgjWOJFRFGAqjAFSV4WIxUq77Lse7hsJCgu77hRRRXMdZ4yfvUUHqaK+uPkAooooAKKKKACiiigAooooAKKKKACiiigAooooAKKKKACiiigAooooAKKKKACiiigAooooAKKKKACiiigAooooAKKKKACiiigAooooAKKKKACiiigAooooAKKKKACj+vFFbHhXT/AO0Nbi3LmKH94+fbp+uPyNZ1JqnBzfQulB1JqC6lpPA2pugJeBSRkgsamj8BXx+/cwJ9ATXfUV4bzCu+p7qy6iuhxkPw/H/Le+bP/TNMfzrVtPB+lWpDGEzMO8jZx+Fb1FYzxdae8mbQwlGG0RkcUcKBI0VFHQKMAU+iiufc6dgooooAKKKKAPGn++aSpbuBra6kif7y4z+Wair61NNXR8i007MKKKKYgooooAKKKKACiiigAooooAKKKKACiiigAooooAKKKKACiiigAooooAKKKKACiiigAooooAKKKKACiiigAooooAKKKKACiiigAooooAKKKKACiiigAooooASvRPBemmz0jz5BiS5O85HRe3+P41xOj6e2qanDajO1jlz6KOv+FeroixoqKMKowBXlZnWslTXqz1cso3bqPpoh1FFFeMe0FFFFABRRRQAUUUUAFFFFAHmnjCDyPEU3pIisPyx/SsSuq8fW+zULWcD78ZUn6Hj+Zrla+mwkuajF+X5HzGLjy1pLzCiiiug5wooooAKKKKACiiigAooooAKKKKACiiigAooooAKKKKACiiigAooooAKKKKACiiigAooooAKKKKACiiigAooooAKKKKACiiigAooooAKKKKACiiigAooq5pGntqmpw2q52scuw7KOv+H41M5KEXJ7IqEXKSit2df4I0v7PZPeyLiSfhM9kH+J5/KurpkUSwxrGihVUBQB2Ap9fL1qjqTc31PqKFJUoKKCiiiszUKKKKACiiigAooooAKKKKAOX8eQGTSIZh/yylGfx4rga9V161+16LdxcZMZIyO45/pXlI5ANe7ls70nHszwczhaqpd0LRRRXonnBRRRQAUUUUAFFFFABRRRQAUUUUAFFFFABRRRQAUUUUAFFFFABRRRQAUUUUAFFFFABRRRQAUUUUAFFFFABRRRQAUUUUAFFFFABRRRQAUUUUAFFFFACV6D4M0f7FYfa5VxPcDPPUL2H9a5fwxpB1bU13j/AEeAh5Pf0X8f5V6aAAAB0ryMxxH/AC6j8z1stw//AC9l8haKKK8g9kKKKKACiiigAooooAKKKKACiiigBOteTavaGw1a6t8EBHJXPcHkV6yK4Tx5Y+VewXqj5ZV2MQP4h/iOPwr0MtqctTlfU87MqfNSUl0OVooor3jwQooooAKKKKACiiigAooooAKKKKACiiigAooooAKKKKACiiigAooooAKKKKACiiigAooooAKKKKACiiigAooooAKKKKACiiigAooooAKKKKACnwwyXM6QRLukkbao9TUdd34O0E2sQv7lSJpBhFI+6vr9T/KufE4hUYOXXob4ag681FbdTb0XSk0jTkt05bq7f3m7mtGiivmpScm5Pdn00YqEVFbIKKKKRQUUUUAFFFFABRRRQAUUUUAFFFFABWN4o046jokyIMyR/vE+o/xGR+NbNIcEEHoaqEnCSkuhFSCnFxfU8Zpa0/EOmnS9ZliAxE53x/Q//XyKzK+ppzU4KS2Z8rUg4ScXugoooqyQooooAKKKKACiiigAooooAKKKKACiiigAooooAKKKKACiiigAooooAKKKKACiiigAooooAKKKKACiiigAooooAKKKKACiiigAoorV8P6FLrV4MgraxnMr+v8Asj3/AJVE6kacXKTskXTpupJRirtl3wnoH9pT/a7lT9mib5QR99v8BXoYGBxTIIY7eFIoUCIowqgcAU+vm8RiHWnzPbofSYbDqhDlW4tFFFYHQFFFFABRRRQAUUUUAFFFFABRRRQAUUUUAFFFFAHOeMdIN/pv2iJcz22WGByy9x/WvO69mxnIPQ15j4m0c6TqrCMf6PNl4vb1H4fyr18txGjpS+R42ZUNVVXzMiiiivXPJCiiigAooooAKKKKACiiigAooooAKKKKACiiigAooooAKKKKACiiigAooooAKKKKACiiigAooooAKKKKACiiigAooooAKKK1tD8Pz61KDho7UH5pCOvsPWonUjTTlJ2SLp05VGoxV2xmhaFPrV1tXKW6H95Ljp7D3r0uzs4bC1S3t0CRoOAKLOzhsLZILaMJGgwAKnr57FYqVeXZdEfQ4XCxoR7ti0UUVynWFFFFABRRRQAUUUUAFFFFABRRRQAUUUUAFFFFABRRRQAVm63pUer6c9u/D9Ub+63atKinGTi1JbomUVOLi+p47cW8tpcPDOhSRDhh/X6VHXoXinw6NUgN1bLi6jHQf8tB6f5+leekEEgggg4IIxivpMNiFXhfr1R83isO6E7PbowooorpOYKKKKACiiigAooooAKKKKACiiigAooooAKKKKACiiigAooooAKKKKACiiigAooooAKKKKACiiigAooooAKSpbe2mu51ht4mlkboFH+eK7jQvB0VntuNQAmnGCqD7qf4n9K5q+Jp0V7z17HRQw06z91adzG0DwlJqGLi+DQ22eFxhn/wFd/DDHbwpFEgREGFUDAAp4GMCivBr4ideV5bHv4fDwoq0dxaKKKwOgKKKKACiiigAooooAKKKKACiiigAooooAKKKKACiiigAooooAKKKKACuU8T+Fvtu68sVAuOroOBJ/8AX/nXV0VpSqypS5osyq0Y1Y8sjxplaN2R1ZXU4ZSMEUleka94Yg1dTLGRFdAcSAcH615/f6dc6bcGG7iKN2bs30Pevfw2LhWXZ9j5/E4SdF913K9FFFdZyhRRRQAUUUUAFFFFABRRRQAUUUUAFFFFABRRRQAUUUUAFFFFABRRRQAUUUUAFFFFABRSVsaZ4W1HUsN5fkxH/lpKMfkOp/SonUhTV5uxcKcqjtBXMit7R/CV5qWJJw1tbn+Jh8zfQf1P611uk+FrHSsSbfPnH/LSQdPoO1bQrycRmV9KS+Z6tDLba1X8ijpmkWmlQ+Xaxhc/eb+Jvqav0UV5cpOTu3dnqxioqyVgooopFBRRRQAUUUUAFFFFABRRRQAUUUUAFFFFABRRRQAUUUUAFFFFABRRRQAUUUUAFFFFABVa7s4L+AxXMSSIeoYf5xVmihNp3Qmk1ZnD6r4FkQmTTJN69fKkPI+jf4/rXLXNrcWcnl3ULwv6MMZr2Gobi1huoyk8SSIezDNejRzGpDSeqPOrZdCesNGeP0V3194GsLjc1o72znoB8y/kf6VgXfgvVLYkxLHcJngocH8j/wDXr0aeNoz62fmebUwNaHS68jAoqWe0uLUhbiCWInoGQjNQ11qSaujlaadmLRRRTEFFFFABRRRQAUUUUAFFFFABRRRQAUUUUAFFJ14HJ9uauWukahe4+z2krqeQ23AP4niplOMVeTsVGEpOyVypRXTWngW/mwbmWKBSM4Hzkf0/nW7Z+CtMtsGYPct/00PH5DiuSpj6MOt/Q6qeArT6WXmefwW011II7eJ5WPZBmui0/wAD3tzh7yRbdD/CPmY/4V3cFtDbIEgiSNR2UYqU1wVcym9IK35noUsthHWbuZOm+GtO0whooQ8g/wCWknzH/wCt+Fa/SiivPlOU3eTuehCEYK0VYKKKKksKKKKACiiigAooooAKKKKACiiigAooooAKKKKACiiigAooooAKKKKACiiigAooooAKKKKACiiigAooooAKKKKACiiigBrIrqVZQwPUEVm3Hh3SrrmSyhz6qNv8q1KT8qcZyi7xbREoRkrSVzmLjwJp0gPkyzxMeh3ZAqhN8P5B/qL5T/10T/Cu3pK6I42vH7RzywVCW8Tz2bwNqcf+reCX6MRVaTwhrEf/AC7I3+5IK9MorZZlWW9mZPLaL2ujys+G9XGf9Al/Db/jTDoOqr10+f8ALNer0Vf9p1OyI/sun3Z5N/Yupf8APhP/AN8Uo0PUz0sJ/wDvmvWKKf8Aac/5UL+y4fzM8qHh3Vz0sJvxwKlj8K6xJ/y5Mv8AvMBXqGKKTzOp2Q1ldPuzzdPBWruw3JCoPUmTOP0q5H4BvDjzLqFR3ABOK7yis3mNZ7WXyNFl1FdGzkYfAFuGBmvJXHcKoWr8HgzSIc7oGmz/AM9HJx+Vb2KWsJYqtLeTN44SjHaJTt9LsrTHkWsKEDAIQZ/OrnSj8aKxbb1bNlFJaIKKKKRQUUUUAFFFFABRRRQAUUUUAFFFFABRRRQAUUUUAFFFFABRRRQAUUUUAFFFFABRRRQAUUUUAFFFFABRRRQAUUUUAFFFFABRRRQAUUUUAFFFFABRRRQAUUUUAFFFFABRRRQAUUUUAFFFFABRRRQAUUUUAFFFFABRRRQAUUUUAFFFFABRRRQAUUUUAFFFFABRRRQAUUUUAFFFFABRRRQAUUUUAFFFFABRRRQAUUUUAFFFFABRRRQAUUUUAFFFFABRRRQAUUUUAFFFFABRRRQAUUUUAFFFFABRRRQAUUUUAFFFFABRRRQAUUUUAFFFFABRRRQAUUUUAFFFFABRRRQAUUUUAFFFFABRRRQAUUUUAFFFFABRRRQAUUUUAFFFFABRRRQAUUUUAFFFFABRRRQAUUUUAFFFFABRRRQAUUUUAFFFFABRRRQAUUUUAFFFFABRRRQAUUUUAFFFFABRRRQAUUUUAFFFFABRRRQAUUUUAFFFFABRRRQAUUUUAFFFFABRRRQAUUUUAFFFFABRRRQAUUUUAFFFFABRRRQAUUUUAFFFFABRS0UAJRS0UAJRS0UAJRS0UAJRS0UAJRS0UAJRS0UAJRS0UAJRS0UAJRS0UAJRS0UAJRS0UAJRS0UAJRS0UAJRS0UAJRS0UAJRS0UAJRS0UAJRS0UAJRS0UAJRS0UAJRS0UAJRS0UAJRS0UAJRS0UAJRS0UAJRS0UAJRS0UAJRS0UAJRS0UAf/2Q==;" vertex="1" parent="1">
          <mxGeometry x="130" y="370" width="20" height="20" as="geometry" />
        </mxCell>
        <mxCell id="iRdQwPABQsQ_W9aUvFbF-28" value="" style="shape=image;imageAspect=0;aspect=fixed;verticalLabelPosition=bottom;verticalAlign=top;image=data:image/jpeg,/9j/4AAQSkZJRgABAQEAAAAAAAD/4QAuRXhpZgAATU0AKgAAAAgAAkAAAAMAAAABAAAAAEABAAEAAAABAAAAAAAAAAD/2wBDAAoHBwkHBgoJCAkLCwoMDxkQDw4ODx4WFxIZJCAmJSMgIyIoLTkwKCo2KyIjMkQyNjs9QEBAJjBGS0U+Sjk/QD3/2wBDAQsLCw8NDx0QEB09KSMpPT09PT09PT09PT09PT09PT09PT09PT09PT09PT09PT09PT09PT09PT09PT09PT09PT3/wAARCAHaAdoDASIAAhEBAxEB/8QAHwAAAQUBAQEBAQEAAAAAAAAAAAECAwQFBgcICQoL/8QAtRAAAgEDAwIEAwUFBAQAAAF9AQIDAAQRBRIhMUEGE1FhByJxFDKBkaEII0KxwRVS0fAkM2JyggkKFhcYGRolJicoKSo0NTY3ODk6Q0RFRkdISUpTVFVWV1hZWmNkZWZnaGlqc3R1dnd4eXqDhIWGh4iJipKTlJWWl5iZmqKjpKWmp6ipqrKztLW2t7i5usLDxMXGx8jJytLT1NXW19jZ2uHi4+Tl5ufo6erx8vP09fb3+Pn6/8QAHwEAAwEBAQEBAQEBAQAAAAAAAAECAwQFBgcICQoL/8QAtREAAgECBAQDBAcFBAQAAQJ3AAECAxEEBSExBhJBUQdhcRMiMoEIFEKRobHBCSMzUvAVYnLRChYkNOEl8RcYGRomJygpKjU2Nzg5OkNERUZHSElKU1RVVldYWVpjZGVmZ2hpanN0dXZ3eHl6goOEhYaHiImKkpOUlZaXmJmaoqOkpaanqKmqsrO0tba3uLm6wsPExcbHyMnK0tPU1dbX2Nna4uPk5ebn6Onq8vP09fb3+Pn6/9oADAMBAAIRAxEAPwD2WiiigAooooAKKKKACiiigAooooAKKKKACiiigAooooAKKKKACiiigAooooAKKKKACiiigAooooAKKKKACiiigAooooAKKKKACiiigAooooAKKKKACiiigAooooAKKKKACiiigAooooAKKKKACiiigAooooAKKKKACiiigAooooAKKKKACiiigAooooAKKKKACiiigAooooAKKKKACiiigAooooAKKKKACiiigAooooAKKKKACiiigAooooAKKKKACiiigAooooAKKKKACiiigAooooAKKKKACiiigAooooAKKKKACiiigAooooAKKKKACiiigAooooAKKKKACiiigAooooAKKKKACiiigAooooAKKKKACiiigAooooAKKKKACiiigAooooAKKKKACiiigAooooAKKKKACiiigAooooAKKKKACiiigAooooAKKKKACiiigAooooAKKKKACiiigAooooAKKKKACiiigAooooAKKKKACiiigAooooAKKKKACiiigAooooAKKKKACiiigAooooAKKKKACiiigAooooAKKKKACiiigAooooAKKKKACiiigAooooAKKKKACiiigAooooAKKKKACiiigAooooAKKKKACiiigAooooAKKKKACiiigAooooAKKKKACiiigAooooAKKKKACiiigAooooAKKKKACiiigAooooAKKKKACiiigCpqV4unWE10ylvKXdtHeuLPjy/ycW8AHpzXU+KP+RcvP9z+teXV6uX4enUg3NXdzycwxFSnNKDsjqP+E9v/APn3g/Wj/hPb/wD594P1rmKK7/qVH+U8/wCuV/5mdP8A8J7f/wDPvB+tH/Ce3/8Az7wfrXMUUfUqP8ofXK/8zOw0zxtc3GoQQXNvHslYISpORnoa7WvJNL/5C1n/ANdl/nXrg6V5WYUYUprkVro9XL606sXzO9gooorgPRCiiigAooooAKKKKACiiigAooooAKKKKACiiigAooooAKKKKACiiigAooooAKKKKACiiigAooooAKKKKACiiigAooooAKKKKACiiigAooooAKKKKACiiigAooooAKKKKACiiigDJ8T/APIuXv8Auf1ry6vUfE//ACLl7/uf1ry6vbyv+G/U8LNP4i9BaKKK9M80KKKKALWl/wDIWs/+uy/zr1vtXkml/wDIWs/+uy/zr1vtXi5p8cfQ9rK/hkLRRRXlnqhRRRQAUUUUAFFFFABRRRQAUUUUAFFFFABRRRQAUUUUAFFFFABRRRQAUUUUAFFFFABRRRQAUUUUAFFFFABRRRQAUUUUAFFFFABRRRQAUUUUAFFFFABRRRQAUUUUAFFFFABRRRQBk+KP+RcvP9z+teXV6rr9vJd6HdQwqWkZPlA715l/Z96OtncfjGa9nLJxUGm+p4uZQk6iaXQgoqf+z7z/AJ9Lj/v2aP7PvP8An0uP+/Zr0vaR7nm+zn2ZBRU/9n3n/Ppcf9+zR/Z95/z6XH/fs0e0j3D2c+zH6X/yFrP/AK7L/OvXBXluj6Xevq9r/oswCyqzMyEAAHPevURXjZlKMpxs+h7OWRcYSuuotFFFeaemFFFFABRRRQAUUUUAFFFFABRRRQAUUUUAFFFFABRRRQAUUUUAFFFFABRRRQAUUUUAFFFFABRRRQAUUUUAFFFFABRRRQAUUUUAJmjNeeeLNUvF12aBLmRIowoVUbHbJ/Gsb+0rz/n7n/7+GvRpZdOcVK6V1c82pmUac3GzdmeufjR+NeR/2lef8/c//fw0f2lef8/c/wD38NX/AGXL+ZGf9qR/lPXPxo/GvI/7SvP+fuf/AL+Gj+0r3/n7n/7+Gj+y5fzIP7Uj/Keu0ZrC8I3s99oivcuZJEcpuPUgevvVTxvf3FlYW628rRebIQzKcHAFcKoSdX2XW9jveISpe16WudP+NH415H/aV5/z9z/9/DR/aV5/z9z/APfw13f2XL+ZHB/asf5T1z8aPxryP+0rz/n7n/7+Gj+0rz/n7n/7+Gj+y5fzIP7Uj/Keu5pPpXkf9pXn/P3P/wB/DXQ+DNTvJdXa2mnkkjaMttc5AIPas62Xypwc7p2NKWYxqTULNXO8pvHfFUNeupbPRbqeE7ZFQ7W9D615mdTviSTeTkk8kyHmssNhJV02naxricZGg1Fq9z1yj8a8j/tK8/5+5/8Av4aP7SvP+fuf/v4a6v7Ln/Mc39qR/lPXPxo/GvI/7SvP+fuf/v4aP7SvP+fuf/v4aP7Ln/MH9qQ/lPXBjtilry7R9Wvo9Xtv9KlZWkVWVmyGBNeoD1rixOHlQkk3c7cNiVXi2lYWiiiuc6QooooAKKKKACiiigAooooAKKKKACiiigAooooAKKKKACiiigAooooAKKKKACiiigAooooAKKKKACiiigAooooAKKKKACiiigDzHxb/AMjLd/8AAf8A0EVj1seLf+Rlu/8AgP8A6CKx6+ow/wDCj6I+WxH8WXqFFFFbGIUUUUAeheBv+QGf+urVU+IP/HpZf9dG/wDQat+Bv+QGf+urVU+IP/HpZf8AXRv/AEGvCp/7782e5P8A3L5HEUUUV7p4YUUUUAFb/gj/AJGJf+uTVgVv+Cf+RiX/AK5NXPi/4MvQ6ML/ABo+qOx8T/8AIuXv+5/WvLq9R8T/APIuXv8Auf1ry6uTK/4b9TqzT+IvQWiiivTPNCiiigC1pf8AyFrP/rsv869bryTS/wDkLWf/AF2X+det9q8XNPjj6HtZX8MhaKKK8s9UKKKKACiiigAooooAKKKKACkyAMmlrmPGWtNY2gs7dsTzjkg8qvc/U9PzrSlTdSaiuplWqKlByZdtfFOm3d69ss2x1bapcYV/oa2eteM10GheKrnTGWK4LT2uehOWT6e3tXo18taV6bv5HnUMyu7VFbzPR6Kr2d5Bf26z28iyRsOCKsV5TTTsz1U01dBRRRQMKKKKACiiigAooooAKKKKACiiigAooooAKKKKACiiigAooooAKKKKAPMfFv8AyMt3/wAB/wDQRWPWx4t/5GW7/wCA/wDoIrHr6jD/AMKPoj5bEfxZeoUUUVsYhRRRQB6F4G/5AZ/66tVT4g/8ell/10b/ANBq34G/5AZ/66tVT4g/8ell/wBdG/8AQa8Kn/vvzZ7k/wDcvkcRRRRXunhhRRRQAVv+Cf8AkYl/65NWBW/4I/5GJf8Ark1c+L/gy9Dowv8AGj6o7HxP/wAi5e/7n9a8ur1HxP8A8i5e/wC5/WvLq5Mr/hv1OrNP4i9BaKKK9M80KKKKALWl/wDIWs/+uy/zr1vtXkml/wDIWs/+uy/zr1uvFzT44+h7WV/DIWiiivLPVCiiigAooooAKKKKACiiigCOaZLeJ5ZDhEUsx9hXk2p376lqE13J1kbKj+6vYflXbeOL82+lLbIcNcNg4/ujk/0rgK9nLKNouo93ojxMyrXkqa2W4UUUV6p5ZpaJrc+i3W9MvC5/eR5+97j0Nel2N7BqFqlxbMHjccH/ABryKtzwvrraTeiKVv8ARJjh8/wn+9XnY3CKonUgtV+J6OCxbptQm9H+B6VRSAhgCOQaWvCPeCiiigAooooAKKKKACiiigAooooAKKKKACikFZ1xr+mWsrRTXcauvDLnJFOMXLSKuTKcYq8nY0qKyv8AhKNI/wCf6P8AI0f8JRpH/P8AR/kav2NT+V/cR7an/MjVorK/4SjSP+f6P8jR/wAJRpH/AD/R/kaPY1P5X9we2p/zI1Pypayl8S6S7hRexZJwM8VqBgwBHINTKEofErFRnGfwu5yOv+ELrUdUku7aaICQDKvnIIGKzP8AhBdR/wCe1v8Ama7S91ix05gl3cxxuRkKTzVc+KNIP/L7H+tdlPE4lRSirpbaHDUwuGc25PV+Zyn/AAgmpf8APa2/M0f8IJqX/Pa2/M11f/CUaR/z+x/rR/wlGkf8/sf61p9axfb8CPqmE7/icp/wgmpf89rb8zR/wgmpf89rb8zXV/8ACUaR/wA/sf60f8JRpH/P7H+tH1rF9vwD6phO/wCI7w/pTaNpi2zyB5CxZmA4yfT2qDxNob65ZxJDKI5Im3Lu6HtzWtBPFcwrLC6yRsMqynINNuruCygMtzKsSA4yxxXEqk1V51udrpU3S5H8Jwv/AAgmpf8APa2/M0f8IJqX/Pa2/M11f/CUaR/z+x/rR/wlGkf8/sf612/WsX2/A4vqmE7/AInKf8IJqX/Pa2/M0f8ACCal/wA9rb8zXV/8JRpH/P7H+tH/AAlGkf8AP7H+tH1rF9vwD6phO/4nJ/8ACCal/wA9rf8AM1s+G/C02k3r3V1KjNt2oqZwPXOa0/8AhJ9I/wCf2P8AWrNlqllqBYWlwkpXqAeR+FZ1cTiJQanon5GlLDYaM04u7XmLqdiNR06a1LbfMUrux0riv+ED1L/ntbH3BP8AhXfO6ohZiFUckntWafE2kAkfbouOOMms8PWrU7qmvwua4ihRqNOo7P1OT/4QTUv+e1t+Zo/4QTUv+e1t+Zrq/wDhKNI/5/Y/1o/4SjSP+f2P9a6PrWL7fgc31TCd/wATlP8AhBNS/wCe1t+Zo/4QTUv+e1t+Zrq/+Eo0j/n9j/Wj/hKNI/5/Y/1o+tYvt+AfVMJ3/E53TfBN5b6hBPPND5cbhyEyScdBXbis+113TryURQXUbyHoueTWjXJiKtSpL95udmHpUqa/dvQKKzrnXtNs5TFcXcaSDqvcVF/wlGkf8/0f5Gs1Sm1dRf3FutTTs5I1qKyv+Eo0j/n+j/I0f8JRpH/P9H+Rp+xqfyv7g9tT/mRq0Vlf8JRpH/P9H+RoHibSCQPt0XPHOaPY1P5X9we2p/zI1aKRWDqGUgqehFLWZqFFFB6GgDzfxnd/adfaMHKwIEA9CeT/AErBqzqczXOp3UpOS0rYPqM/4YqtX1OHhyU4x8j5WvPnqOXmFFFFamQUlLRQB6B4L1f7dYG0mbM1tgAn+Je3+FdNmvKtAvzp2s28+fkZtj/7p4/Tg16p1xXzuPoqnUutnqfQ4Cs6lKz3QtFFFcZ3BRRRQAUUUUAFFFFABRRRQAUUUUAI33TXjtxk3MxPJMjEk9+a9if7h+leO3H/AB8y/wC+f5162V7y+R5Ga7RI6KWivYPHEopaKAEPQ/SvWdFydEs8/wDPFf5V5Meh+les6L/yBLP/AK4r/KvKzT4Ynq5X8cjz/wAW8+JbrP8As/8AoIrGrZ8W/wDIy3X/AAH/ANBFY9d2G/hR9EcGI/iy9RKKWitzESilooA9C8DH/iQkZOBKwAqp8QSfslkOxlOR68Vb8Df8gI/9dWqp8Qf+PSy/66t/6DXhU/8Affmz3Z/7l8jh6KWivdPCEopaKAErofBBI8QAAkAxNkflXP1v+Cf+RiX/AK5NXPi/4MvQ6ML/ABo+qOx8Tkjw7e4JGUxxXl1eo+J/+Rcvf9z+teXVyZX/AA36nXmn8RegUUtFemeYJRS0UAWtK41ezI4ImXH51632ryTS/wDkLWf/AF2X+det9q8XNPjj6HtZX8EjyLUSTqd0SckytknnPNVqs3//ACErn/rq386r169P4F6HkVPjfqJRS0VZAlFLSUAeqeG/+Rdsf+uQFaYrM8Nf8i9Y/wDXIVpivla38SXqz6uj/Dj6IKZMcQufRTT6jnGYJB6qahbly2PHOTyeSeTS0g6Clr6xbHyL3CiiimAUUUUAJXq2hXf27RbWckFigDY9Rwf1FeVVsaf4nvtMsRa24i2gkhmBJGea4cdh5V4rl3TO3A4hUZvm2Z6dRXmTeLdYbP8ApYA9kXj9KgPiPVj/AMv8v4GuBZZV6tHoPM6XZnqlFeXJ4m1dOl9IfqAasQ+NNXiOXlilHoyAfypSy2qtmmCzOk900ekUda4q18ft8ovLPPHLRN/Q/wCNdBp3iPTtSIWG4Cyf883+U/kev4VzVMLVp/Ejpp4qlU0izWoozRWB0hRRRQAUUUUAI/3D9K8duP8Aj5l/3z/OvYn+4fpXjtx/x8y/75/nXrZXvL5HkZrtEZRRRXsHjhRRRQAh6H6V6zov/IEs/wDriv8AKvJj0P0r1nRf+QJZ/wDXFf5V5WafDE9TK/jkef8Ai3/kZbr/AID/AOgisetjxb/yMt1/wH/0EVj134f+FH0Rw4j+LL1CiiitjEKKKKAPQvA3/IDP/XVqqfEH/j0sv+ujf+g1b8Df8gM/9dWqp8Qf+PSy/wCujf8AoNeFT/335s9yf+5fI4iiiivdPDCiiigArf8ABP8AyMS/9cmrArf8Ef8AIxL/ANcmrnxf8GXodGF/jR9Udj4n/wCRcvf9z+teXV6j4n/5Fy9/3P615dXJlf8ADfqdWafxF6C0UUV6Z5oUUUUAWtL/AOQtZ/8AXZf51632ryTS/wDkLWf/AF2X+det9q8XNPjj6HtZX8EjyK//AOQlc/8AXVv51Xqxf/8AISuf+urfzqvXr0/hXoePU+N+oUUUVZIUlLSUAeqeGv8AkXrH/rkK0xWZ4a/5F6x/65CtOvla38SXqz6qj/Dj6IKRhlSD0IpaKzNTx++hMGoXEJBGyVlAP14qGt3xlZG1195APkuFDg579D/SsKvqaE+empLsfK1oOFRxfcKKKK1MgooooAKKKKACiiigAooooAKT+nIpaKAN/RfF11pzCK7L3Fv05PzL9D3+hrrP+Et0j/n6H/fLf4V5vBC9zPHBGMvIwVR9a77/AIQ2x/2/zrysXRw0ZJyum+x6mFr4lxtDVI6WiiivGPbCiiigBr/cP0rx64/4+Zf98/zr2I1gz+DdKuJ3laOVWkbcQshAzXdgsTCg3zX17HBjcNOuly20POKK9E/4QfSf7s//AH9NH/CD6T/dn/7+mvQ/tKj5nn/2bW8jzuivRP8AhB9J/uz/APf00f8ACD6T/dn/AO/po/tKj5h/ZtbyPOj0P0r1nRf+QLZ/9cU/lWWPA+kgg7JjjnBkPNb8USQxrHGoVFAAA7CuHG4qFdJR6HdgcJOg2521PNPFv/Iy3f8AwH/0EVj16dqPhnTtUuftFwjiQjBKORn61V/4QfSf7s//AH9NdNHMKUaai73SOWtl9WdRyVrNnndFeif8IPpP92f/AL+mj/hB9J/uz/8Af01r/aVHzM/7NreR53RXon/CD6T/AHZ/+/po/wCEH0n+7P8A9/TR/aVHzD+za3kN8Df8gI/9dWqp8QP+PSy/66H/ANBrpbCxg020S2tk2xp2znPuaZqWl22rW/kXSFlByCDgg+xry414rEe1tpc9SWHk8P7JPWx5NRXon/CD6T/dn/7+mj/hB9J/uz/9/TXqf2lR8zy/7NreR53RXon/AAg+k/3Z/wDv6aP+EH0n+7P/AN/TR/aVHzD+za3ked1v+Cf+RiH/AFyaul/4QfSv7s+P+upq7pfh+x0iR5LVG3uMFnbJxWNfH0p03FXuzWhgKtOopO1kN8T/APIu3n+5/WvL69huII7uB4JkDxSLtYHoRWH/AMIPpP8Adn/7+msMFi4UYuMr7nRjcJOtNSied0V6J/wg+k/3Z/8Av6aP+EH0n+7P/wB/TXb/AGlR8zi/s2t5HndFeif8IPpP92f/AL+mj/hB9J/uz/8Af00f2lR8w/s2t5HC6X/yFrP/AK7L/OvW+1Ylp4S0yyukuI45GkjO5d7kgH1rb7V5uNxEa8k49D0cFh50ItStqeRX/wDyErn/AK6t/Oq9ek3fhDS7y5eeSORXkOWCuQCai/4QfSf7s/8A39NehDMaSik7nBPLark2rHndFeif8IPpP92f/v6aP+EH0n+7P/39NV/aVHzJ/s2t5HndJXov/CD6T/dn/wC/po/4QfSf7s//AH9NH9pUfMP7NreRe8N/8i9Y/wDXIVqVDBDHbQJDEoSONQqqOwqavDnLmk33Pcpx5YqPYKKKM+4qSznfGOlm+0ozRrmW3O8Y7juP6/hXnVenah4m0yxDK84lfH+rj+Yn+lea3DxyXMrwxmONmJVCfuj0/Cvcy1zUHGSaXRnhZkoOalFpvqhlFFFekeaFFFFABRRRQAUUUUAFFFFABRRWjomjSa1eiFcrEvMkgH3R/iaic4wi5SdkioQc5KMVds2/BGjmWc6jMvyR5WLPdu5/pXc1Fa28VpbRwQrtjQYUCpq+axFZ1qjk/kfTYeiqNNRW/Ur3l7BYW7TXUqxxqOpP+c1zU/j22VyILWWRR/E2FzXNeINafWL7eAywxjCIf1P1zWXXp0Muhyp1d30PLxGYzcmqeiXU7P8A4WCP+fBv+/lH/CwR/wA+Df8AfyuMorp+oUO34nP9fr9zs/8AhYI/58G/7+Uf8LBH/Pg3/fyuMoo+oUO34h9fr9zs/wDhYI/58G/7+Uf8LBH/AD4N/wB/K4yij6hQ7fiH1+v3Oz/4WCP+fBv+/lH/AAsEf8+Df9/K4yij6hQ7fiH1+v3Oz/4WCP8Anwb/AL+Uf8LBH/Pg3/fyuMoo+oUO34h9fr9zs/8AhYI/58G/7+Uf8LBH/Pg3/fyuMoo+oUO34h9fr9zs/wDhYI/58G/7+Uf8LBH/AD4N/wB/K4yij6hQ7fiH1+v3Oz/4WCP+fBv+/lH/AAsEf8+Df9/K4yij6hQ7fiH1+v3Oz/4WCP8Anwb/AL+Uf8LBH/Pg3/fyuMoo+oUO34h9fr9zs/8AhYI/58G/7+Uf8LBH/Pg3/fyuMoo+oUO34h9fr9zs/wDhYI/58G/7+Uf8LBH/AD4N/wB/K4yij6hQ7fiH1+v3Oz/4WCP+fBv+/lH/AAsEf8+Df9/K4yij6hQ7fiH1+v3Oz/4WCP8Anwb/AL+Uf8LBH/Pg3/fyuMoo+oUO34h9fr9zs/8AhYI/58G/7+Uf8LBH/Pg3/fyuMoo+oUO34h9fr9zs/wDhYI/58G/7+Uf8LBH/AD4N/wB/K4yij6hQ7fiH1+v3Oz/4WCv/AD4N/wB/KP8AhYI/58G/7+VxlFH1Ch2/EPr9fudn/wALBH/Pg3/fyj/hYI/58G/7+VxlFH1Ch2/EPr9fudn/AMLBH/Pg3/fyj/hYI/58G/7+VxlFH1Ch2/EPr9fudn/wsEf8+Df9/KP+Fgj/AJ8G/wC/lcZRR9QodvxD6/X7nZ/8LBH/AD4N/wB/Khf4gTnOywjHoTIT/SuSoprA0F9kHjq7+0b8/jXVZlIRoYc9CiZI/Osm61S9vs/arqWQE/dLYH5dKrUVtChSh8KRhOvUn8TYlLRRWpkFFFFABRRRQAUUUUAFFFJQAtFT2en3eoSbLS3eVu5A4H1Paut0jwOqES6o28jkQoePxPf6D9a562Kp0l7z17G9HDVKr91adzn9E8P3OszKVBjtgfmlI/Qetej6dp1vplqILZdqDqe5PqaniijgjWOJFRFGAqjAFSV4WIxUq77Lse7hsJCgu77hRRRXMdZ4yfvUUHqaK+uPkAooooAKKKKACiiigAooooAKKKKACiiigAooooAKKKKACiiigAooooAKKKKACiiigAooooAKKKKACiiigAooooAKKKKACiiigAooooAKKKKACiiigAooooAKKKKACj+vFFbHhXT/AO0Nbi3LmKH94+fbp+uPyNZ1JqnBzfQulB1JqC6lpPA2pugJeBSRkgsamj8BXx+/cwJ9ATXfUV4bzCu+p7qy6iuhxkPw/H/Le+bP/TNMfzrVtPB+lWpDGEzMO8jZx+Fb1FYzxdae8mbQwlGG0RkcUcKBI0VFHQKMAU+iiufc6dgooooAKKKKAPGn++aSpbuBra6kif7y4z+Wair61NNXR8i007MKKKKYgooooAKKKKACiiigAooooAKKKKACiiigAooooAKKKKACiiigAooooAKKKKACiiigAooooAKKKKACiiigAooooAKKKKACiiigAooooAKKKKACiiigAooooASvRPBemmz0jz5BiS5O85HRe3+P41xOj6e2qanDajO1jlz6KOv+FeroixoqKMKowBXlZnWslTXqz1cso3bqPpoh1FFFeMe0FFFFABRRRQAUUUUAFFFFAHmnjCDyPEU3pIisPyx/SsSuq8fW+zULWcD78ZUn6Hj+Zrla+mwkuajF+X5HzGLjy1pLzCiiiug5wooooAKKKKACiiigAooooAKKKKACiiigAooooAKKKKACiiigAooooAKKKKACiiigAooooAKKKKACiiigAooooAKKKKACiiigAooooAKKKKACiiigAooq5pGntqmpw2q52scuw7KOv+H41M5KEXJ7IqEXKSit2df4I0v7PZPeyLiSfhM9kH+J5/KurpkUSwxrGihVUBQB2Ap9fL1qjqTc31PqKFJUoKKCiiiszUKKKKACiiigAooooAKKKKAOX8eQGTSIZh/yylGfx4rga9V161+16LdxcZMZIyO45/pXlI5ANe7ls70nHszwczhaqpd0LRRRXonnBRRRQAUUUUAFFFFABRRRQAUUUUAFFFFABRRRQAUUUUAFFFFABRRRQAUUUUAFFFFABRRRQAUUUUAFFFFABRRRQAUUUUAFFFFABRRRQAUUUUAFFFFACV6D4M0f7FYfa5VxPcDPPUL2H9a5fwxpB1bU13j/AEeAh5Pf0X8f5V6aAAAB0ryMxxH/AC6j8z1stw//AC9l8haKKK8g9kKKKKACiiigAooooAKKKKACiiigBOteTavaGw1a6t8EBHJXPcHkV6yK4Tx5Y+VewXqj5ZV2MQP4h/iOPwr0MtqctTlfU87MqfNSUl0OVooor3jwQooooAKKKKACiiigAooooAKKKKACiiigAooooAKKKKACiiigAooooAKKKKACiiigAooooAKKKKACiiigAooooAKKKKACiiigAooooAKKKKACnwwyXM6QRLukkbao9TUdd34O0E2sQv7lSJpBhFI+6vr9T/KufE4hUYOXXob4ag681FbdTb0XSk0jTkt05bq7f3m7mtGiivmpScm5Pdn00YqEVFbIKKKKRQUUUUAFFFFABRRRQAUUUUAFFFFABWN4o046jokyIMyR/vE+o/xGR+NbNIcEEHoaqEnCSkuhFSCnFxfU8Zpa0/EOmnS9ZliAxE53x/Q//XyKzK+ppzU4KS2Z8rUg4ScXugoooqyQooooAKKKKACiiigAooooAKKKKACiiigAooooAKKKKACiiigAooooAKKKKACiiigAooooAKKKKACiiigAooooAKKKKACiiigAoorV8P6FLrV4MgraxnMr+v8Asj3/AJVE6kacXKTskXTpupJRirtl3wnoH9pT/a7lT9mib5QR99v8BXoYGBxTIIY7eFIoUCIowqgcAU+vm8RiHWnzPbofSYbDqhDlW4tFFFYHQFFFFABRRRQAUUUUAFFFFABRRRQAUUUUAFFFFAHOeMdIN/pv2iJcz22WGByy9x/WvO69mxnIPQ15j4m0c6TqrCMf6PNl4vb1H4fyr18txGjpS+R42ZUNVVXzMiiiivXPJCiiigAooooAKKKKACiiigAooooAKKKKACiiigAooooAKKKKACiiigAooooAKKKKACiiigAooooAKKKKACiiigAooooAKKK1tD8Pz61KDho7UH5pCOvsPWonUjTTlJ2SLp05VGoxV2xmhaFPrV1tXKW6H95Ljp7D3r0uzs4bC1S3t0CRoOAKLOzhsLZILaMJGgwAKnr57FYqVeXZdEfQ4XCxoR7ti0UUVynWFFFFABRRRQAUUUUAFFFFABRRRQAUUUUAFFFFABRRRQAVm63pUer6c9u/D9Ub+63atKinGTi1JbomUVOLi+p47cW8tpcPDOhSRDhh/X6VHXoXinw6NUgN1bLi6jHQf8tB6f5+leekEEgggg4IIxivpMNiFXhfr1R83isO6E7PbowooorpOYKKKKACiiigAooooAKKKKACiiigAooooAKKKKACiiigAooooAKKKKACiiigAooooAKKKKACiiigAooooAKSpbe2mu51ht4mlkboFH+eK7jQvB0VntuNQAmnGCqD7qf4n9K5q+Jp0V7z17HRQw06z91adzG0DwlJqGLi+DQ22eFxhn/wFd/DDHbwpFEgREGFUDAAp4GMCivBr4ideV5bHv4fDwoq0dxaKKKwOgKKKKACiiigAooooAKKKKACiiigAooooAKKKKACiiigAooooAKKKKACuU8T+Fvtu68sVAuOroOBJ/8AX/nXV0VpSqypS5osyq0Y1Y8sjxplaN2R1ZXU4ZSMEUleka94Yg1dTLGRFdAcSAcH615/f6dc6bcGG7iKN2bs30Pevfw2LhWXZ9j5/E4SdF913K9FFFdZyhRRRQAUUUUAFFFFABRRRQAUUUUAFFFFABRRRQAUUUUAFFFFABRRRQAUUUUAFFFFABRSVsaZ4W1HUsN5fkxH/lpKMfkOp/SonUhTV5uxcKcqjtBXMit7R/CV5qWJJw1tbn+Jh8zfQf1P611uk+FrHSsSbfPnH/LSQdPoO1bQrycRmV9KS+Z6tDLba1X8ijpmkWmlQ+Xaxhc/eb+Jvqav0UV5cpOTu3dnqxioqyVgooopFBRRRQAUUUUAFFFFABRRRQAUUUUAFFFFABRRRQAUUUUAFFFFABRRRQAUUUUAFFFFABVa7s4L+AxXMSSIeoYf5xVmihNp3Qmk1ZnD6r4FkQmTTJN69fKkPI+jf4/rXLXNrcWcnl3ULwv6MMZr2Gobi1huoyk8SSIezDNejRzGpDSeqPOrZdCesNGeP0V3194GsLjc1o72znoB8y/kf6VgXfgvVLYkxLHcJngocH8j/wDXr0aeNoz62fmebUwNaHS68jAoqWe0uLUhbiCWInoGQjNQ11qSaujlaadmLRRRTEFFFFABRRRQAUUUUAFFFFABRRRQAUUUUAFFJ14HJ9uauWukahe4+z2krqeQ23AP4niplOMVeTsVGEpOyVypRXTWngW/mwbmWKBSM4Hzkf0/nW7Z+CtMtsGYPct/00PH5DiuSpj6MOt/Q6qeArT6WXmefwW011II7eJ5WPZBmui0/wAD3tzh7yRbdD/CPmY/4V3cFtDbIEgiSNR2UYqU1wVcym9IK35noUsthHWbuZOm+GtO0whooQ8g/wCWknzH/wCt+Fa/SiivPlOU3eTuehCEYK0VYKKKKksKKKKACiiigAooooAKKKKACiiigAooooAKKKKACiiigAooooAKKKKACiiigAooooAKKKKACiiigAooooAKKKKACiiigBrIrqVZQwPUEVm3Hh3SrrmSyhz6qNv8q1KT8qcZyi7xbREoRkrSVzmLjwJp0gPkyzxMeh3ZAqhN8P5B/qL5T/10T/Cu3pK6I42vH7RzywVCW8Tz2bwNqcf+reCX6MRVaTwhrEf/AC7I3+5IK9MorZZlWW9mZPLaL2ujys+G9XGf9Al/Db/jTDoOqr10+f8ALNer0Vf9p1OyI/sun3Z5N/Yupf8APhP/AN8Uo0PUz0sJ/wDvmvWKKf8Aac/5UL+y4fzM8qHh3Vz0sJvxwKlj8K6xJ/y5Mv8AvMBXqGKKTzOp2Q1ldPuzzdPBWruw3JCoPUmTOP0q5H4BvDjzLqFR3ABOK7yis3mNZ7WXyNFl1FdGzkYfAFuGBmvJXHcKoWr8HgzSIc7oGmz/AM9HJx+Vb2KWsJYqtLeTN44SjHaJTt9LsrTHkWsKEDAIQZ/OrnSj8aKxbb1bNlFJaIKKKKRQUUUUAFFFFABRRRQAUUUUAFFFFABRRRQAUUUUAFFFFABRRRQAUUUUAFFFFABRRRQAUUUUAFFFFABRRRQAUUUUAFFFFABRRRQAUUUUAFFFFABRRRQAUUUUAFFFFABRRRQAUUUUAFFFFABRRRQAUUUUAFFFFABRRRQAUUUUAFFFFABRRRQAUUUUAFFFFABRRRQAUUUUAFFFFABRRRQAUUUUAFFFFABRRRQAUUUUAFFFFABRRRQAUUUUAFFFFABRRRQAUUUUAFFFFABRRRQAUUUUAFFFFABRRRQAUUUUAFFFFABRRRQAUUUUAFFFFABRRRQAUUUUAFFFFABRRRQAUUUUAFFFFABRRRQAUUUUAFFFFABRRRQAUUUUAFFFFABRRRQAUUUUAFFFFABRRRQAUUUUAFFFFABRRRQAUUUUAFFFFABRRRQAUUUUAFFFFABRRRQAUUUUAFFFFABRRRQAUUUUAFFFFABRRRQAUUUUAFFFFABRRRQAUUUUAFFFFABRRRQAUUUUAFFFFABRRRQAUUUUAFFFFABRRRQAUUUUAFFFFABRS0UAJRS0UAJRS0UAJRS0UAJRS0UAJRS0UAJRS0UAJRS0UAJRS0UAJRS0UAJRS0UAJRS0UAJRS0UAJRS0UAJRS0UAJRS0UAJRS0UAJRS0UAJRS0UAJRS0UAJRS0UAJRS0UAJRS0UAJRS0UAJRS0UAJRS0UAJRS0UAJRS0UAJRS0UAJRS0UAf/2Q==;" vertex="1" parent="1">
          <mxGeometry x="125" y="460" width="20" height="20" as="geometry" />
        </mxCell>
        <mxCell id="iRdQwPABQsQ_W9aUvFbF-29" value="" style="shape=image;imageAspect=0;aspect=fixed;verticalLabelPosition=bottom;verticalAlign=top;image=data:image/jpeg,/9j/4AAQSkZJRgABAQEAAAAAAAD/4QAuRXhpZgAATU0AKgAAAAgAAkAAAAMAAAABAAAAAEABAAEAAAABAAAAAAAAAAD/2wBDAAoHBwkHBgoJCAkLCwoMDxkQDw4ODx4WFxIZJCAmJSMgIyIoLTkwKCo2KyIjMkQyNjs9QEBAJjBGS0U+Sjk/QD3/2wBDAQsLCw8NDx0QEB09KSMpPT09PT09PT09PT09PT09PT09PT09PT09PT09PT09PT09PT09PT09PT09PT09PT09PT3/wAARCAHaAdoDASIAAhEBAxEB/8QAHwAAAQUBAQEBAQEAAAAAAAAAAAECAwQFBgcICQoL/8QAtRAAAgEDAwIEAwUFBAQAAAF9AQIDAAQRBRIhMUEGE1FhByJxFDKBkaEII0KxwRVS0fAkM2JyggkKFhcYGRolJicoKSo0NTY3ODk6Q0RFRkdISUpTVFVWV1hZWmNkZWZnaGlqc3R1dnd4eXqDhIWGh4iJipKTlJWWl5iZmqKjpKWmp6ipqrKztLW2t7i5usLDxMXGx8jJytLT1NXW19jZ2uHi4+Tl5ufo6erx8vP09fb3+Pn6/8QAHwEAAwEBAQEBAQEBAQAAAAAAAAECAwQFBgcICQoL/8QAtREAAgECBAQDBAcFBAQAAQJ3AAECAxEEBSExBhJBUQdhcRMiMoEIFEKRobHBCSMzUvAVYnLRChYkNOEl8RcYGRomJygpKjU2Nzg5OkNERUZHSElKU1RVVldYWVpjZGVmZ2hpanN0dXZ3eHl6goOEhYaHiImKkpOUlZaXmJmaoqOkpaanqKmqsrO0tba3uLm6wsPExcbHyMnK0tPU1dbX2Nna4uPk5ebn6Onq8vP09fb3+Pn6/9oADAMBAAIRAxEAPwD2WiiigAooooAKKKKACiiigAooooAKKKKACiiigAooooAKKKKACiiigAooooAKKKKACiiigAooooAKKKKACiiigAooooAKKKKACiiigAooooAKKKKACiiigAooooAKKKKACiiigAooooAKKKKACiiigAooooAKKKKACiiigAooooAKKKKACiiigAooooAKKKKACiiigAooooAKKKKACiiigAooooAKKKKACiiigAooooAKKKKACiiigAooooAKKKKACiiigAooooAKKKKACiiigAooooAKKKKACiiigAooooAKKKKACiiigAooooAKKKKACiiigAooooAKKKKACiiigAooooAKKKKACiiigAooooAKKKKACiiigAooooAKKKKACiiigAooooAKKKKACiiigAooooAKKKKACiiigAooooAKKKKACiiigAooooAKKKKACiiigAooooAKKKKACiiigAooooAKKKKACiiigAooooAKKKKACiiigAooooAKKKKACiiigAooooAKKKKACiiigAooooAKKKKACiiigAooooAKKKKACiiigAooooAKKKKACiiigAooooAKKKKACiiigAooooAKKKKACiiigAooooAKKKKACiiigAooooAKKKKACiiigAooooAKKKKACiiigAooooAKKKKACiiigAooooAKKKKACiiigAooooAKKKKACiiigCpqV4unWE10ylvKXdtHeuLPjy/ycW8AHpzXU+KP+RcvP9z+teXV6uX4enUg3NXdzycwxFSnNKDsjqP+E9v/APn3g/Wj/hPb/wD594P1rmKK7/qVH+U8/wCuV/5mdP8A8J7f/wDPvB+tH/Ce3/8Az7wfrXMUUfUqP8ofXK/8zOw0zxtc3GoQQXNvHslYISpORnoa7WvJNL/5C1n/ANdl/nXrg6V5WYUYUprkVro9XL606sXzO9gooorgPRCiiigAooooAKKKKACiiigAooooAKKKKACiiigAooooAKKKKACiiigAooooAKKKKACiiigAooooAKKKKACiiigAooooAKKKKACiiigAooooAKKKKACiiigAooooAKKKKACiiigDJ8T/APIuXv8Auf1ry6vUfE//ACLl7/uf1ry6vbyv+G/U8LNP4i9BaKKK9M80KKKKALWl/wDIWs/+uy/zr1vtXkml/wDIWs/+uy/zr1vtXi5p8cfQ9rK/hkLRRRXlnqhRRRQAUUUUAFFFFABRRRQAUUUUAFFFFABRRRQAUUUUAFFFFABRRRQAUUUUAFFFFABRRRQAUUUUAFFFFABRRRQAUUUUAFFFFABRRRQAUUUUAFFFFABRRRQAUUUUAFFFFABRRRQBk+KP+RcvP9z+teXV6rr9vJd6HdQwqWkZPlA715l/Z96OtncfjGa9nLJxUGm+p4uZQk6iaXQgoqf+z7z/AJ9Lj/v2aP7PvP8An0uP+/Zr0vaR7nm+zn2ZBRU/9n3n/Ppcf9+zR/Z95/z6XH/fs0e0j3D2c+zH6X/yFrP/AK7L/OvXBXluj6Xevq9r/oswCyqzMyEAAHPevURXjZlKMpxs+h7OWRcYSuuotFFFeaemFFFFABRRRQAUUUUAFFFFABRRRQAUUUUAFFFFABRRRQAUUUUAFFFFABRRRQAUUUUAFFFFABRRRQAUUUUAFFFFABRRRQAUUUUAJmjNeeeLNUvF12aBLmRIowoVUbHbJ/Gsb+0rz/n7n/7+GvRpZdOcVK6V1c82pmUac3GzdmeufjR+NeR/2lef8/c//fw0f2lef8/c/wD38NX/AGXL+ZGf9qR/lPXPxo/GvI/7SvP+fuf/AL+Gj+0r3/n7n/7+Gj+y5fzIP7Uj/Keu0ZrC8I3s99oivcuZJEcpuPUgevvVTxvf3FlYW628rRebIQzKcHAFcKoSdX2XW9jveISpe16WudP+NH415H/aV5/z9z/9/DR/aV5/z9z/APfw13f2XL+ZHB/asf5T1z8aPxryP+0rz/n7n/7+Gj+0rz/n7n/7+Gj+y5fzIP7Uj/Keu5pPpXkf9pXn/P3P/wB/DXQ+DNTvJdXa2mnkkjaMttc5AIPas62Xypwc7p2NKWYxqTULNXO8pvHfFUNeupbPRbqeE7ZFQ7W9D615mdTviSTeTkk8kyHmssNhJV02naxricZGg1Fq9z1yj8a8j/tK8/5+5/8Av4aP7SvP+fuf/v4a6v7Ln/Mc39qR/lPXPxo/GvI/7SvP+fuf/v4aP7SvP+fuf/v4aP7Ln/MH9qQ/lPXBjtilry7R9Wvo9Xtv9KlZWkVWVmyGBNeoD1rixOHlQkk3c7cNiVXi2lYWiiiuc6QooooAKKKKACiiigAooooAKKKKACiiigAooooAKKKKACiiigAooooAKKKKACiiigAooooAKKKKACiiigAooooAKKKKACiiigDzHxb/AMjLd/8AAf8A0EVj1seLf+Rlu/8AgP8A6CKx6+ow/wDCj6I+WxH8WXqFFFFbGIUUUUAeheBv+QGf+urVU+IP/HpZf9dG/wDQat+Bv+QGf+urVU+IP/HpZf8AXRv/AEGvCp/7782e5P8A3L5HEUUUV7p4YUUUUAFb/gj/AJGJf+uTVgVv+Cf+RiX/AK5NXPi/4MvQ6ML/ABo+qOx8T/8AIuXv+5/WvLq9R8T/APIuXv8Auf1ry6uTK/4b9TqzT+IvQWiiivTPNCiiigC1pf8AyFrP/rsv869bryTS/wDkLWf/AF2X+det9q8XNPjj6HtZX8MhaKKK8s9UKKKKACiiigAooooAKKKKACkyAMmlrmPGWtNY2gs7dsTzjkg8qvc/U9PzrSlTdSaiuplWqKlByZdtfFOm3d69ss2x1bapcYV/oa2eteM10GheKrnTGWK4LT2uehOWT6e3tXo18taV6bv5HnUMyu7VFbzPR6Kr2d5Bf26z28iyRsOCKsV5TTTsz1U01dBRRRQMKKKKACiiigAooooAKKKKACiiigAooooAKKKKACiiigAooooAKKKKAPMfFv8AyMt3/wAB/wDQRWPWx4t/5GW7/wCA/wDoIrHr6jD/AMKPoj5bEfxZeoUUUVsYhRRRQB6F4G/5AZ/66tVT4g/8ell/10b/ANBq34G/5AZ/66tVT4g/8ell/wBdG/8AQa8Kn/vvzZ7k/wDcvkcRRRRXunhhRRRQAVv+Cf8AkYl/65NWBW/4I/5GJf8Ark1c+L/gy9Dowv8AGj6o7HxP/wAi5e/7n9a8ur1HxP8A8i5e/wC5/WvLq5Mr/hv1OrNP4i9BaKKK9M80KKKKALWl/wDIWs/+uy/zr1vtXkml/wDIWs/+uy/zr1uvFzT44+h7WV/DIWiiivLPVCiiigAooooAKKKKACiiigCOaZLeJ5ZDhEUsx9hXk2p376lqE13J1kbKj+6vYflXbeOL82+lLbIcNcNg4/ujk/0rgK9nLKNouo93ojxMyrXkqa2W4UUUV6p5ZpaJrc+i3W9MvC5/eR5+97j0Nel2N7BqFqlxbMHjccH/ABryKtzwvrraTeiKVv8ARJjh8/wn+9XnY3CKonUgtV+J6OCxbptQm9H+B6VRSAhgCOQaWvCPeCiiigAooooAKKKKACiiigAooooAKKKKACikFZ1xr+mWsrRTXcauvDLnJFOMXLSKuTKcYq8nY0qKyv8AhKNI/wCf6P8AI0f8JRpH/P8AR/kav2NT+V/cR7an/MjVorK/4SjSP+f6P8jR/wAJRpH/AD/R/kaPY1P5X9we2p/zI1Pypayl8S6S7hRexZJwM8VqBgwBHINTKEofErFRnGfwu5yOv+ELrUdUku7aaICQDKvnIIGKzP8AhBdR/wCe1v8Ama7S91ix05gl3cxxuRkKTzVc+KNIP/L7H+tdlPE4lRSirpbaHDUwuGc25PV+Zyn/AAgmpf8APa2/M0f8IJqX/Pa2/M11f/CUaR/z+x/rR/wlGkf8/sf61p9axfb8CPqmE7/icp/wgmpf89rb8zR/wgmpf89rb8zXV/8ACUaR/wA/sf60f8JRpH/P7H+tH1rF9vwD6phO/wCI7w/pTaNpi2zyB5CxZmA4yfT2qDxNob65ZxJDKI5Im3Lu6HtzWtBPFcwrLC6yRsMqynINNuruCygMtzKsSA4yxxXEqk1V51udrpU3S5H8Jwv/AAgmpf8APa2/M0f8IJqX/Pa2/M11f/CUaR/z+x/rR/wlGkf8/sf612/WsX2/A4vqmE7/AInKf8IJqX/Pa2/M0f8ACCal/wA9rb8zXV/8JRpH/P7H+tH/AAlGkf8AP7H+tH1rF9vwD6phO/4nJ/8ACCal/wA9rf8AM1s+G/C02k3r3V1KjNt2oqZwPXOa0/8AhJ9I/wCf2P8AWrNlqllqBYWlwkpXqAeR+FZ1cTiJQanon5GlLDYaM04u7XmLqdiNR06a1LbfMUrux0riv+ED1L/ntbH3BP8AhXfO6ohZiFUckntWafE2kAkfbouOOMms8PWrU7qmvwua4ihRqNOo7P1OT/4QTUv+e1t+Zo/4QTUv+e1t+Zrq/wDhKNI/5/Y/1o/4SjSP+f2P9a6PrWL7fgc31TCd/wATlP8AhBNS/wCe1t+Zo/4QTUv+e1t+Zrq/+Eo0j/n9j/Wj/hKNI/5/Y/1o+tYvt+AfVMJ3/E53TfBN5b6hBPPND5cbhyEyScdBXbis+113TryURQXUbyHoueTWjXJiKtSpL95udmHpUqa/dvQKKzrnXtNs5TFcXcaSDqvcVF/wlGkf8/0f5Gs1Sm1dRf3FutTTs5I1qKyv+Eo0j/n+j/I0f8JRpH/P9H+Rp+xqfyv7g9tT/mRq0Vlf8JRpH/P9H+RoHibSCQPt0XPHOaPY1P5X9we2p/zI1aKRWDqGUgqehFLWZqFFFB6GgDzfxnd/adfaMHKwIEA9CeT/AErBqzqczXOp3UpOS0rYPqM/4YqtX1OHhyU4x8j5WvPnqOXmFFFFamQUlLRQB6B4L1f7dYG0mbM1tgAn+Je3+FdNmvKtAvzp2s28+fkZtj/7p4/Tg16p1xXzuPoqnUutnqfQ4Cs6lKz3QtFFFcZ3BRRRQAUUUUAFFFFABRRRQAUUUUAI33TXjtxk3MxPJMjEk9+a9if7h+leO3H/AB8y/wC+f5162V7y+R5Ga7RI6KWivYPHEopaKAEPQ/SvWdFydEs8/wDPFf5V5Meh+les6L/yBLP/AK4r/KvKzT4Ynq5X8cjz/wAW8+JbrP8As/8AoIrGrZ8W/wDIy3X/AAH/ANBFY9d2G/hR9EcGI/iy9RKKWitzESilooA9C8DH/iQkZOBKwAqp8QSfslkOxlOR68Vb8Df8gI/9dWqp8Qf+PSy/66t/6DXhU/8Affmz3Z/7l8jh6KWivdPCEopaKAErofBBI8QAAkAxNkflXP1v+Cf+RiX/AK5NXPi/4MvQ6ML/ABo+qOx8Tkjw7e4JGUxxXl1eo+J/+Rcvf9z+teXVyZX/AA36nXmn8RegUUtFemeYJRS0UAWtK41ezI4ImXH51632ryTS/wDkLWf/AF2X+det9q8XNPjj6HtZX8EjyLUSTqd0SckytknnPNVqs3//ACErn/rq386r169P4F6HkVPjfqJRS0VZAlFLSUAeqeG/+Rdsf+uQFaYrM8Nf8i9Y/wDXIVpivla38SXqz6uj/Dj6IKZMcQufRTT6jnGYJB6qahbly2PHOTyeSeTS0g6Clr6xbHyL3CiiimAUUUUAJXq2hXf27RbWckFigDY9Rwf1FeVVsaf4nvtMsRa24i2gkhmBJGea4cdh5V4rl3TO3A4hUZvm2Z6dRXmTeLdYbP8ApYA9kXj9KgPiPVj/AMv8v4GuBZZV6tHoPM6XZnqlFeXJ4m1dOl9IfqAasQ+NNXiOXlilHoyAfypSy2qtmmCzOk900ekUda4q18ft8ovLPPHLRN/Q/wCNdBp3iPTtSIWG4Cyf883+U/kev4VzVMLVp/Ejpp4qlU0izWoozRWB0hRRRQAUUUUAI/3D9K8duP8Aj5l/3z/OvYn+4fpXjtx/x8y/75/nXrZXvL5HkZrtEZRRRXsHjhRRRQAh6H6V6zov/IEs/wDriv8AKvJj0P0r1nRf+QJZ/wDXFf5V5WafDE9TK/jkef8Ai3/kZbr/AID/AOgisetjxb/yMt1/wH/0EVj134f+FH0Rw4j+LL1CiiitjEKKKKAPQvA3/IDP/XVqqfEH/j0sv+ujf+g1b8Df8gM/9dWqp8Qf+PSy/wCujf8AoNeFT/335s9yf+5fI4iiiivdPDCiiigArf8ABP8AyMS/9cmrArf8Ef8AIxL/ANcmrnxf8GXodGF/jR9Udj4n/wCRcvf9z+teXV6j4n/5Fy9/3P615dXJlf8ADfqdWafxF6C0UUV6Z5oUUUUAWtL/AOQtZ/8AXZf51632ryTS/wDkLWf/AF2X+det9q8XNPjj6HtZX8EjyK//AOQlc/8AXVv51Xqxf/8AISuf+urfzqvXr0/hXoePU+N+oUUUVZIUlLSUAeqeGv8AkXrH/rkK0xWZ4a/5F6x/65CtOvla38SXqz6qj/Dj6IKRhlSD0IpaKzNTx++hMGoXEJBGyVlAP14qGt3xlZG1195APkuFDg579D/SsKvqaE+empLsfK1oOFRxfcKKKK1MgooooAKKKKACiiigAooooAKT+nIpaKAN/RfF11pzCK7L3Fv05PzL9D3+hrrP+Et0j/n6H/fLf4V5vBC9zPHBGMvIwVR9a77/AIQ2x/2/zrysXRw0ZJyum+x6mFr4lxtDVI6WiiivGPbCiiigBr/cP0rx64/4+Zf98/zr2I1gz+DdKuJ3laOVWkbcQshAzXdgsTCg3zX17HBjcNOuly20POKK9E/4QfSf7s//AH9NH/CD6T/dn/7+mvQ/tKj5nn/2bW8jzuivRP8AhB9J/uz/APf00f8ACD6T/dn/AO/po/tKj5h/ZtbyPOj0P0r1nRf+QLZ/9cU/lWWPA+kgg7JjjnBkPNb8USQxrHGoVFAAA7CuHG4qFdJR6HdgcJOg2521PNPFv/Iy3f8AwH/0EVj16dqPhnTtUuftFwjiQjBKORn61V/4QfSf7s//AH9NdNHMKUaai73SOWtl9WdRyVrNnndFeif8IPpP92f/AL+mj/hB9J/uz/8Af01r/aVHzM/7NreR53RXon/CD6T/AHZ/+/po/wCEH0n+7P8A9/TR/aVHzD+za3kN8Df8gI/9dWqp8QP+PSy/66H/ANBrpbCxg020S2tk2xp2znPuaZqWl22rW/kXSFlByCDgg+xry414rEe1tpc9SWHk8P7JPWx5NRXon/CD6T/dn/7+mj/hB9J/uz/9/TXqf2lR8zy/7NreR53RXon/AAg+k/3Z/wDv6aP+EH0n+7P/AN/TR/aVHzD+za3ked1v+Cf+RiH/AFyaul/4QfSv7s+P+upq7pfh+x0iR5LVG3uMFnbJxWNfH0p03FXuzWhgKtOopO1kN8T/APIu3n+5/WvL69huII7uB4JkDxSLtYHoRWH/AMIPpP8Adn/7+msMFi4UYuMr7nRjcJOtNSied0V6J/wg+k/3Z/8Av6aP+EH0n+7P/wB/TXb/AGlR8zi/s2t5HndFeif8IPpP92f/AL+mj/hB9J/uz/8Af00f2lR8w/s2t5HC6X/yFrP/AK7L/OvW+1Ylp4S0yyukuI45GkjO5d7kgH1rb7V5uNxEa8k49D0cFh50ItStqeRX/wDyErn/AK6t/Oq9ek3fhDS7y5eeSORXkOWCuQCai/4QfSf7s/8A39NehDMaSik7nBPLark2rHndFeif8IPpP92f/v6aP+EH0n+7P/39NV/aVHzJ/s2t5HndJXov/CD6T/dn/wC/po/4QfSf7s//AH9NH9pUfMP7NreRe8N/8i9Y/wDXIVqVDBDHbQJDEoSONQqqOwqavDnLmk33Pcpx5YqPYKKKM+4qSznfGOlm+0ozRrmW3O8Y7juP6/hXnVenah4m0yxDK84lfH+rj+Yn+lea3DxyXMrwxmONmJVCfuj0/Cvcy1zUHGSaXRnhZkoOalFpvqhlFFFekeaFFFFABRRRQAUUUUAFFFFABRRWjomjSa1eiFcrEvMkgH3R/iaic4wi5SdkioQc5KMVds2/BGjmWc6jMvyR5WLPdu5/pXc1Fa28VpbRwQrtjQYUCpq+axFZ1qjk/kfTYeiqNNRW/Ur3l7BYW7TXUqxxqOpP+c1zU/j22VyILWWRR/E2FzXNeINafWL7eAywxjCIf1P1zWXXp0Muhyp1d30PLxGYzcmqeiXU7P8A4WCP+fBv+/lH/CwR/wA+Df8AfyuMorp+oUO34nP9fr9zs/8AhYI/58G/7+Uf8LBH/Pg3/fyuMoo+oUO34h9fr9zs/wDhYI/58G/7+Uf8LBH/AD4N/wB/K4yij6hQ7fiH1+v3Oz/4WCP+fBv+/lH/AAsEf8+Df9/K4yij6hQ7fiH1+v3Oz/4WCP8Anwb/AL+Uf8LBH/Pg3/fyuMoo+oUO34h9fr9zs/8AhYI/58G/7+Uf8LBH/Pg3/fyuMoo+oUO34h9fr9zs/wDhYI/58G/7+Uf8LBH/AD4N/wB/K4yij6hQ7fiH1+v3Oz/4WCP+fBv+/lH/AAsEf8+Df9/K4yij6hQ7fiH1+v3Oz/4WCP8Anwb/AL+Uf8LBH/Pg3/fyuMoo+oUO34h9fr9zs/8AhYI/58G/7+Uf8LBH/Pg3/fyuMoo+oUO34h9fr9zs/wDhYI/58G/7+Uf8LBH/AD4N/wB/K4yij6hQ7fiH1+v3Oz/4WCP+fBv+/lH/AAsEf8+Df9/K4yij6hQ7fiH1+v3Oz/4WCP8Anwb/AL+Uf8LBH/Pg3/fyuMoo+oUO34h9fr9zs/8AhYI/58G/7+Uf8LBH/Pg3/fyuMoo+oUO34h9fr9zs/wDhYI/58G/7+Uf8LBH/AD4N/wB/K4yij6hQ7fiH1+v3Oz/4WCv/AD4N/wB/KP8AhYI/58G/7+VxlFH1Ch2/EPr9fudn/wALBH/Pg3/fyj/hYI/58G/7+VxlFH1Ch2/EPr9fudn/AMLBH/Pg3/fyj/hYI/58G/7+VxlFH1Ch2/EPr9fudn/wsEf8+Df9/KP+Fgj/AJ8G/wC/lcZRR9QodvxD6/X7nZ/8LBH/AD4N/wB/Khf4gTnOywjHoTIT/SuSoprA0F9kHjq7+0b8/jXVZlIRoYc9CiZI/Osm61S9vs/arqWQE/dLYH5dKrUVtChSh8KRhOvUn8TYlLRRWpkFFFFABRRRQAUUUUAFFFJQAtFT2en3eoSbLS3eVu5A4H1Paut0jwOqES6o28jkQoePxPf6D9a562Kp0l7z17G9HDVKr91adzn9E8P3OszKVBjtgfmlI/Qetej6dp1vplqILZdqDqe5PqaniijgjWOJFRFGAqjAFSV4WIxUq77Lse7hsJCgu77hRRRXMdZ4yfvUUHqaK+uPkAooooAKKKKACiiigAooooAKKKKACiiigAooooAKKKKACiiigAooooAKKKKACiiigAooooAKKKKACiiigAooooAKKKKACiiigAooooAKKKKACiiigAooooAKKKKACj+vFFbHhXT/AO0Nbi3LmKH94+fbp+uPyNZ1JqnBzfQulB1JqC6lpPA2pugJeBSRkgsamj8BXx+/cwJ9ATXfUV4bzCu+p7qy6iuhxkPw/H/Le+bP/TNMfzrVtPB+lWpDGEzMO8jZx+Fb1FYzxdae8mbQwlGG0RkcUcKBI0VFHQKMAU+iiufc6dgooooAKKKKAPGn++aSpbuBra6kif7y4z+Wair61NNXR8i007MKKKKYgooooAKKKKACiiigAooooAKKKKACiiigAooooAKKKKACiiigAooooAKKKKACiiigAooooAKKKKACiiigAooooAKKKKACiiigAooooAKKKKACiiigAooooASvRPBemmz0jz5BiS5O85HRe3+P41xOj6e2qanDajO1jlz6KOv+FeroixoqKMKowBXlZnWslTXqz1cso3bqPpoh1FFFeMe0FFFFABRRRQAUUUUAFFFFAHmnjCDyPEU3pIisPyx/SsSuq8fW+zULWcD78ZUn6Hj+Zrla+mwkuajF+X5HzGLjy1pLzCiiiug5wooooAKKKKACiiigAooooAKKKKACiiigAooooAKKKKACiiigAooooAKKKKACiiigAooooAKKKKACiiigAooooAKKKKACiiigAooooAKKKKACiiigAooq5pGntqmpw2q52scuw7KOv+H41M5KEXJ7IqEXKSit2df4I0v7PZPeyLiSfhM9kH+J5/KurpkUSwxrGihVUBQB2Ap9fL1qjqTc31PqKFJUoKKCiiiszUKKKKACiiigAooooAKKKKAOX8eQGTSIZh/yylGfx4rga9V161+16LdxcZMZIyO45/pXlI5ANe7ls70nHszwczhaqpd0LRRRXonnBRRRQAUUUUAFFFFABRRRQAUUUUAFFFFABRRRQAUUUUAFFFFABRRRQAUUUUAFFFFABRRRQAUUUUAFFFFABRRRQAUUUUAFFFFABRRRQAUUUUAFFFFACV6D4M0f7FYfa5VxPcDPPUL2H9a5fwxpB1bU13j/AEeAh5Pf0X8f5V6aAAAB0ryMxxH/AC6j8z1stw//AC9l8haKKK8g9kKKKKACiiigAooooAKKKKACiiigBOteTavaGw1a6t8EBHJXPcHkV6yK4Tx5Y+VewXqj5ZV2MQP4h/iOPwr0MtqctTlfU87MqfNSUl0OVooor3jwQooooAKKKKACiiigAooooAKKKKACiiigAooooAKKKKACiiigAooooAKKKKACiiigAooooAKKKKACiiigAooooAKKKKACiiigAooooAKKKKACnwwyXM6QRLukkbao9TUdd34O0E2sQv7lSJpBhFI+6vr9T/KufE4hUYOXXob4ag681FbdTb0XSk0jTkt05bq7f3m7mtGiivmpScm5Pdn00YqEVFbIKKKKRQUUUUAFFFFABRRRQAUUUUAFFFFABWN4o046jokyIMyR/vE+o/xGR+NbNIcEEHoaqEnCSkuhFSCnFxfU8Zpa0/EOmnS9ZliAxE53x/Q//XyKzK+ppzU4KS2Z8rUg4ScXugoooqyQooooAKKKKACiiigAooooAKKKKACiiigAooooAKKKKACiiigAooooAKKKKACiiigAooooAKKKKACiiigAooooAKKKKACiiigAoorV8P6FLrV4MgraxnMr+v8Asj3/AJVE6kacXKTskXTpupJRirtl3wnoH9pT/a7lT9mib5QR99v8BXoYGBxTIIY7eFIoUCIowqgcAU+vm8RiHWnzPbofSYbDqhDlW4tFFFYHQFFFFABRRRQAUUUUAFFFFABRRRQAUUUUAFFFFAHOeMdIN/pv2iJcz22WGByy9x/WvO69mxnIPQ15j4m0c6TqrCMf6PNl4vb1H4fyr18txGjpS+R42ZUNVVXzMiiiivXPJCiiigAooooAKKKKACiiigAooooAKKKKACiiigAooooAKKKKACiiigAooooAKKKKACiiigAooooAKKKKACiiigAooooAKKK1tD8Pz61KDho7UH5pCOvsPWonUjTTlJ2SLp05VGoxV2xmhaFPrV1tXKW6H95Ljp7D3r0uzs4bC1S3t0CRoOAKLOzhsLZILaMJGgwAKnr57FYqVeXZdEfQ4XCxoR7ti0UUVynWFFFFABRRRQAUUUUAFFFFABRRRQAUUUUAFFFFABRRRQAVm63pUer6c9u/D9Ub+63atKinGTi1JbomUVOLi+p47cW8tpcPDOhSRDhh/X6VHXoXinw6NUgN1bLi6jHQf8tB6f5+leekEEgggg4IIxivpMNiFXhfr1R83isO6E7PbowooorpOYKKKKACiiigAooooAKKKKACiiigAooooAKKKKACiiigAooooAKKKKACiiigAooooAKKKKACiiigAooooAKSpbe2mu51ht4mlkboFH+eK7jQvB0VntuNQAmnGCqD7qf4n9K5q+Jp0V7z17HRQw06z91adzG0DwlJqGLi+DQ22eFxhn/wFd/DDHbwpFEgREGFUDAAp4GMCivBr4ideV5bHv4fDwoq0dxaKKKwOgKKKKACiiigAooooAKKKKACiiigAooooAKKKKACiiigAooooAKKKKACuU8T+Fvtu68sVAuOroOBJ/8AX/nXV0VpSqypS5osyq0Y1Y8sjxplaN2R1ZXU4ZSMEUleka94Yg1dTLGRFdAcSAcH615/f6dc6bcGG7iKN2bs30Pevfw2LhWXZ9j5/E4SdF913K9FFFdZyhRRRQAUUUUAFFFFABRRRQAUUUUAFFFFABRRRQAUUUUAFFFFABRRRQAUUUUAFFFFABRSVsaZ4W1HUsN5fkxH/lpKMfkOp/SonUhTV5uxcKcqjtBXMit7R/CV5qWJJw1tbn+Jh8zfQf1P611uk+FrHSsSbfPnH/LSQdPoO1bQrycRmV9KS+Z6tDLba1X8ijpmkWmlQ+Xaxhc/eb+Jvqav0UV5cpOTu3dnqxioqyVgooopFBRRRQAUUUUAFFFFABRRRQAUUUUAFFFFABRRRQAUUUUAFFFFABRRRQAUUUUAFFFFABVa7s4L+AxXMSSIeoYf5xVmihNp3Qmk1ZnD6r4FkQmTTJN69fKkPI+jf4/rXLXNrcWcnl3ULwv6MMZr2Gobi1huoyk8SSIezDNejRzGpDSeqPOrZdCesNGeP0V3194GsLjc1o72znoB8y/kf6VgXfgvVLYkxLHcJngocH8j/wDXr0aeNoz62fmebUwNaHS68jAoqWe0uLUhbiCWInoGQjNQ11qSaujlaadmLRRRTEFFFFABRRRQAUUUUAFFFFABRRRQAUUUUAFFJ14HJ9uauWukahe4+z2krqeQ23AP4niplOMVeTsVGEpOyVypRXTWngW/mwbmWKBSM4Hzkf0/nW7Z+CtMtsGYPct/00PH5DiuSpj6MOt/Q6qeArT6WXmefwW011II7eJ5WPZBmui0/wAD3tzh7yRbdD/CPmY/4V3cFtDbIEgiSNR2UYqU1wVcym9IK35noUsthHWbuZOm+GtO0whooQ8g/wCWknzH/wCt+Fa/SiivPlOU3eTuehCEYK0VYKKKKksKKKKACiiigAooooAKKKKACiiigAooooAKKKKACiiigAooooAKKKKACiiigAooooAKKKKACiiigAooooAKKKKACiiigBrIrqVZQwPUEVm3Hh3SrrmSyhz6qNv8q1KT8qcZyi7xbREoRkrSVzmLjwJp0gPkyzxMeh3ZAqhN8P5B/qL5T/10T/Cu3pK6I42vH7RzywVCW8Tz2bwNqcf+reCX6MRVaTwhrEf/AC7I3+5IK9MorZZlWW9mZPLaL2ujys+G9XGf9Al/Db/jTDoOqr10+f8ALNer0Vf9p1OyI/sun3Z5N/Yupf8APhP/AN8Uo0PUz0sJ/wDvmvWKKf8Aac/5UL+y4fzM8qHh3Vz0sJvxwKlj8K6xJ/y5Mv8AvMBXqGKKTzOp2Q1ldPuzzdPBWruw3JCoPUmTOP0q5H4BvDjzLqFR3ABOK7yis3mNZ7WXyNFl1FdGzkYfAFuGBmvJXHcKoWr8HgzSIc7oGmz/AM9HJx+Vb2KWsJYqtLeTN44SjHaJTt9LsrTHkWsKEDAIQZ/OrnSj8aKxbb1bNlFJaIKKKKRQUUUUAFFFFABRRRQAUUUUAFFFFABRRRQAUUUUAFFFFABRRRQAUUUUAFFFFABRRRQAUUUUAFFFFABRRRQAUUUUAFFFFABRRRQAUUUUAFFFFABRRRQAUUUUAFFFFABRRRQAUUUUAFFFFABRRRQAUUUUAFFFFABRRRQAUUUUAFFFFABRRRQAUUUUAFFFFABRRRQAUUUUAFFFFABRRRQAUUUUAFFFFABRRRQAUUUUAFFFFABRRRQAUUUUAFFFFABRRRQAUUUUAFFFFABRRRQAUUUUAFFFFABRRRQAUUUUAFFFFABRRRQAUUUUAFFFFABRRRQAUUUUAFFFFABRRRQAUUUUAFFFFABRRRQAUUUUAFFFFABRRRQAUUUUAFFFFABRRRQAUUUUAFFFFABRRRQAUUUUAFFFFABRRRQAUUUUAFFFFABRRRQAUUUUAFFFFABRRRQAUUUUAFFFFABRRRQAUUUUAFFFFABRRRQAUUUUAFFFFABRRRQAUUUUAFFFFABRRRQAUUUUAFFFFABRRRQAUUUUAFFFFABRRRQAUUUUAFFFFABRS0UAJRS0UAJRS0UAJRS0UAJRS0UAJRS0UAJRS0UAJRS0UAJRS0UAJRS0UAJRS0UAJRS0UAJRS0UAJRS0UAJRS0UAJRS0UAJRS0UAJRS0UAJRS0UAJRS0UAJRS0UAJRS0UAJRS0UAJRS0UAJRS0UAJRS0UAJRS0UAJRS0UAJRS0UAJRS0UAf/2Q==;" vertex="1" parent="1">
          <mxGeometry x="585" y="310" width="20" height="20" as="geometry" />
        </mxCell>
        <mxCell id="iRdQwPABQsQ_W9aUvFbF-30" value="" style="rounded=1;whiteSpace=wrap;html=1;fillColor=#f5f5f5;fontColor=#333333;strokeColor=#666666;" vertex="1" parent="1">
          <mxGeometry x="331" y="255" width="200" height="290" as="geometry" />
        </mxCell>
        <mxCell id="iRdQwPABQsQ_W9aUvFbF-31" value="Org2 [org2.hl7-fhir.com]" style="text;html=1;align=center;verticalAlign=middle;whiteSpace=wrap;rounded=0;fontStyle=1" vertex="1" parent="1">
          <mxGeometry x="350" y="270" width="140" height="30" as="geometry" />
        </mxCell>
        <mxCell id="iRdQwPABQsQ_W9aUvFbF-32" value="peer0.org2.hl7-fhir.com:9051" style="rounded=1;whiteSpace=wrap;html=1;" vertex="1" parent="1">
          <mxGeometry x="346" y="310" width="170" height="40" as="geometry" />
        </mxCell>
        <mxCell id="iRdQwPABQsQ_W9aUvFbF-33" value="" style="rounded=1;whiteSpace=wrap;html=1;fillColor=#fff2cc;strokeColor=#d6b656;" vertex="1" parent="1">
          <mxGeometry x="346" y="360" width="170" height="90" as="geometry" />
        </mxCell>
        <mxCell id="iRdQwPABQsQ_W9aUvFbF-34" value="" style="verticalLabelPosition=bottom;verticalAlign=top;html=1;shape=mxgraph.basic.patternFillRect;fillStyle=diag;step=5;fillStrokeWidth=0.2;fillStrokeColor=#dddddd;" vertex="1" parent="1">
          <mxGeometry x="356" y="370" width="150" height="30" as="geometry" />
        </mxCell>
        <mxCell id="iRdQwPABQsQ_W9aUvFbF-35" value="" style="verticalLabelPosition=bottom;verticalAlign=top;html=1;shape=mxgraph.basic.patternFillRect;fillStyle=diag;step=5;fillStrokeWidth=0.2;fillStrokeColor=#dddddd;dashed=1;dashPattern=8 8;" vertex="1" parent="1">
          <mxGeometry x="356" y="410" width="150" height="30" as="geometry" />
        </mxCell>
        <mxCell id="iRdQwPABQsQ_W9aUvFbF-36" value="couchdb:5985" style="text;html=1;align=center;verticalAlign=middle;whiteSpace=wrap;rounded=0;" vertex="1" parent="1">
          <mxGeometry x="380" y="370" width="80" height="30" as="geometry" />
        </mxCell>
        <mxCell id="iRdQwPABQsQ_W9aUvFbF-37" value="lebeldb" style="text;html=1;align=center;verticalAlign=middle;whiteSpace=wrap;rounded=0;" vertex="1" parent="1">
          <mxGeometry x="380" y="410" width="80" height="30" as="geometry" />
        </mxCell>
        <mxCell id="iRdQwPABQsQ_W9aUvFbF-38" value="chaincode:hl7-fhir-java" style="rounded=1;whiteSpace=wrap;html=1;" vertex="1" parent="1">
          <mxGeometry x="346" y="460" width="170" height="60" as="geometry" />
        </mxCell>
        <mxCell id="iRdQwPABQsQ_W9aUvFbF-40" value="" style="shape=image;imageAspect=0;aspect=fixed;verticalLabelPosition=bottom;verticalAlign=top;image=data:image/jpeg,/9j/4AAQSkZJRgABAQEAAAAAAAD/4QAuRXhpZgAATU0AKgAAAAgAAkAAAAMAAAABAAAAAEABAAEAAAABAAAAAAAAAAD/2wBDAAoHBwkHBgoJCAkLCwoMDxkQDw4ODx4WFxIZJCAmJSMgIyIoLTkwKCo2KyIjMkQyNjs9QEBAJjBGS0U+Sjk/QD3/2wBDAQsLCw8NDx0QEB09KSMpPT09PT09PT09PT09PT09PT09PT09PT09PT09PT09PT09PT09PT09PT09PT09PT09PT3/wAARCAHaAdoDASIAAhEBAxEB/8QAHwAAAQUBAQEBAQEAAAAAAAAAAAECAwQFBgcICQoL/8QAtRAAAgEDAwIEAwUFBAQAAAF9AQIDAAQRBRIhMUEGE1FhByJxFDKBkaEII0KxwRVS0fAkM2JyggkKFhcYGRolJicoKSo0NTY3ODk6Q0RFRkdISUpTVFVWV1hZWmNkZWZnaGlqc3R1dnd4eXqDhIWGh4iJipKTlJWWl5iZmqKjpKWmp6ipqrKztLW2t7i5usLDxMXGx8jJytLT1NXW19jZ2uHi4+Tl5ufo6erx8vP09fb3+Pn6/8QAHwEAAwEBAQEBAQEBAQAAAAAAAAECAwQFBgcICQoL/8QAtREAAgECBAQDBAcFBAQAAQJ3AAECAxEEBSExBhJBUQdhcRMiMoEIFEKRobHBCSMzUvAVYnLRChYkNOEl8RcYGRomJygpKjU2Nzg5OkNERUZHSElKU1RVVldYWVpjZGVmZ2hpanN0dXZ3eHl6goOEhYaHiImKkpOUlZaXmJmaoqOkpaanqKmqsrO0tba3uLm6wsPExcbHyMnK0tPU1dbX2Nna4uPk5ebn6Onq8vP09fb3+Pn6/9oADAMBAAIRAxEAPwD2WiiigAooooAKKKKACiiigAooooAKKKKACiiigAooooAKKKKACiiigAooooAKKKKACiiigAooooAKKKKACiiigAooooAKKKKACiiigAooooAKKKKACiiigAooooAKKKKACiiigAooooAKKKKACiiigAooooAKKKKACiiigAooooAKKKKACiiigAooooAKKKKACiiigAooooAKKKKACiiigAooooAKKKKACiiigAooooAKKKKACiiigAooooAKKKKACiiigAooooAKKKKACiiigAooooAKKKKACiiigAooooAKKKKACiiigAooooAKKKKACiiigAooooAKKKKACiiigAooooAKKKKACiiigAooooAKKKKACiiigAooooAKKKKACiiigAooooAKKKKACiiigAooooAKKKKACiiigAooooAKKKKACiiigAooooAKKKKACiiigAooooAKKKKACiiigAooooAKKKKACiiigAooooAKKKKACiiigAooooAKKKKACiiigAooooAKKKKACiiigAooooAKKKKACiiigAooooAKKKKACiiigAooooAKKKKACiiigAooooAKKKKACiiigAooooAKKKKACiiigAooooAKKKKACiiigAooooAKKKKACiiigAooooAKKKKACiiigAooooAKKKKACiiigAooooAKKKKACiiigAooooAKKKKACiiigCpqV4unWE10ylvKXdtHeuLPjy/ycW8AHpzXU+KP+RcvP9z+teXV6uX4enUg3NXdzycwxFSnNKDsjqP+E9v/APn3g/Wj/hPb/wD594P1rmKK7/qVH+U8/wCuV/5mdP8A8J7f/wDPvB+tH/Ce3/8Az7wfrXMUUfUqP8ofXK/8zOw0zxtc3GoQQXNvHslYISpORnoa7WvJNL/5C1n/ANdl/nXrg6V5WYUYUprkVro9XL606sXzO9gooorgPRCiiigAooooAKKKKACiiigAooooAKKKKACiiigAooooAKKKKACiiigAooooAKKKKACiiigAooooAKKKKACiiigAooooAKKKKACiiigAooooAKKKKACiiigAooooAKKKKACiiigDJ8T/APIuXv8Auf1ry6vUfE//ACLl7/uf1ry6vbyv+G/U8LNP4i9BaKKK9M80KKKKALWl/wDIWs/+uy/zr1vtXkml/wDIWs/+uy/zr1vtXi5p8cfQ9rK/hkLRRRXlnqhRRRQAUUUUAFFFFABRRRQAUUUUAFFFFABRRRQAUUUUAFFFFABRRRQAUUUUAFFFFABRRRQAUUUUAFFFFABRRRQAUUUUAFFFFABRRRQAUUUUAFFFFABRRRQAUUUUAFFFFABRRRQBk+KP+RcvP9z+teXV6rr9vJd6HdQwqWkZPlA715l/Z96OtncfjGa9nLJxUGm+p4uZQk6iaXQgoqf+z7z/AJ9Lj/v2aP7PvP8An0uP+/Zr0vaR7nm+zn2ZBRU/9n3n/Ppcf9+zR/Z95/z6XH/fs0e0j3D2c+zH6X/yFrP/AK7L/OvXBXluj6Xevq9r/oswCyqzMyEAAHPevURXjZlKMpxs+h7OWRcYSuuotFFFeaemFFFFABRRRQAUUUUAFFFFABRRRQAUUUUAFFFFABRRRQAUUUUAFFFFABRRRQAUUUUAFFFFABRRRQAUUUUAFFFFABRRRQAUUUUAJmjNeeeLNUvF12aBLmRIowoVUbHbJ/Gsb+0rz/n7n/7+GvRpZdOcVK6V1c82pmUac3GzdmeufjR+NeR/2lef8/c//fw0f2lef8/c/wD38NX/AGXL+ZGf9qR/lPXPxo/GvI/7SvP+fuf/AL+Gj+0r3/n7n/7+Gj+y5fzIP7Uj/Keu0ZrC8I3s99oivcuZJEcpuPUgevvVTxvf3FlYW628rRebIQzKcHAFcKoSdX2XW9jveISpe16WudP+NH415H/aV5/z9z/9/DR/aV5/z9z/APfw13f2XL+ZHB/asf5T1z8aPxryP+0rz/n7n/7+Gj+0rz/n7n/7+Gj+y5fzIP7Uj/Keu5pPpXkf9pXn/P3P/wB/DXQ+DNTvJdXa2mnkkjaMttc5AIPas62Xypwc7p2NKWYxqTULNXO8pvHfFUNeupbPRbqeE7ZFQ7W9D615mdTviSTeTkk8kyHmssNhJV02naxricZGg1Fq9z1yj8a8j/tK8/5+5/8Av4aP7SvP+fuf/v4a6v7Ln/Mc39qR/lPXPxo/GvI/7SvP+fuf/v4aP7SvP+fuf/v4aP7Ln/MH9qQ/lPXBjtilry7R9Wvo9Xtv9KlZWkVWVmyGBNeoD1rixOHlQkk3c7cNiVXi2lYWiiiuc6QooooAKKKKACiiigAooooAKKKKACiiigAooooAKKKKACiiigAooooAKKKKACiiigAooooAKKKKACiiigAooooAKKKKACiiigDzHxb/AMjLd/8AAf8A0EVj1seLf+Rlu/8AgP8A6CKx6+ow/wDCj6I+WxH8WXqFFFFbGIUUUUAeheBv+QGf+urVU+IP/HpZf9dG/wDQat+Bv+QGf+urVU+IP/HpZf8AXRv/AEGvCp/7782e5P8A3L5HEUUUV7p4YUUUUAFb/gj/AJGJf+uTVgVv+Cf+RiX/AK5NXPi/4MvQ6ML/ABo+qOx8T/8AIuXv+5/WvLq9R8T/APIuXv8Auf1ry6uTK/4b9TqzT+IvQWiiivTPNCiiigC1pf8AyFrP/rsv869bryTS/wDkLWf/AF2X+det9q8XNPjj6HtZX8MhaKKK8s9UKKKKACiiigAooooAKKKKACkyAMmlrmPGWtNY2gs7dsTzjkg8qvc/U9PzrSlTdSaiuplWqKlByZdtfFOm3d69ss2x1bapcYV/oa2eteM10GheKrnTGWK4LT2uehOWT6e3tXo18taV6bv5HnUMyu7VFbzPR6Kr2d5Bf26z28iyRsOCKsV5TTTsz1U01dBRRRQMKKKKACiiigAooooAKKKKACiiigAooooAKKKKACiiigAooooAKKKKAPMfFv8AyMt3/wAB/wDQRWPWx4t/5GW7/wCA/wDoIrHr6jD/AMKPoj5bEfxZeoUUUVsYhRRRQB6F4G/5AZ/66tVT4g/8ell/10b/ANBq34G/5AZ/66tVT4g/8ell/wBdG/8AQa8Kn/vvzZ7k/wDcvkcRRRRXunhhRRRQAVv+Cf8AkYl/65NWBW/4I/5GJf8Ark1c+L/gy9Dowv8AGj6o7HxP/wAi5e/7n9a8ur1HxP8A8i5e/wC5/WvLq5Mr/hv1OrNP4i9BaKKK9M80KKKKALWl/wDIWs/+uy/zr1vtXkml/wDIWs/+uy/zr1uvFzT44+h7WV/DIWiiivLPVCiiigAooooAKKKKACiiigCOaZLeJ5ZDhEUsx9hXk2p376lqE13J1kbKj+6vYflXbeOL82+lLbIcNcNg4/ujk/0rgK9nLKNouo93ojxMyrXkqa2W4UUUV6p5ZpaJrc+i3W9MvC5/eR5+97j0Nel2N7BqFqlxbMHjccH/ABryKtzwvrraTeiKVv8ARJjh8/wn+9XnY3CKonUgtV+J6OCxbptQm9H+B6VRSAhgCOQaWvCPeCiiigAooooAKKKKACiiigAooooAKKKKACikFZ1xr+mWsrRTXcauvDLnJFOMXLSKuTKcYq8nY0qKyv8AhKNI/wCf6P8AI0f8JRpH/P8AR/kav2NT+V/cR7an/MjVorK/4SjSP+f6P8jR/wAJRpH/AD/R/kaPY1P5X9we2p/zI1Pypayl8S6S7hRexZJwM8VqBgwBHINTKEofErFRnGfwu5yOv+ELrUdUku7aaICQDKvnIIGKzP8AhBdR/wCe1v8Ama7S91ix05gl3cxxuRkKTzVc+KNIP/L7H+tdlPE4lRSirpbaHDUwuGc25PV+Zyn/AAgmpf8APa2/M0f8IJqX/Pa2/M11f/CUaR/z+x/rR/wlGkf8/sf61p9axfb8CPqmE7/icp/wgmpf89rb8zR/wgmpf89rb8zXV/8ACUaR/wA/sf60f8JRpH/P7H+tH1rF9vwD6phO/wCI7w/pTaNpi2zyB5CxZmA4yfT2qDxNob65ZxJDKI5Im3Lu6HtzWtBPFcwrLC6yRsMqynINNuruCygMtzKsSA4yxxXEqk1V51udrpU3S5H8Jwv/AAgmpf8APa2/M0f8IJqX/Pa2/M11f/CUaR/z+x/rR/wlGkf8/sf612/WsX2/A4vqmE7/AInKf8IJqX/Pa2/M0f8ACCal/wA9rb8zXV/8JRpH/P7H+tH/AAlGkf8AP7H+tH1rF9vwD6phO/4nJ/8ACCal/wA9rf8AM1s+G/C02k3r3V1KjNt2oqZwPXOa0/8AhJ9I/wCf2P8AWrNlqllqBYWlwkpXqAeR+FZ1cTiJQanon5GlLDYaM04u7XmLqdiNR06a1LbfMUrux0riv+ED1L/ntbH3BP8AhXfO6ohZiFUckntWafE2kAkfbouOOMms8PWrU7qmvwua4ihRqNOo7P1OT/4QTUv+e1t+Zo/4QTUv+e1t+Zrq/wDhKNI/5/Y/1o/4SjSP+f2P9a6PrWL7fgc31TCd/wATlP8AhBNS/wCe1t+Zo/4QTUv+e1t+Zrq/+Eo0j/n9j/Wj/hKNI/5/Y/1o+tYvt+AfVMJ3/E53TfBN5b6hBPPND5cbhyEyScdBXbis+113TryURQXUbyHoueTWjXJiKtSpL95udmHpUqa/dvQKKzrnXtNs5TFcXcaSDqvcVF/wlGkf8/0f5Gs1Sm1dRf3FutTTs5I1qKyv+Eo0j/n+j/I0f8JRpH/P9H+Rp+xqfyv7g9tT/mRq0Vlf8JRpH/P9H+RoHibSCQPt0XPHOaPY1P5X9we2p/zI1aKRWDqGUgqehFLWZqFFFB6GgDzfxnd/adfaMHKwIEA9CeT/AErBqzqczXOp3UpOS0rYPqM/4YqtX1OHhyU4x8j5WvPnqOXmFFFFamQUlLRQB6B4L1f7dYG0mbM1tgAn+Je3+FdNmvKtAvzp2s28+fkZtj/7p4/Tg16p1xXzuPoqnUutnqfQ4Cs6lKz3QtFFFcZ3BRRRQAUUUUAFFFFABRRRQAUUUUAI33TXjtxk3MxPJMjEk9+a9if7h+leO3H/AB8y/wC+f5162V7y+R5Ga7RI6KWivYPHEopaKAEPQ/SvWdFydEs8/wDPFf5V5Meh+les6L/yBLP/AK4r/KvKzT4Ynq5X8cjz/wAW8+JbrP8As/8AoIrGrZ8W/wDIy3X/AAH/ANBFY9d2G/hR9EcGI/iy9RKKWitzESilooA9C8DH/iQkZOBKwAqp8QSfslkOxlOR68Vb8Df8gI/9dWqp8Qf+PSy/66t/6DXhU/8Affmz3Z/7l8jh6KWivdPCEopaKAErofBBI8QAAkAxNkflXP1v+Cf+RiX/AK5NXPi/4MvQ6ML/ABo+qOx8Tkjw7e4JGUxxXl1eo+J/+Rcvf9z+teXVyZX/AA36nXmn8RegUUtFemeYJRS0UAWtK41ezI4ImXH51632ryTS/wDkLWf/AF2X+det9q8XNPjj6HtZX8EjyLUSTqd0SckytknnPNVqs3//ACErn/rq386r169P4F6HkVPjfqJRS0VZAlFLSUAeqeG/+Rdsf+uQFaYrM8Nf8i9Y/wDXIVpivla38SXqz6uj/Dj6IKZMcQufRTT6jnGYJB6qahbly2PHOTyeSeTS0g6Clr6xbHyL3CiiimAUUUUAJXq2hXf27RbWckFigDY9Rwf1FeVVsaf4nvtMsRa24i2gkhmBJGea4cdh5V4rl3TO3A4hUZvm2Z6dRXmTeLdYbP8ApYA9kXj9KgPiPVj/AMv8v4GuBZZV6tHoPM6XZnqlFeXJ4m1dOl9IfqAasQ+NNXiOXlilHoyAfypSy2qtmmCzOk900ekUda4q18ft8ovLPPHLRN/Q/wCNdBp3iPTtSIWG4Cyf883+U/kev4VzVMLVp/Ejpp4qlU0izWoozRWB0hRRRQAUUUUAI/3D9K8duP8Aj5l/3z/OvYn+4fpXjtx/x8y/75/nXrZXvL5HkZrtEZRRRXsHjhRRRQAh6H6V6zov/IEs/wDriv8AKvJj0P0r1nRf+QJZ/wDXFf5V5WafDE9TK/jkef8Ai3/kZbr/AID/AOgisetjxb/yMt1/wH/0EVj134f+FH0Rw4j+LL1CiiitjEKKKKAPQvA3/IDP/XVqqfEH/j0sv+ujf+g1b8Df8gM/9dWqp8Qf+PSy/wCujf8AoNeFT/335s9yf+5fI4iiiivdPDCiiigArf8ABP8AyMS/9cmrArf8Ef8AIxL/ANcmrnxf8GXodGF/jR9Udj4n/wCRcvf9z+teXV6j4n/5Fy9/3P615dXJlf8ADfqdWafxF6C0UUV6Z5oUUUUAWtL/AOQtZ/8AXZf51632ryTS/wDkLWf/AF2X+det9q8XNPjj6HtZX8EjyK//AOQlc/8AXVv51Xqxf/8AISuf+urfzqvXr0/hXoePU+N+oUUUVZIUlLSUAeqeGv8AkXrH/rkK0xWZ4a/5F6x/65CtOvla38SXqz6qj/Dj6IKRhlSD0IpaKzNTx++hMGoXEJBGyVlAP14qGt3xlZG1195APkuFDg579D/SsKvqaE+empLsfK1oOFRxfcKKKK1MgooooAKKKKACiiigAooooAKT+nIpaKAN/RfF11pzCK7L3Fv05PzL9D3+hrrP+Et0j/n6H/fLf4V5vBC9zPHBGMvIwVR9a77/AIQ2x/2/zrysXRw0ZJyum+x6mFr4lxtDVI6WiiivGPbCiiigBr/cP0rx64/4+Zf98/zr2I1gz+DdKuJ3laOVWkbcQshAzXdgsTCg3zX17HBjcNOuly20POKK9E/4QfSf7s//AH9NH/CD6T/dn/7+mvQ/tKj5nn/2bW8jzuivRP8AhB9J/uz/APf00f8ACD6T/dn/AO/po/tKj5h/ZtbyPOj0P0r1nRf+QLZ/9cU/lWWPA+kgg7JjjnBkPNb8USQxrHGoVFAAA7CuHG4qFdJR6HdgcJOg2521PNPFv/Iy3f8AwH/0EVj16dqPhnTtUuftFwjiQjBKORn61V/4QfSf7s//AH9NdNHMKUaai73SOWtl9WdRyVrNnndFeif8IPpP92f/AL+mj/hB9J/uz/8Af01r/aVHzM/7NreR53RXon/CD6T/AHZ/+/po/wCEH0n+7P8A9/TR/aVHzD+za3kN8Df8gI/9dWqp8QP+PSy/66H/ANBrpbCxg020S2tk2xp2znPuaZqWl22rW/kXSFlByCDgg+xry414rEe1tpc9SWHk8P7JPWx5NRXon/CD6T/dn/7+mj/hB9J/uz/9/TXqf2lR8zy/7NreR53RXon/AAg+k/3Z/wDv6aP+EH0n+7P/AN/TR/aVHzD+za3ked1v+Cf+RiH/AFyaul/4QfSv7s+P+upq7pfh+x0iR5LVG3uMFnbJxWNfH0p03FXuzWhgKtOopO1kN8T/APIu3n+5/WvL69huII7uB4JkDxSLtYHoRWH/AMIPpP8Adn/7+msMFi4UYuMr7nRjcJOtNSied0V6J/wg+k/3Z/8Av6aP+EH0n+7P/wB/TXb/AGlR8zi/s2t5HndFeif8IPpP92f/AL+mj/hB9J/uz/8Af00f2lR8w/s2t5HC6X/yFrP/AK7L/OvW+1Ylp4S0yyukuI45GkjO5d7kgH1rb7V5uNxEa8k49D0cFh50ItStqeRX/wDyErn/AK6t/Oq9ek3fhDS7y5eeSORXkOWCuQCai/4QfSf7s/8A39NehDMaSik7nBPLark2rHndFeif8IPpP92f/v6aP+EH0n+7P/39NV/aVHzJ/s2t5HndJXov/CD6T/dn/wC/po/4QfSf7s//AH9NH9pUfMP7NreRe8N/8i9Y/wDXIVqVDBDHbQJDEoSONQqqOwqavDnLmk33Pcpx5YqPYKKKM+4qSznfGOlm+0ozRrmW3O8Y7juP6/hXnVenah4m0yxDK84lfH+rj+Yn+lea3DxyXMrwxmONmJVCfuj0/Cvcy1zUHGSaXRnhZkoOalFpvqhlFFFekeaFFFFABRRRQAUUUUAFFFFABRRWjomjSa1eiFcrEvMkgH3R/iaic4wi5SdkioQc5KMVds2/BGjmWc6jMvyR5WLPdu5/pXc1Fa28VpbRwQrtjQYUCpq+axFZ1qjk/kfTYeiqNNRW/Ur3l7BYW7TXUqxxqOpP+c1zU/j22VyILWWRR/E2FzXNeINafWL7eAywxjCIf1P1zWXXp0Muhyp1d30PLxGYzcmqeiXU7P8A4WCP+fBv+/lH/CwR/wA+Df8AfyuMorp+oUO34nP9fr9zs/8AhYI/58G/7+Uf8LBH/Pg3/fyuMoo+oUO34h9fr9zs/wDhYI/58G/7+Uf8LBH/AD4N/wB/K4yij6hQ7fiH1+v3Oz/4WCP+fBv+/lH/AAsEf8+Df9/K4yij6hQ7fiH1+v3Oz/4WCP8Anwb/AL+Uf8LBH/Pg3/fyuMoo+oUO34h9fr9zs/8AhYI/58G/7+Uf8LBH/Pg3/fyuMoo+oUO34h9fr9zs/wDhYI/58G/7+Uf8LBH/AD4N/wB/K4yij6hQ7fiH1+v3Oz/4WCP+fBv+/lH/AAsEf8+Df9/K4yij6hQ7fiH1+v3Oz/4WCP8Anwb/AL+Uf8LBH/Pg3/fyuMoo+oUO34h9fr9zs/8AhYI/58G/7+Uf8LBH/Pg3/fyuMoo+oUO34h9fr9zs/wDhYI/58G/7+Uf8LBH/AD4N/wB/K4yij6hQ7fiH1+v3Oz/4WCP+fBv+/lH/AAsEf8+Df9/K4yij6hQ7fiH1+v3Oz/4WCP8Anwb/AL+Uf8LBH/Pg3/fyuMoo+oUO34h9fr9zs/8AhYI/58G/7+Uf8LBH/Pg3/fyuMoo+oUO34h9fr9zs/wDhYI/58G/7+Uf8LBH/AD4N/wB/K4yij6hQ7fiH1+v3Oz/4WCv/AD4N/wB/KP8AhYI/58G/7+VxlFH1Ch2/EPr9fudn/wALBH/Pg3/fyj/hYI/58G/7+VxlFH1Ch2/EPr9fudn/AMLBH/Pg3/fyj/hYI/58G/7+VxlFH1Ch2/EPr9fudn/wsEf8+Df9/KP+Fgj/AJ8G/wC/lcZRR9QodvxD6/X7nZ/8LBH/AD4N/wB/Khf4gTnOywjHoTIT/SuSoprA0F9kHjq7+0b8/jXVZlIRoYc9CiZI/Osm61S9vs/arqWQE/dLYH5dKrUVtChSh8KRhOvUn8TYlLRRWpkFFFFABRRRQAUUUUAFFFJQAtFT2en3eoSbLS3eVu5A4H1Paut0jwOqES6o28jkQoePxPf6D9a562Kp0l7z17G9HDVKr91adzn9E8P3OszKVBjtgfmlI/Qetej6dp1vplqILZdqDqe5PqaniijgjWOJFRFGAqjAFSV4WIxUq77Lse7hsJCgu77hRRRXMdZ4yfvUUHqaK+uPkAooooAKKKKACiiigAooooAKKKKACiiigAooooAKKKKACiiigAooooAKKKKACiiigAooooAKKKKACiiigAooooAKKKKACiiigAooooAKKKKACiiigAooooAKKKKACj+vFFbHhXT/AO0Nbi3LmKH94+fbp+uPyNZ1JqnBzfQulB1JqC6lpPA2pugJeBSRkgsamj8BXx+/cwJ9ATXfUV4bzCu+p7qy6iuhxkPw/H/Le+bP/TNMfzrVtPB+lWpDGEzMO8jZx+Fb1FYzxdae8mbQwlGG0RkcUcKBI0VFHQKMAU+iiufc6dgooooAKKKKAPGn++aSpbuBra6kif7y4z+Wair61NNXR8i007MKKKKYgooooAKKKKACiiigAooooAKKKKACiiigAooooAKKKKACiiigAooooAKKKKACiiigAooooAKKKKACiiigAooooAKKKKACiiigAooooAKKKKACiiigAooooASvRPBemmz0jz5BiS5O85HRe3+P41xOj6e2qanDajO1jlz6KOv+FeroixoqKMKowBXlZnWslTXqz1cso3bqPpoh1FFFeMe0FFFFABRRRQAUUUUAFFFFAHmnjCDyPEU3pIisPyx/SsSuq8fW+zULWcD78ZUn6Hj+Zrla+mwkuajF+X5HzGLjy1pLzCiiiug5wooooAKKKKACiiigAooooAKKKKACiiigAooooAKKKKACiiigAooooAKKKKACiiigAooooAKKKKACiiigAooooAKKKKACiiigAooooAKKKKACiiigAooq5pGntqmpw2q52scuw7KOv+H41M5KEXJ7IqEXKSit2df4I0v7PZPeyLiSfhM9kH+J5/KurpkUSwxrGihVUBQB2Ap9fL1qjqTc31PqKFJUoKKCiiiszUKKKKACiiigAooooAKKKKAOX8eQGTSIZh/yylGfx4rga9V161+16LdxcZMZIyO45/pXlI5ANe7ls70nHszwczhaqpd0LRRRXonnBRRRQAUUUUAFFFFABRRRQAUUUUAFFFFABRRRQAUUUUAFFFFABRRRQAUUUUAFFFFABRRRQAUUUUAFFFFABRRRQAUUUUAFFFFABRRRQAUUUUAFFFFACV6D4M0f7FYfa5VxPcDPPUL2H9a5fwxpB1bU13j/AEeAh5Pf0X8f5V6aAAAB0ryMxxH/AC6j8z1stw//AC9l8haKKK8g9kKKKKACiiigAooooAKKKKACiiigBOteTavaGw1a6t8EBHJXPcHkV6yK4Tx5Y+VewXqj5ZV2MQP4h/iOPwr0MtqctTlfU87MqfNSUl0OVooor3jwQooooAKKKKACiiigAooooAKKKKACiiigAooooAKKKKACiiigAooooAKKKKACiiigAooooAKKKKACiiigAooooAKKKKACiiigAooooAKKKKACnwwyXM6QRLukkbao9TUdd34O0E2sQv7lSJpBhFI+6vr9T/KufE4hUYOXXob4ag681FbdTb0XSk0jTkt05bq7f3m7mtGiivmpScm5Pdn00YqEVFbIKKKKRQUUUUAFFFFABRRRQAUUUUAFFFFABWN4o046jokyIMyR/vE+o/xGR+NbNIcEEHoaqEnCSkuhFSCnFxfU8Zpa0/EOmnS9ZliAxE53x/Q//XyKzK+ppzU4KS2Z8rUg4ScXugoooqyQooooAKKKKACiiigAooooAKKKKACiiigAooooAKKKKACiiigAooooAKKKKACiiigAooooAKKKKACiiigAooooAKKKKACiiigAoorV8P6FLrV4MgraxnMr+v8Asj3/AJVE6kacXKTskXTpupJRirtl3wnoH9pT/a7lT9mib5QR99v8BXoYGBxTIIY7eFIoUCIowqgcAU+vm8RiHWnzPbofSYbDqhDlW4tFFFYHQFFFFABRRRQAUUUUAFFFFABRRRQAUUUUAFFFFAHOeMdIN/pv2iJcz22WGByy9x/WvO69mxnIPQ15j4m0c6TqrCMf6PNl4vb1H4fyr18txGjpS+R42ZUNVVXzMiiiivXPJCiiigAooooAKKKKACiiigAooooAKKKKACiiigAooooAKKKKACiiigAooooAKKKKACiiigAooooAKKKKACiiigAooooAKKK1tD8Pz61KDho7UH5pCOvsPWonUjTTlJ2SLp05VGoxV2xmhaFPrV1tXKW6H95Ljp7D3r0uzs4bC1S3t0CRoOAKLOzhsLZILaMJGgwAKnr57FYqVeXZdEfQ4XCxoR7ti0UUVynWFFFFABRRRQAUUUUAFFFFABRRRQAUUUUAFFFFABRRRQAVm63pUer6c9u/D9Ub+63atKinGTi1JbomUVOLi+p47cW8tpcPDOhSRDhh/X6VHXoXinw6NUgN1bLi6jHQf8tB6f5+leekEEgggg4IIxivpMNiFXhfr1R83isO6E7PbowooorpOYKKKKACiiigAooooAKKKKACiiigAooooAKKKKACiiigAooooAKKKKACiiigAooooAKKKKACiiigAooooAKSpbe2mu51ht4mlkboFH+eK7jQvB0VntuNQAmnGCqD7qf4n9K5q+Jp0V7z17HRQw06z91adzG0DwlJqGLi+DQ22eFxhn/wFd/DDHbwpFEgREGFUDAAp4GMCivBr4ideV5bHv4fDwoq0dxaKKKwOgKKKKACiiigAooooAKKKKACiiigAooooAKKKKACiiigAooooAKKKKACuU8T+Fvtu68sVAuOroOBJ/8AX/nXV0VpSqypS5osyq0Y1Y8sjxplaN2R1ZXU4ZSMEUleka94Yg1dTLGRFdAcSAcH615/f6dc6bcGG7iKN2bs30Pevfw2LhWXZ9j5/E4SdF913K9FFFdZyhRRRQAUUUUAFFFFABRRRQAUUUUAFFFFABRRRQAUUUUAFFFFABRRRQAUUUUAFFFFABRSVsaZ4W1HUsN5fkxH/lpKMfkOp/SonUhTV5uxcKcqjtBXMit7R/CV5qWJJw1tbn+Jh8zfQf1P611uk+FrHSsSbfPnH/LSQdPoO1bQrycRmV9KS+Z6tDLba1X8ijpmkWmlQ+Xaxhc/eb+Jvqav0UV5cpOTu3dnqxioqyVgooopFBRRRQAUUUUAFFFFABRRRQAUUUUAFFFFABRRRQAUUUUAFFFFABRRRQAUUUUAFFFFABVa7s4L+AxXMSSIeoYf5xVmihNp3Qmk1ZnD6r4FkQmTTJN69fKkPI+jf4/rXLXNrcWcnl3ULwv6MMZr2Gobi1huoyk8SSIezDNejRzGpDSeqPOrZdCesNGeP0V3194GsLjc1o72znoB8y/kf6VgXfgvVLYkxLHcJngocH8j/wDXr0aeNoz62fmebUwNaHS68jAoqWe0uLUhbiCWInoGQjNQ11qSaujlaadmLRRRTEFFFFABRRRQAUUUUAFFFFABRRRQAUUUUAFFJ14HJ9uauWukahe4+z2krqeQ23AP4niplOMVeTsVGEpOyVypRXTWngW/mwbmWKBSM4Hzkf0/nW7Z+CtMtsGYPct/00PH5DiuSpj6MOt/Q6qeArT6WXmefwW011II7eJ5WPZBmui0/wAD3tzh7yRbdD/CPmY/4V3cFtDbIEgiSNR2UYqU1wVcym9IK35noUsthHWbuZOm+GtO0whooQ8g/wCWknzH/wCt+Fa/SiivPlOU3eTuehCEYK0VYKKKKksKKKKACiiigAooooAKKKKACiiigAooooAKKKKACiiigAooooAKKKKACiiigAooooAKKKKACiiigAooooAKKKKACiiigBrIrqVZQwPUEVm3Hh3SrrmSyhz6qNv8q1KT8qcZyi7xbREoRkrSVzmLjwJp0gPkyzxMeh3ZAqhN8P5B/qL5T/10T/Cu3pK6I42vH7RzywVCW8Tz2bwNqcf+reCX6MRVaTwhrEf/AC7I3+5IK9MorZZlWW9mZPLaL2ujys+G9XGf9Al/Db/jTDoOqr10+f8ALNer0Vf9p1OyI/sun3Z5N/Yupf8APhP/AN8Uo0PUz0sJ/wDvmvWKKf8Aac/5UL+y4fzM8qHh3Vz0sJvxwKlj8K6xJ/y5Mv8AvMBXqGKKTzOp2Q1ldPuzzdPBWruw3JCoPUmTOP0q5H4BvDjzLqFR3ABOK7yis3mNZ7WXyNFl1FdGzkYfAFuGBmvJXHcKoWr8HgzSIc7oGmz/AM9HJx+Vb2KWsJYqtLeTN44SjHaJTt9LsrTHkWsKEDAIQZ/OrnSj8aKxbb1bNlFJaIKKKKRQUUUUAFFFFABRRRQAUUUUAFFFFABRRRQAUUUUAFFFFABRRRQAUUUUAFFFFABRRRQAUUUUAFFFFABRRRQAUUUUAFFFFABRRRQAUUUUAFFFFABRRRQAUUUUAFFFFABRRRQAUUUUAFFFFABRRRQAUUUUAFFFFABRRRQAUUUUAFFFFABRRRQAUUUUAFFFFABRRRQAUUUUAFFFFABRRRQAUUUUAFFFFABRRRQAUUUUAFFFFABRRRQAUUUUAFFFFABRRRQAUUUUAFFFFABRRRQAUUUUAFFFFABRRRQAUUUUAFFFFABRRRQAUUUUAFFFFABRRRQAUUUUAFFFFABRRRQAUUUUAFFFFABRRRQAUUUUAFFFFABRRRQAUUUUAFFFFABRRRQAUUUUAFFFFABRRRQAUUUUAFFFFABRRRQAUUUUAFFFFABRRRQAUUUUAFFFFABRRRQAUUUUAFFFFABRRRQAUUUUAFFFFABRRRQAUUUUAFFFFABRRRQAUUUUAFFFFABRRRQAUUUUAFFFFABRRRQAUUUUAFFFFABRRRQAUUUUAFFFFABRS0UAJRS0UAJRS0UAJRS0UAJRS0UAJRS0UAJRS0UAJRS0UAJRS0UAJRS0UAJRS0UAJRS0UAJRS0UAJRS0UAJRS0UAJRS0UAJRS0UAJRS0UAJRS0UAJRS0UAJRS0UAJRS0UAJRS0UAJRS0UAJRS0UAJRS0UAJRS0UAJRS0UAJRS0UAJRS0UAf/2Q==;" vertex="1" parent="1">
          <mxGeometry x="356" y="300" width="20" height="20" as="geometry" />
        </mxCell>
        <mxCell id="iRdQwPABQsQ_W9aUvFbF-41" value="" style="shape=image;imageAspect=0;aspect=fixed;verticalLabelPosition=bottom;verticalAlign=top;image=data:image/jpeg,/9j/4AAQSkZJRgABAQEAAAAAAAD/4QAuRXhpZgAATU0AKgAAAAgAAkAAAAMAAAABAAAAAEABAAEAAAABAAAAAAAAAAD/2wBDAAoHBwkHBgoJCAkLCwoMDxkQDw4ODx4WFxIZJCAmJSMgIyIoLTkwKCo2KyIjMkQyNjs9QEBAJjBGS0U+Sjk/QD3/2wBDAQsLCw8NDx0QEB09KSMpPT09PT09PT09PT09PT09PT09PT09PT09PT09PT09PT09PT09PT09PT09PT09PT09PT3/wAARCAHaAdoDASIAAhEBAxEB/8QAHwAAAQUBAQEBAQEAAAAAAAAAAAECAwQFBgcICQoL/8QAtRAAAgEDAwIEAwUFBAQAAAF9AQIDAAQRBRIhMUEGE1FhByJxFDKBkaEII0KxwRVS0fAkM2JyggkKFhcYGRolJicoKSo0NTY3ODk6Q0RFRkdISUpTVFVWV1hZWmNkZWZnaGlqc3R1dnd4eXqDhIWGh4iJipKTlJWWl5iZmqKjpKWmp6ipqrKztLW2t7i5usLDxMXGx8jJytLT1NXW19jZ2uHi4+Tl5ufo6erx8vP09fb3+Pn6/8QAHwEAAwEBAQEBAQEBAQAAAAAAAAECAwQFBgcICQoL/8QAtREAAgECBAQDBAcFBAQAAQJ3AAECAxEEBSExBhJBUQdhcRMiMoEIFEKRobHBCSMzUvAVYnLRChYkNOEl8RcYGRomJygpKjU2Nzg5OkNERUZHSElKU1RVVldYWVpjZGVmZ2hpanN0dXZ3eHl6goOEhYaHiImKkpOUlZaXmJmaoqOkpaanqKmqsrO0tba3uLm6wsPExcbHyMnK0tPU1dbX2Nna4uPk5ebn6Onq8vP09fb3+Pn6/9oADAMBAAIRAxEAPwD2WiiigAooooAKKKKACiiigAooooAKKKKACiiigAooooAKKKKACiiigAooooAKKKKACiiigAooooAKKKKACiiigAooooAKKKKACiiigAooooAKKKKACiiigAooooAKKKKACiiigAooooAKKKKACiiigAooooAKKKKACiiigAooooAKKKKACiiigAooooAKKKKACiiigAooooAKKKKACiiigAooooAKKKKACiiigAooooAKKKKACiiigAooooAKKKKACiiigAooooAKKKKACiiigAooooAKKKKACiiigAooooAKKKKACiiigAooooAKKKKACiiigAooooAKKKKACiiigAooooAKKKKACiiigAooooAKKKKACiiigAooooAKKKKACiiigAooooAKKKKACiiigAooooAKKKKACiiigAooooAKKKKACiiigAooooAKKKKACiiigAooooAKKKKACiiigAooooAKKKKACiiigAooooAKKKKACiiigAooooAKKKKACiiigAooooAKKKKACiiigAooooAKKKKACiiigAooooAKKKKACiiigAooooAKKKKACiiigAooooAKKKKACiiigAooooAKKKKACiiigAooooAKKKKACiiigAooooAKKKKACiiigAooooAKKKKACiiigAooooAKKKKACiiigAooooAKKKKACiiigAooooAKKKKACiiigCpqV4unWE10ylvKXdtHeuLPjy/ycW8AHpzXU+KP+RcvP9z+teXV6uX4enUg3NXdzycwxFSnNKDsjqP+E9v/APn3g/Wj/hPb/wD594P1rmKK7/qVH+U8/wCuV/5mdP8A8J7f/wDPvB+tH/Ce3/8Az7wfrXMUUfUqP8ofXK/8zOw0zxtc3GoQQXNvHslYISpORnoa7WvJNL/5C1n/ANdl/nXrg6V5WYUYUprkVro9XL606sXzO9gooorgPRCiiigAooooAKKKKACiiigAooooAKKKKACiiigAooooAKKKKACiiigAooooAKKKKACiiigAooooAKKKKACiiigAooooAKKKKACiiigAooooAKKKKACiiigAooooAKKKKACiiigDJ8T/APIuXv8Auf1ry6vUfE//ACLl7/uf1ry6vbyv+G/U8LNP4i9BaKKK9M80KKKKALWl/wDIWs/+uy/zr1vtXkml/wDIWs/+uy/zr1vtXi5p8cfQ9rK/hkLRRRXlnqhRRRQAUUUUAFFFFABRRRQAUUUUAFFFFABRRRQAUUUUAFFFFABRRRQAUUUUAFFFFABRRRQAUUUUAFFFFABRRRQAUUUUAFFFFABRRRQAUUUUAFFFFABRRRQAUUUUAFFFFABRRRQBk+KP+RcvP9z+teXV6rr9vJd6HdQwqWkZPlA715l/Z96OtncfjGa9nLJxUGm+p4uZQk6iaXQgoqf+z7z/AJ9Lj/v2aP7PvP8An0uP+/Zr0vaR7nm+zn2ZBRU/9n3n/Ppcf9+zR/Z95/z6XH/fs0e0j3D2c+zH6X/yFrP/AK7L/OvXBXluj6Xevq9r/oswCyqzMyEAAHPevURXjZlKMpxs+h7OWRcYSuuotFFFeaemFFFFABRRRQAUUUUAFFFFABRRRQAUUUUAFFFFABRRRQAUUUUAFFFFABRRRQAUUUUAFFFFABRRRQAUUUUAFFFFABRRRQAUUUUAJmjNeeeLNUvF12aBLmRIowoVUbHbJ/Gsb+0rz/n7n/7+GvRpZdOcVK6V1c82pmUac3GzdmeufjR+NeR/2lef8/c//fw0f2lef8/c/wD38NX/AGXL+ZGf9qR/lPXPxo/GvI/7SvP+fuf/AL+Gj+0r3/n7n/7+Gj+y5fzIP7Uj/Keu0ZrC8I3s99oivcuZJEcpuPUgevvVTxvf3FlYW628rRebIQzKcHAFcKoSdX2XW9jveISpe16WudP+NH415H/aV5/z9z/9/DR/aV5/z9z/APfw13f2XL+ZHB/asf5T1z8aPxryP+0rz/n7n/7+Gj+0rz/n7n/7+Gj+y5fzIP7Uj/Keu5pPpXkf9pXn/P3P/wB/DXQ+DNTvJdXa2mnkkjaMttc5AIPas62Xypwc7p2NKWYxqTULNXO8pvHfFUNeupbPRbqeE7ZFQ7W9D615mdTviSTeTkk8kyHmssNhJV02naxricZGg1Fq9z1yj8a8j/tK8/5+5/8Av4aP7SvP+fuf/v4a6v7Ln/Mc39qR/lPXPxo/GvI/7SvP+fuf/v4aP7SvP+fuf/v4aP7Ln/MH9qQ/lPXBjtilry7R9Wvo9Xtv9KlZWkVWVmyGBNeoD1rixOHlQkk3c7cNiVXi2lYWiiiuc6QooooAKKKKACiiigAooooAKKKKACiiigAooooAKKKKACiiigAooooAKKKKACiiigAooooAKKKKACiiigAooooAKKKKACiiigDzHxb/AMjLd/8AAf8A0EVj1seLf+Rlu/8AgP8A6CKx6+ow/wDCj6I+WxH8WXqFFFFbGIUUUUAeheBv+QGf+urVU+IP/HpZf9dG/wDQat+Bv+QGf+urVU+IP/HpZf8AXRv/AEGvCp/7782e5P8A3L5HEUUUV7p4YUUUUAFb/gj/AJGJf+uTVgVv+Cf+RiX/AK5NXPi/4MvQ6ML/ABo+qOx8T/8AIuXv+5/WvLq9R8T/APIuXv8Auf1ry6uTK/4b9TqzT+IvQWiiivTPNCiiigC1pf8AyFrP/rsv869bryTS/wDkLWf/AF2X+det9q8XNPjj6HtZX8MhaKKK8s9UKKKKACiiigAooooAKKKKACkyAMmlrmPGWtNY2gs7dsTzjkg8qvc/U9PzrSlTdSaiuplWqKlByZdtfFOm3d69ss2x1bapcYV/oa2eteM10GheKrnTGWK4LT2uehOWT6e3tXo18taV6bv5HnUMyu7VFbzPR6Kr2d5Bf26z28iyRsOCKsV5TTTsz1U01dBRRRQMKKKKACiiigAooooAKKKKACiiigAooooAKKKKACiiigAooooAKKKKAPMfFv8AyMt3/wAB/wDQRWPWx4t/5GW7/wCA/wDoIrHr6jD/AMKPoj5bEfxZeoUUUVsYhRRRQB6F4G/5AZ/66tVT4g/8ell/10b/ANBq34G/5AZ/66tVT4g/8ell/wBdG/8AQa8Kn/vvzZ7k/wDcvkcRRRRXunhhRRRQAVv+Cf8AkYl/65NWBW/4I/5GJf8Ark1c+L/gy9Dowv8AGj6o7HxP/wAi5e/7n9a8ur1HxP8A8i5e/wC5/WvLq5Mr/hv1OrNP4i9BaKKK9M80KKKKALWl/wDIWs/+uy/zr1vtXkml/wDIWs/+uy/zr1uvFzT44+h7WV/DIWiiivLPVCiiigAooooAKKKKACiiigCOaZLeJ5ZDhEUsx9hXk2p376lqE13J1kbKj+6vYflXbeOL82+lLbIcNcNg4/ujk/0rgK9nLKNouo93ojxMyrXkqa2W4UUUV6p5ZpaJrc+i3W9MvC5/eR5+97j0Nel2N7BqFqlxbMHjccH/ABryKtzwvrraTeiKVv8ARJjh8/wn+9XnY3CKonUgtV+J6OCxbptQm9H+B6VRSAhgCOQaWvCPeCiiigAooooAKKKKACiiigAooooAKKKKACikFZ1xr+mWsrRTXcauvDLnJFOMXLSKuTKcYq8nY0qKyv8AhKNI/wCf6P8AI0f8JRpH/P8AR/kav2NT+V/cR7an/MjVorK/4SjSP+f6P8jR/wAJRpH/AD/R/kaPY1P5X9we2p/zI1Pypayl8S6S7hRexZJwM8VqBgwBHINTKEofErFRnGfwu5yOv+ELrUdUku7aaICQDKvnIIGKzP8AhBdR/wCe1v8Ama7S91ix05gl3cxxuRkKTzVc+KNIP/L7H+tdlPE4lRSirpbaHDUwuGc25PV+Zyn/AAgmpf8APa2/M0f8IJqX/Pa2/M11f/CUaR/z+x/rR/wlGkf8/sf61p9axfb8CPqmE7/icp/wgmpf89rb8zR/wgmpf89rb8zXV/8ACUaR/wA/sf60f8JRpH/P7H+tH1rF9vwD6phO/wCI7w/pTaNpi2zyB5CxZmA4yfT2qDxNob65ZxJDKI5Im3Lu6HtzWtBPFcwrLC6yRsMqynINNuruCygMtzKsSA4yxxXEqk1V51udrpU3S5H8Jwv/AAgmpf8APa2/M0f8IJqX/Pa2/M11f/CUaR/z+x/rR/wlGkf8/sf612/WsX2/A4vqmE7/AInKf8IJqX/Pa2/M0f8ACCal/wA9rb8zXV/8JRpH/P7H+tH/AAlGkf8AP7H+tH1rF9vwD6phO/4nJ/8ACCal/wA9rf8AM1s+G/C02k3r3V1KjNt2oqZwPXOa0/8AhJ9I/wCf2P8AWrNlqllqBYWlwkpXqAeR+FZ1cTiJQanon5GlLDYaM04u7XmLqdiNR06a1LbfMUrux0riv+ED1L/ntbH3BP8AhXfO6ohZiFUckntWafE2kAkfbouOOMms8PWrU7qmvwua4ihRqNOo7P1OT/4QTUv+e1t+Zo/4QTUv+e1t+Zrq/wDhKNI/5/Y/1o/4SjSP+f2P9a6PrWL7fgc31TCd/wATlP8AhBNS/wCe1t+Zo/4QTUv+e1t+Zrq/+Eo0j/n9j/Wj/hKNI/5/Y/1o+tYvt+AfVMJ3/E53TfBN5b6hBPPND5cbhyEyScdBXbis+113TryURQXUbyHoueTWjXJiKtSpL95udmHpUqa/dvQKKzrnXtNs5TFcXcaSDqvcVF/wlGkf8/0f5Gs1Sm1dRf3FutTTs5I1qKyv+Eo0j/n+j/I0f8JRpH/P9H+Rp+xqfyv7g9tT/mRq0Vlf8JRpH/P9H+RoHibSCQPt0XPHOaPY1P5X9we2p/zI1aKRWDqGUgqehFLWZqFFFB6GgDzfxnd/adfaMHKwIEA9CeT/AErBqzqczXOp3UpOS0rYPqM/4YqtX1OHhyU4x8j5WvPnqOXmFFFFamQUlLRQB6B4L1f7dYG0mbM1tgAn+Je3+FdNmvKtAvzp2s28+fkZtj/7p4/Tg16p1xXzuPoqnUutnqfQ4Cs6lKz3QtFFFcZ3BRRRQAUUUUAFFFFABRRRQAUUUUAI33TXjtxk3MxPJMjEk9+a9if7h+leO3H/AB8y/wC+f5162V7y+R5Ga7RI6KWivYPHEopaKAEPQ/SvWdFydEs8/wDPFf5V5Meh+les6L/yBLP/AK4r/KvKzT4Ynq5X8cjz/wAW8+JbrP8As/8AoIrGrZ8W/wDIy3X/AAH/ANBFY9d2G/hR9EcGI/iy9RKKWitzESilooA9C8DH/iQkZOBKwAqp8QSfslkOxlOR68Vb8Df8gI/9dWqp8Qf+PSy/66t/6DXhU/8Affmz3Z/7l8jh6KWivdPCEopaKAErofBBI8QAAkAxNkflXP1v+Cf+RiX/AK5NXPi/4MvQ6ML/ABo+qOx8Tkjw7e4JGUxxXl1eo+J/+Rcvf9z+teXVyZX/AA36nXmn8RegUUtFemeYJRS0UAWtK41ezI4ImXH51632ryTS/wDkLWf/AF2X+det9q8XNPjj6HtZX8EjyLUSTqd0SckytknnPNVqs3//ACErn/rq386r169P4F6HkVPjfqJRS0VZAlFLSUAeqeG/+Rdsf+uQFaYrM8Nf8i9Y/wDXIVpivla38SXqz6uj/Dj6IKZMcQufRTT6jnGYJB6qahbly2PHOTyeSeTS0g6Clr6xbHyL3CiiimAUUUUAJXq2hXf27RbWckFigDY9Rwf1FeVVsaf4nvtMsRa24i2gkhmBJGea4cdh5V4rl3TO3A4hUZvm2Z6dRXmTeLdYbP8ApYA9kXj9KgPiPVj/AMv8v4GuBZZV6tHoPM6XZnqlFeXJ4m1dOl9IfqAasQ+NNXiOXlilHoyAfypSy2qtmmCzOk900ekUda4q18ft8ovLPPHLRN/Q/wCNdBp3iPTtSIWG4Cyf883+U/kev4VzVMLVp/Ejpp4qlU0izWoozRWB0hRRRQAUUUUAI/3D9K8duP8Aj5l/3z/OvYn+4fpXjtx/x8y/75/nXrZXvL5HkZrtEZRRRXsHjhRRRQAh6H6V6zov/IEs/wDriv8AKvJj0P0r1nRf+QJZ/wDXFf5V5WafDE9TK/jkef8Ai3/kZbr/AID/AOgisetjxb/yMt1/wH/0EVj134f+FH0Rw4j+LL1CiiitjEKKKKAPQvA3/IDP/XVqqfEH/j0sv+ujf+g1b8Df8gM/9dWqp8Qf+PSy/wCujf8AoNeFT/335s9yf+5fI4iiiivdPDCiiigArf8ABP8AyMS/9cmrArf8Ef8AIxL/ANcmrnxf8GXodGF/jR9Udj4n/wCRcvf9z+teXV6j4n/5Fy9/3P615dXJlf8ADfqdWafxF6C0UUV6Z5oUUUUAWtL/AOQtZ/8AXZf51632ryTS/wDkLWf/AF2X+det9q8XNPjj6HtZX8EjyK//AOQlc/8AXVv51Xqxf/8AISuf+urfzqvXr0/hXoePU+N+oUUUVZIUlLSUAeqeGv8AkXrH/rkK0xWZ4a/5F6x/65CtOvla38SXqz6qj/Dj6IKRhlSD0IpaKzNTx++hMGoXEJBGyVlAP14qGt3xlZG1195APkuFDg579D/SsKvqaE+empLsfK1oOFRxfcKKKK1MgooooAKKKKACiiigAooooAKT+nIpaKAN/RfF11pzCK7L3Fv05PzL9D3+hrrP+Et0j/n6H/fLf4V5vBC9zPHBGMvIwVR9a77/AIQ2x/2/zrysXRw0ZJyum+x6mFr4lxtDVI6WiiivGPbCiiigBr/cP0rx64/4+Zf98/zr2I1gz+DdKuJ3laOVWkbcQshAzXdgsTCg3zX17HBjcNOuly20POKK9E/4QfSf7s//AH9NH/CD6T/dn/7+mvQ/tKj5nn/2bW8jzuivRP8AhB9J/uz/APf00f8ACD6T/dn/AO/po/tKj5h/ZtbyPOj0P0r1nRf+QLZ/9cU/lWWPA+kgg7JjjnBkPNb8USQxrHGoVFAAA7CuHG4qFdJR6HdgcJOg2521PNPFv/Iy3f8AwH/0EVj16dqPhnTtUuftFwjiQjBKORn61V/4QfSf7s//AH9NdNHMKUaai73SOWtl9WdRyVrNnndFeif8IPpP92f/AL+mj/hB9J/uz/8Af01r/aVHzM/7NreR53RXon/CD6T/AHZ/+/po/wCEH0n+7P8A9/TR/aVHzD+za3kN8Df8gI/9dWqp8QP+PSy/66H/ANBrpbCxg020S2tk2xp2znPuaZqWl22rW/kXSFlByCDgg+xry414rEe1tpc9SWHk8P7JPWx5NRXon/CD6T/dn/7+mj/hB9J/uz/9/TXqf2lR8zy/7NreR53RXon/AAg+k/3Z/wDv6aP+EH0n+7P/AN/TR/aVHzD+za3ked1v+Cf+RiH/AFyaul/4QfSv7s+P+upq7pfh+x0iR5LVG3uMFnbJxWNfH0p03FXuzWhgKtOopO1kN8T/APIu3n+5/WvL69huII7uB4JkDxSLtYHoRWH/AMIPpP8Adn/7+msMFi4UYuMr7nRjcJOtNSied0V6J/wg+k/3Z/8Av6aP+EH0n+7P/wB/TXb/AGlR8zi/s2t5HndFeif8IPpP92f/AL+mj/hB9J/uz/8Af00f2lR8w/s2t5HC6X/yFrP/AK7L/OvW+1Ylp4S0yyukuI45GkjO5d7kgH1rb7V5uNxEa8k49D0cFh50ItStqeRX/wDyErn/AK6t/Oq9ek3fhDS7y5eeSORXkOWCuQCai/4QfSf7s/8A39NehDMaSik7nBPLark2rHndFeif8IPpP92f/v6aP+EH0n+7P/39NV/aVHzJ/s2t5HndJXov/CD6T/dn/wC/po/4QfSf7s//AH9NH9pUfMP7NreRe8N/8i9Y/wDXIVqVDBDHbQJDEoSONQqqOwqavDnLmk33Pcpx5YqPYKKKM+4qSznfGOlm+0ozRrmW3O8Y7juP6/hXnVenah4m0yxDK84lfH+rj+Yn+lea3DxyXMrwxmONmJVCfuj0/Cvcy1zUHGSaXRnhZkoOalFpvqhlFFFekeaFFFFABRRRQAUUUUAFFFFABRRWjomjSa1eiFcrEvMkgH3R/iaic4wi5SdkioQc5KMVds2/BGjmWc6jMvyR5WLPdu5/pXc1Fa28VpbRwQrtjQYUCpq+axFZ1qjk/kfTYeiqNNRW/Ur3l7BYW7TXUqxxqOpP+c1zU/j22VyILWWRR/E2FzXNeINafWL7eAywxjCIf1P1zWXXp0Muhyp1d30PLxGYzcmqeiXU7P8A4WCP+fBv+/lH/CwR/wA+Df8AfyuMorp+oUO34nP9fr9zs/8AhYI/58G/7+Uf8LBH/Pg3/fyuMoo+oUO34h9fr9zs/wDhYI/58G/7+Uf8LBH/AD4N/wB/K4yij6hQ7fiH1+v3Oz/4WCP+fBv+/lH/AAsEf8+Df9/K4yij6hQ7fiH1+v3Oz/4WCP8Anwb/AL+Uf8LBH/Pg3/fyuMoo+oUO34h9fr9zs/8AhYI/58G/7+Uf8LBH/Pg3/fyuMoo+oUO34h9fr9zs/wDhYI/58G/7+Uf8LBH/AD4N/wB/K4yij6hQ7fiH1+v3Oz/4WCP+fBv+/lH/AAsEf8+Df9/K4yij6hQ7fiH1+v3Oz/4WCP8Anwb/AL+Uf8LBH/Pg3/fyuMoo+oUO34h9fr9zs/8AhYI/58G/7+Uf8LBH/Pg3/fyuMoo+oUO34h9fr9zs/wDhYI/58G/7+Uf8LBH/AD4N/wB/K4yij6hQ7fiH1+v3Oz/4WCP+fBv+/lH/AAsEf8+Df9/K4yij6hQ7fiH1+v3Oz/4WCP8Anwb/AL+Uf8LBH/Pg3/fyuMoo+oUO34h9fr9zs/8AhYI/58G/7+Uf8LBH/Pg3/fyuMoo+oUO34h9fr9zs/wDhYI/58G/7+Uf8LBH/AD4N/wB/K4yij6hQ7fiH1+v3Oz/4WCv/AD4N/wB/KP8AhYI/58G/7+VxlFH1Ch2/EPr9fudn/wALBH/Pg3/fyj/hYI/58G/7+VxlFH1Ch2/EPr9fudn/AMLBH/Pg3/fyj/hYI/58G/7+VxlFH1Ch2/EPr9fudn/wsEf8+Df9/KP+Fgj/AJ8G/wC/lcZRR9QodvxD6/X7nZ/8LBH/AD4N/wB/Khf4gTnOywjHoTIT/SuSoprA0F9kHjq7+0b8/jXVZlIRoYc9CiZI/Osm61S9vs/arqWQE/dLYH5dKrUVtChSh8KRhOvUn8TYlLRRWpkFFFFABRRRQAUUUUAFFFJQAtFT2en3eoSbLS3eVu5A4H1Paut0jwOqES6o28jkQoePxPf6D9a562Kp0l7z17G9HDVKr91adzn9E8P3OszKVBjtgfmlI/Qetej6dp1vplqILZdqDqe5PqaniijgjWOJFRFGAqjAFSV4WIxUq77Lse7hsJCgu77hRRRXMdZ4yfvUUHqaK+uPkAooooAKKKKACiiigAooooAKKKKACiiigAooooAKKKKACiiigAooooAKKKKACiiigAooooAKKKKACiiigAooooAKKKKACiiigAooooAKKKKACiiigAooooAKKKKACj+vFFbHhXT/AO0Nbi3LmKH94+fbp+uPyNZ1JqnBzfQulB1JqC6lpPA2pugJeBSRkgsamj8BXx+/cwJ9ATXfUV4bzCu+p7qy6iuhxkPw/H/Le+bP/TNMfzrVtPB+lWpDGEzMO8jZx+Fb1FYzxdae8mbQwlGG0RkcUcKBI0VFHQKMAU+iiufc6dgooooAKKKKAPGn++aSpbuBra6kif7y4z+Wair61NNXR8i007MKKKKYgooooAKKKKACiiigAooooAKKKKACiiigAooooAKKKKACiiigAooooAKKKKACiiigAooooAKKKKACiiigAooooAKKKKACiiigAooooAKKKKACiiigAooooASvRPBemmz0jz5BiS5O85HRe3+P41xOj6e2qanDajO1jlz6KOv+FeroixoqKMKowBXlZnWslTXqz1cso3bqPpoh1FFFeMe0FFFFABRRRQAUUUUAFFFFAHmnjCDyPEU3pIisPyx/SsSuq8fW+zULWcD78ZUn6Hj+Zrla+mwkuajF+X5HzGLjy1pLzCiiiug5wooooAKKKKACiiigAooooAKKKKACiiigAooooAKKKKACiiigAooooAKKKKACiiigAooooAKKKKACiiigAooooAKKKKACiiigAooooAKKKKACiiigAooq5pGntqmpw2q52scuw7KOv+H41M5KEXJ7IqEXKSit2df4I0v7PZPeyLiSfhM9kH+J5/KurpkUSwxrGihVUBQB2Ap9fL1qjqTc31PqKFJUoKKCiiiszUKKKKACiiigAooooAKKKKAOX8eQGTSIZh/yylGfx4rga9V161+16LdxcZMZIyO45/pXlI5ANe7ls70nHszwczhaqpd0LRRRXonnBRRRQAUUUUAFFFFABRRRQAUUUUAFFFFABRRRQAUUUUAFFFFABRRRQAUUUUAFFFFABRRRQAUUUUAFFFFABRRRQAUUUUAFFFFABRRRQAUUUUAFFFFACV6D4M0f7FYfa5VxPcDPPUL2H9a5fwxpB1bU13j/AEeAh5Pf0X8f5V6aAAAB0ryMxxH/AC6j8z1stw//AC9l8haKKK8g9kKKKKACiiigAooooAKKKKACiiigBOteTavaGw1a6t8EBHJXPcHkV6yK4Tx5Y+VewXqj5ZV2MQP4h/iOPwr0MtqctTlfU87MqfNSUl0OVooor3jwQooooAKKKKACiiigAooooAKKKKACiiigAooooAKKKKACiiigAooooAKKKKACiiigAooooAKKKKACiiigAooooAKKKKACiiigAooooAKKKKACnwwyXM6QRLukkbao9TUdd34O0E2sQv7lSJpBhFI+6vr9T/KufE4hUYOXXob4ag681FbdTb0XSk0jTkt05bq7f3m7mtGiivmpScm5Pdn00YqEVFbIKKKKRQUUUUAFFFFABRRRQAUUUUAFFFFABWN4o046jokyIMyR/vE+o/xGR+NbNIcEEHoaqEnCSkuhFSCnFxfU8Zpa0/EOmnS9ZliAxE53x/Q//XyKzK+ppzU4KS2Z8rUg4ScXugoooqyQooooAKKKKACiiigAooooAKKKKACiiigAooooAKKKKACiiigAooooAKKKKACiiigAooooAKKKKACiiigAooooAKKKKACiiigAoorV8P6FLrV4MgraxnMr+v8Asj3/AJVE6kacXKTskXTpupJRirtl3wnoH9pT/a7lT9mib5QR99v8BXoYGBxTIIY7eFIoUCIowqgcAU+vm8RiHWnzPbofSYbDqhDlW4tFFFYHQFFFFABRRRQAUUUUAFFFFABRRRQAUUUUAFFFFAHOeMdIN/pv2iJcz22WGByy9x/WvO69mxnIPQ15j4m0c6TqrCMf6PNl4vb1H4fyr18txGjpS+R42ZUNVVXzMiiiivXPJCiiigAooooAKKKKACiiigAooooAKKKKACiiigAooooAKKKKACiiigAooooAKKKKACiiigAooooAKKKKACiiigAooooAKKK1tD8Pz61KDho7UH5pCOvsPWonUjTTlJ2SLp05VGoxV2xmhaFPrV1tXKW6H95Ljp7D3r0uzs4bC1S3t0CRoOAKLOzhsLZILaMJGgwAKnr57FYqVeXZdEfQ4XCxoR7ti0UUVynWFFFFABRRRQAUUUUAFFFFABRRRQAUUUUAFFFFABRRRQAVm63pUer6c9u/D9Ub+63atKinGTi1JbomUVOLi+p47cW8tpcPDOhSRDhh/X6VHXoXinw6NUgN1bLi6jHQf8tB6f5+leekEEgggg4IIxivpMNiFXhfr1R83isO6E7PbowooorpOYKKKKACiiigAooooAKKKKACiiigAooooAKKKKACiiigAooooAKKKKACiiigAooooAKKKKACiiigAooooAKSpbe2mu51ht4mlkboFH+eK7jQvB0VntuNQAmnGCqD7qf4n9K5q+Jp0V7z17HRQw06z91adzG0DwlJqGLi+DQ22eFxhn/wFd/DDHbwpFEgREGFUDAAp4GMCivBr4ideV5bHv4fDwoq0dxaKKKwOgKKKKACiiigAooooAKKKKACiiigAooooAKKKKACiiigAooooAKKKKACuU8T+Fvtu68sVAuOroOBJ/8AX/nXV0VpSqypS5osyq0Y1Y8sjxplaN2R1ZXU4ZSMEUleka94Yg1dTLGRFdAcSAcH615/f6dc6bcGG7iKN2bs30Pevfw2LhWXZ9j5/E4SdF913K9FFFdZyhRRRQAUUUUAFFFFABRRRQAUUUUAFFFFABRRRQAUUUUAFFFFABRRRQAUUUUAFFFFABRSVsaZ4W1HUsN5fkxH/lpKMfkOp/SonUhTV5uxcKcqjtBXMit7R/CV5qWJJw1tbn+Jh8zfQf1P611uk+FrHSsSbfPnH/LSQdPoO1bQrycRmV9KS+Z6tDLba1X8ijpmkWmlQ+Xaxhc/eb+Jvqav0UV5cpOTu3dnqxioqyVgooopFBRRRQAUUUUAFFFFABRRRQAUUUUAFFFFABRRRQAUUUUAFFFFABRRRQAUUUUAFFFFABVa7s4L+AxXMSSIeoYf5xVmihNp3Qmk1ZnD6r4FkQmTTJN69fKkPI+jf4/rXLXNrcWcnl3ULwv6MMZr2Gobi1huoyk8SSIezDNejRzGpDSeqPOrZdCesNGeP0V3194GsLjc1o72znoB8y/kf6VgXfgvVLYkxLHcJngocH8j/wDXr0aeNoz62fmebUwNaHS68jAoqWe0uLUhbiCWInoGQjNQ11qSaujlaadmLRRRTEFFFFABRRRQAUUUUAFFFFABRRRQAUUUUAFFJ14HJ9uauWukahe4+z2krqeQ23AP4niplOMVeTsVGEpOyVypRXTWngW/mwbmWKBSM4Hzkf0/nW7Z+CtMtsGYPct/00PH5DiuSpj6MOt/Q6qeArT6WXmefwW011II7eJ5WPZBmui0/wAD3tzh7yRbdD/CPmY/4V3cFtDbIEgiSNR2UYqU1wVcym9IK35noUsthHWbuZOm+GtO0whooQ8g/wCWknzH/wCt+Fa/SiivPlOU3eTuehCEYK0VYKKKKksKKKKACiiigAooooAKKKKACiiigAooooAKKKKACiiigAooooAKKKKACiiigAooooAKKKKACiiigAooooAKKKKACiiigBrIrqVZQwPUEVm3Hh3SrrmSyhz6qNv8q1KT8qcZyi7xbREoRkrSVzmLjwJp0gPkyzxMeh3ZAqhN8P5B/qL5T/10T/Cu3pK6I42vH7RzywVCW8Tz2bwNqcf+reCX6MRVaTwhrEf/AC7I3+5IK9MorZZlWW9mZPLaL2ujys+G9XGf9Al/Db/jTDoOqr10+f8ALNer0Vf9p1OyI/sun3Z5N/Yupf8APhP/AN8Uo0PUz0sJ/wDvmvWKKf8Aac/5UL+y4fzM8qHh3Vz0sJvxwKlj8K6xJ/y5Mv8AvMBXqGKKTzOp2Q1ldPuzzdPBWruw3JCoPUmTOP0q5H4BvDjzLqFR3ABOK7yis3mNZ7WXyNFl1FdGzkYfAFuGBmvJXHcKoWr8HgzSIc7oGmz/AM9HJx+Vb2KWsJYqtLeTN44SjHaJTt9LsrTHkWsKEDAIQZ/OrnSj8aKxbb1bNlFJaIKKKKRQUUUUAFFFFABRRRQAUUUUAFFFFABRRRQAUUUUAFFFFABRRRQAUUUUAFFFFABRRRQAUUUUAFFFFABRRRQAUUUUAFFFFABRRRQAUUUUAFFFFABRRRQAUUUUAFFFFABRRRQAUUUUAFFFFABRRRQAUUUUAFFFFABRRRQAUUUUAFFFFABRRRQAUUUUAFFFFABRRRQAUUUUAFFFFABRRRQAUUUUAFFFFABRRRQAUUUUAFFFFABRRRQAUUUUAFFFFABRRRQAUUUUAFFFFABRRRQAUUUUAFFFFABRRRQAUUUUAFFFFABRRRQAUUUUAFFFFABRRRQAUUUUAFFFFABRRRQAUUUUAFFFFABRRRQAUUUUAFFFFABRRRQAUUUUAFFFFABRRRQAUUUUAFFFFABRRRQAUUUUAFFFFABRRRQAUUUUAFFFFABRRRQAUUUUAFFFFABRRRQAUUUUAFFFFABRRRQAUUUUAFFFFABRRRQAUUUUAFFFFABRRRQAUUUUAFFFFABRRRQAUUUUAFFFFABRRRQAUUUUAFFFFABRRRQAUUUUAFFFFABRS0UAJRS0UAJRS0UAJRS0UAJRS0UAJRS0UAJRS0UAJRS0UAJRS0UAJRS0UAJRS0UAJRS0UAJRS0UAJRS0UAJRS0UAJRS0UAJRS0UAJRS0UAJRS0UAJRS0UAJRS0UAJRS0UAJRS0UAJRS0UAJRS0UAJRS0UAJRS0UAJRS0UAJRS0UAJRS0UAf/2Q==;" vertex="1" parent="1">
          <mxGeometry x="356" y="370" width="20" height="20" as="geometry" />
        </mxCell>
        <mxCell id="iRdQwPABQsQ_W9aUvFbF-42" value="" style="shape=image;imageAspect=0;aspect=fixed;verticalLabelPosition=bottom;verticalAlign=top;image=data:image/jpeg,/9j/4AAQSkZJRgABAQEAAAAAAAD/4QAuRXhpZgAATU0AKgAAAAgAAkAAAAMAAAABAAAAAEABAAEAAAABAAAAAAAAAAD/2wBDAAoHBwkHBgoJCAkLCwoMDxkQDw4ODx4WFxIZJCAmJSMgIyIoLTkwKCo2KyIjMkQyNjs9QEBAJjBGS0U+Sjk/QD3/2wBDAQsLCw8NDx0QEB09KSMpPT09PT09PT09PT09PT09PT09PT09PT09PT09PT09PT09PT09PT09PT09PT09PT09PT3/wAARCAHaAdoDASIAAhEBAxEB/8QAHwAAAQUBAQEBAQEAAAAAAAAAAAECAwQFBgcICQoL/8QAtRAAAgEDAwIEAwUFBAQAAAF9AQIDAAQRBRIhMUEGE1FhByJxFDKBkaEII0KxwRVS0fAkM2JyggkKFhcYGRolJicoKSo0NTY3ODk6Q0RFRkdISUpTVFVWV1hZWmNkZWZnaGlqc3R1dnd4eXqDhIWGh4iJipKTlJWWl5iZmqKjpKWmp6ipqrKztLW2t7i5usLDxMXGx8jJytLT1NXW19jZ2uHi4+Tl5ufo6erx8vP09fb3+Pn6/8QAHwEAAwEBAQEBAQEBAQAAAAAAAAECAwQFBgcICQoL/8QAtREAAgECBAQDBAcFBAQAAQJ3AAECAxEEBSExBhJBUQdhcRMiMoEIFEKRobHBCSMzUvAVYnLRChYkNOEl8RcYGRomJygpKjU2Nzg5OkNERUZHSElKU1RVVldYWVpjZGVmZ2hpanN0dXZ3eHl6goOEhYaHiImKkpOUlZaXmJmaoqOkpaanqKmqsrO0tba3uLm6wsPExcbHyMnK0tPU1dbX2Nna4uPk5ebn6Onq8vP09fb3+Pn6/9oADAMBAAIRAxEAPwD2WiiigAooooAKKKKACiiigAooooAKKKKACiiigAooooAKKKKACiiigAooooAKKKKACiiigAooooAKKKKACiiigAooooAKKKKACiiigAooooAKKKKACiiigAooooAKKKKACiiigAooooAKKKKACiiigAooooAKKKKACiiigAooooAKKKKACiiigAooooAKKKKACiiigAooooAKKKKACiiigAooooAKKKKACiiigAooooAKKKKACiiigAooooAKKKKACiiigAooooAKKKKACiiigAooooAKKKKACiiigAooooAKKKKACiiigAooooAKKKKACiiigAooooAKKKKACiiigAooooAKKKKACiiigAooooAKKKKACiiigAooooAKKKKACiiigAooooAKKKKACiiigAooooAKKKKACiiigAooooAKKKKACiiigAooooAKKKKACiiigAooooAKKKKACiiigAooooAKKKKACiiigAooooAKKKKACiiigAooooAKKKKACiiigAooooAKKKKACiiigAooooAKKKKACiiigAooooAKKKKACiiigAooooAKKKKACiiigAooooAKKKKACiiigAooooAKKKKACiiigAooooAKKKKACiiigAooooAKKKKACiiigAooooAKKKKACiiigAooooAKKKKACiiigAooooAKKKKACiiigAooooAKKKKACiiigCpqV4unWE10ylvKXdtHeuLPjy/ycW8AHpzXU+KP+RcvP9z+teXV6uX4enUg3NXdzycwxFSnNKDsjqP+E9v/APn3g/Wj/hPb/wD594P1rmKK7/qVH+U8/wCuV/5mdP8A8J7f/wDPvB+tH/Ce3/8Az7wfrXMUUfUqP8ofXK/8zOw0zxtc3GoQQXNvHslYISpORnoa7WvJNL/5C1n/ANdl/nXrg6V5WYUYUprkVro9XL606sXzO9gooorgPRCiiigAooooAKKKKACiiigAooooAKKKKACiiigAooooAKKKKACiiigAooooAKKKKACiiigAooooAKKKKACiiigAooooAKKKKACiiigAooooAKKKKACiiigAooooAKKKKACiiigDJ8T/APIuXv8Auf1ry6vUfE//ACLl7/uf1ry6vbyv+G/U8LNP4i9BaKKK9M80KKKKALWl/wDIWs/+uy/zr1vtXkml/wDIWs/+uy/zr1vtXi5p8cfQ9rK/hkLRRRXlnqhRRRQAUUUUAFFFFABRRRQAUUUUAFFFFABRRRQAUUUUAFFFFABRRRQAUUUUAFFFFABRRRQAUUUUAFFFFABRRRQAUUUUAFFFFABRRRQAUUUUAFFFFABRRRQAUUUUAFFFFABRRRQBk+KP+RcvP9z+teXV6rr9vJd6HdQwqWkZPlA715l/Z96OtncfjGa9nLJxUGm+p4uZQk6iaXQgoqf+z7z/AJ9Lj/v2aP7PvP8An0uP+/Zr0vaR7nm+zn2ZBRU/9n3n/Ppcf9+zR/Z95/z6XH/fs0e0j3D2c+zH6X/yFrP/AK7L/OvXBXluj6Xevq9r/oswCyqzMyEAAHPevURXjZlKMpxs+h7OWRcYSuuotFFFeaemFFFFABRRRQAUUUUAFFFFABRRRQAUUUUAFFFFABRRRQAUUUUAFFFFABRRRQAUUUUAFFFFABRRRQAUUUUAFFFFABRRRQAUUUUAJmjNeeeLNUvF12aBLmRIowoVUbHbJ/Gsb+0rz/n7n/7+GvRpZdOcVK6V1c82pmUac3GzdmeufjR+NeR/2lef8/c//fw0f2lef8/c/wD38NX/AGXL+ZGf9qR/lPXPxo/GvI/7SvP+fuf/AL+Gj+0r3/n7n/7+Gj+y5fzIP7Uj/Keu0ZrC8I3s99oivcuZJEcpuPUgevvVTxvf3FlYW628rRebIQzKcHAFcKoSdX2XW9jveISpe16WudP+NH415H/aV5/z9z/9/DR/aV5/z9z/APfw13f2XL+ZHB/asf5T1z8aPxryP+0rz/n7n/7+Gj+0rz/n7n/7+Gj+y5fzIP7Uj/Keu5pPpXkf9pXn/P3P/wB/DXQ+DNTvJdXa2mnkkjaMttc5AIPas62Xypwc7p2NKWYxqTULNXO8pvHfFUNeupbPRbqeE7ZFQ7W9D615mdTviSTeTkk8kyHmssNhJV02naxricZGg1Fq9z1yj8a8j/tK8/5+5/8Av4aP7SvP+fuf/v4a6v7Ln/Mc39qR/lPXPxo/GvI/7SvP+fuf/v4aP7SvP+fuf/v4aP7Ln/MH9qQ/lPXBjtilry7R9Wvo9Xtv9KlZWkVWVmyGBNeoD1rixOHlQkk3c7cNiVXi2lYWiiiuc6QooooAKKKKACiiigAooooAKKKKACiiigAooooAKKKKACiiigAooooAKKKKACiiigAooooAKKKKACiiigAooooAKKKKACiiigDzHxb/AMjLd/8AAf8A0EVj1seLf+Rlu/8AgP8A6CKx6+ow/wDCj6I+WxH8WXqFFFFbGIUUUUAeheBv+QGf+urVU+IP/HpZf9dG/wDQat+Bv+QGf+urVU+IP/HpZf8AXRv/AEGvCp/7782e5P8A3L5HEUUUV7p4YUUUUAFb/gj/AJGJf+uTVgVv+Cf+RiX/AK5NXPi/4MvQ6ML/ABo+qOx8T/8AIuXv+5/WvLq9R8T/APIuXv8Auf1ry6uTK/4b9TqzT+IvQWiiivTPNCiiigC1pf8AyFrP/rsv869bryTS/wDkLWf/AF2X+det9q8XNPjj6HtZX8MhaKKK8s9UKKKKACiiigAooooAKKKKACkyAMmlrmPGWtNY2gs7dsTzjkg8qvc/U9PzrSlTdSaiuplWqKlByZdtfFOm3d69ss2x1bapcYV/oa2eteM10GheKrnTGWK4LT2uehOWT6e3tXo18taV6bv5HnUMyu7VFbzPR6Kr2d5Bf26z28iyRsOCKsV5TTTsz1U01dBRRRQMKKKKACiiigAooooAKKKKACiiigAooooAKKKKACiiigAooooAKKKKAPMfFv8AyMt3/wAB/wDQRWPWx4t/5GW7/wCA/wDoIrHr6jD/AMKPoj5bEfxZeoUUUVsYhRRRQB6F4G/5AZ/66tVT4g/8ell/10b/ANBq34G/5AZ/66tVT4g/8ell/wBdG/8AQa8Kn/vvzZ7k/wDcvkcRRRRXunhhRRRQAVv+Cf8AkYl/65NWBW/4I/5GJf8Ark1c+L/gy9Dowv8AGj6o7HxP/wAi5e/7n9a8ur1HxP8A8i5e/wC5/WvLq5Mr/hv1OrNP4i9BaKKK9M80KKKKALWl/wDIWs/+uy/zr1vtXkml/wDIWs/+uy/zr1uvFzT44+h7WV/DIWiiivLPVCiiigAooooAKKKKACiiigCOaZLeJ5ZDhEUsx9hXk2p376lqE13J1kbKj+6vYflXbeOL82+lLbIcNcNg4/ujk/0rgK9nLKNouo93ojxMyrXkqa2W4UUUV6p5ZpaJrc+i3W9MvC5/eR5+97j0Nel2N7BqFqlxbMHjccH/ABryKtzwvrraTeiKVv8ARJjh8/wn+9XnY3CKonUgtV+J6OCxbptQm9H+B6VRSAhgCOQaWvCPeCiiigAooooAKKKKACiiigAooooAKKKKACikFZ1xr+mWsrRTXcauvDLnJFOMXLSKuTKcYq8nY0qKyv8AhKNI/wCf6P8AI0f8JRpH/P8AR/kav2NT+V/cR7an/MjVorK/4SjSP+f6P8jR/wAJRpH/AD/R/kaPY1P5X9we2p/zI1Pypayl8S6S7hRexZJwM8VqBgwBHINTKEofErFRnGfwu5yOv+ELrUdUku7aaICQDKvnIIGKzP8AhBdR/wCe1v8Ama7S91ix05gl3cxxuRkKTzVc+KNIP/L7H+tdlPE4lRSirpbaHDUwuGc25PV+Zyn/AAgmpf8APa2/M0f8IJqX/Pa2/M11f/CUaR/z+x/rR/wlGkf8/sf61p9axfb8CPqmE7/icp/wgmpf89rb8zR/wgmpf89rb8zXV/8ACUaR/wA/sf60f8JRpH/P7H+tH1rF9vwD6phO/wCI7w/pTaNpi2zyB5CxZmA4yfT2qDxNob65ZxJDKI5Im3Lu6HtzWtBPFcwrLC6yRsMqynINNuruCygMtzKsSA4yxxXEqk1V51udrpU3S5H8Jwv/AAgmpf8APa2/M0f8IJqX/Pa2/M11f/CUaR/z+x/rR/wlGkf8/sf612/WsX2/A4vqmE7/AInKf8IJqX/Pa2/M0f8ACCal/wA9rb8zXV/8JRpH/P7H+tH/AAlGkf8AP7H+tH1rF9vwD6phO/4nJ/8ACCal/wA9rf8AM1s+G/C02k3r3V1KjNt2oqZwPXOa0/8AhJ9I/wCf2P8AWrNlqllqBYWlwkpXqAeR+FZ1cTiJQanon5GlLDYaM04u7XmLqdiNR06a1LbfMUrux0riv+ED1L/ntbH3BP8AhXfO6ohZiFUckntWafE2kAkfbouOOMms8PWrU7qmvwua4ihRqNOo7P1OT/4QTUv+e1t+Zo/4QTUv+e1t+Zrq/wDhKNI/5/Y/1o/4SjSP+f2P9a6PrWL7fgc31TCd/wATlP8AhBNS/wCe1t+Zo/4QTUv+e1t+Zrq/+Eo0j/n9j/Wj/hKNI/5/Y/1o+tYvt+AfVMJ3/E53TfBN5b6hBPPND5cbhyEyScdBXbis+113TryURQXUbyHoueTWjXJiKtSpL95udmHpUqa/dvQKKzrnXtNs5TFcXcaSDqvcVF/wlGkf8/0f5Gs1Sm1dRf3FutTTs5I1qKyv+Eo0j/n+j/I0f8JRpH/P9H+Rp+xqfyv7g9tT/mRq0Vlf8JRpH/P9H+RoHibSCQPt0XPHOaPY1P5X9we2p/zI1aKRWDqGUgqehFLWZqFFFB6GgDzfxnd/adfaMHKwIEA9CeT/AErBqzqczXOp3UpOS0rYPqM/4YqtX1OHhyU4x8j5WvPnqOXmFFFFamQUlLRQB6B4L1f7dYG0mbM1tgAn+Je3+FdNmvKtAvzp2s28+fkZtj/7p4/Tg16p1xXzuPoqnUutnqfQ4Cs6lKz3QtFFFcZ3BRRRQAUUUUAFFFFABRRRQAUUUUAI33TXjtxk3MxPJMjEk9+a9if7h+leO3H/AB8y/wC+f5162V7y+R5Ga7RI6KWivYPHEopaKAEPQ/SvWdFydEs8/wDPFf5V5Meh+les6L/yBLP/AK4r/KvKzT4Ynq5X8cjz/wAW8+JbrP8As/8AoIrGrZ8W/wDIy3X/AAH/ANBFY9d2G/hR9EcGI/iy9RKKWitzESilooA9C8DH/iQkZOBKwAqp8QSfslkOxlOR68Vb8Df8gI/9dWqp8Qf+PSy/66t/6DXhU/8Affmz3Z/7l8jh6KWivdPCEopaKAErofBBI8QAAkAxNkflXP1v+Cf+RiX/AK5NXPi/4MvQ6ML/ABo+qOx8Tkjw7e4JGUxxXl1eo+J/+Rcvf9z+teXVyZX/AA36nXmn8RegUUtFemeYJRS0UAWtK41ezI4ImXH51632ryTS/wDkLWf/AF2X+det9q8XNPjj6HtZX8EjyLUSTqd0SckytknnPNVqs3//ACErn/rq386r169P4F6HkVPjfqJRS0VZAlFLSUAeqeG/+Rdsf+uQFaYrM8Nf8i9Y/wDXIVpivla38SXqz6uj/Dj6IKZMcQufRTT6jnGYJB6qahbly2PHOTyeSeTS0g6Clr6xbHyL3CiiimAUUUUAJXq2hXf27RbWckFigDY9Rwf1FeVVsaf4nvtMsRa24i2gkhmBJGea4cdh5V4rl3TO3A4hUZvm2Z6dRXmTeLdYbP8ApYA9kXj9KgPiPVj/AMv8v4GuBZZV6tHoPM6XZnqlFeXJ4m1dOl9IfqAasQ+NNXiOXlilHoyAfypSy2qtmmCzOk900ekUda4q18ft8ovLPPHLRN/Q/wCNdBp3iPTtSIWG4Cyf883+U/kev4VzVMLVp/Ejpp4qlU0izWoozRWB0hRRRQAUUUUAI/3D9K8duP8Aj5l/3z/OvYn+4fpXjtx/x8y/75/nXrZXvL5HkZrtEZRRRXsHjhRRRQAh6H6V6zov/IEs/wDriv8AKvJj0P0r1nRf+QJZ/wDXFf5V5WafDE9TK/jkef8Ai3/kZbr/AID/AOgisetjxb/yMt1/wH/0EVj134f+FH0Rw4j+LL1CiiitjEKKKKAPQvA3/IDP/XVqqfEH/j0sv+ujf+g1b8Df8gM/9dWqp8Qf+PSy/wCujf8AoNeFT/335s9yf+5fI4iiiivdPDCiiigArf8ABP8AyMS/9cmrArf8Ef8AIxL/ANcmrnxf8GXodGF/jR9Udj4n/wCRcvf9z+teXV6j4n/5Fy9/3P615dXJlf8ADfqdWafxF6C0UUV6Z5oUUUUAWtL/AOQtZ/8AXZf51632ryTS/wDkLWf/AF2X+det9q8XNPjj6HtZX8EjyK//AOQlc/8AXVv51Xqxf/8AISuf+urfzqvXr0/hXoePU+N+oUUUVZIUlLSUAeqeGv8AkXrH/rkK0xWZ4a/5F6x/65CtOvla38SXqz6qj/Dj6IKRhlSD0IpaKzNTx++hMGoXEJBGyVlAP14qGt3xlZG1195APkuFDg579D/SsKvqaE+empLsfK1oOFRxfcKKKK1MgooooAKKKKACiiigAooooAKT+nIpaKAN/RfF11pzCK7L3Fv05PzL9D3+hrrP+Et0j/n6H/fLf4V5vBC9zPHBGMvIwVR9a77/AIQ2x/2/zrysXRw0ZJyum+x6mFr4lxtDVI6WiiivGPbCiiigBr/cP0rx64/4+Zf98/zr2I1gz+DdKuJ3laOVWkbcQshAzXdgsTCg3zX17HBjcNOuly20POKK9E/4QfSf7s//AH9NH/CD6T/dn/7+mvQ/tKj5nn/2bW8jzuivRP8AhB9J/uz/APf00f8ACD6T/dn/AO/po/tKj5h/ZtbyPOj0P0r1nRf+QLZ/9cU/lWWPA+kgg7JjjnBkPNb8USQxrHGoVFAAA7CuHG4qFdJR6HdgcJOg2521PNPFv/Iy3f8AwH/0EVj16dqPhnTtUuftFwjiQjBKORn61V/4QfSf7s//AH9NdNHMKUaai73SOWtl9WdRyVrNnndFeif8IPpP92f/AL+mj/hB9J/uz/8Af01r/aVHzM/7NreR53RXon/CD6T/AHZ/+/po/wCEH0n+7P8A9/TR/aVHzD+za3kN8Df8gI/9dWqp8QP+PSy/66H/ANBrpbCxg020S2tk2xp2znPuaZqWl22rW/kXSFlByCDgg+xry414rEe1tpc9SWHk8P7JPWx5NRXon/CD6T/dn/7+mj/hB9J/uz/9/TXqf2lR8zy/7NreR53RXon/AAg+k/3Z/wDv6aP+EH0n+7P/AN/TR/aVHzD+za3ked1v+Cf+RiH/AFyaul/4QfSv7s+P+upq7pfh+x0iR5LVG3uMFnbJxWNfH0p03FXuzWhgKtOopO1kN8T/APIu3n+5/WvL69huII7uB4JkDxSLtYHoRWH/AMIPpP8Adn/7+msMFi4UYuMr7nRjcJOtNSied0V6J/wg+k/3Z/8Av6aP+EH0n+7P/wB/TXb/AGlR8zi/s2t5HndFeif8IPpP92f/AL+mj/hB9J/uz/8Af00f2lR8w/s2t5HC6X/yFrP/AK7L/OvW+1Ylp4S0yyukuI45GkjO5d7kgH1rb7V5uNxEa8k49D0cFh50ItStqeRX/wDyErn/AK6t/Oq9ek3fhDS7y5eeSORXkOWCuQCai/4QfSf7s/8A39NehDMaSik7nBPLark2rHndFeif8IPpP92f/v6aP+EH0n+7P/39NV/aVHzJ/s2t5HndJXov/CD6T/dn/wC/po/4QfSf7s//AH9NH9pUfMP7NreRe8N/8i9Y/wDXIVqVDBDHbQJDEoSONQqqOwqavDnLmk33Pcpx5YqPYKKKM+4qSznfGOlm+0ozRrmW3O8Y7juP6/hXnVenah4m0yxDK84lfH+rj+Yn+lea3DxyXMrwxmONmJVCfuj0/Cvcy1zUHGSaXRnhZkoOalFpvqhlFFFekeaFFFFABRRRQAUUUUAFFFFABRRWjomjSa1eiFcrEvMkgH3R/iaic4wi5SdkioQc5KMVds2/BGjmWc6jMvyR5WLPdu5/pXc1Fa28VpbRwQrtjQYUCpq+axFZ1qjk/kfTYeiqNNRW/Ur3l7BYW7TXUqxxqOpP+c1zU/j22VyILWWRR/E2FzXNeINafWL7eAywxjCIf1P1zWXXp0Muhyp1d30PLxGYzcmqeiXU7P8A4WCP+fBv+/lH/CwR/wA+Df8AfyuMorp+oUO34nP9fr9zs/8AhYI/58G/7+Uf8LBH/Pg3/fyuMoo+oUO34h9fr9zs/wDhYI/58G/7+Uf8LBH/AD4N/wB/K4yij6hQ7fiH1+v3Oz/4WCP+fBv+/lH/AAsEf8+Df9/K4yij6hQ7fiH1+v3Oz/4WCP8Anwb/AL+Uf8LBH/Pg3/fyuMoo+oUO34h9fr9zs/8AhYI/58G/7+Uf8LBH/Pg3/fyuMoo+oUO34h9fr9zs/wDhYI/58G/7+Uf8LBH/AD4N/wB/K4yij6hQ7fiH1+v3Oz/4WCP+fBv+/lH/AAsEf8+Df9/K4yij6hQ7fiH1+v3Oz/4WCP8Anwb/AL+Uf8LBH/Pg3/fyuMoo+oUO34h9fr9zs/8AhYI/58G/7+Uf8LBH/Pg3/fyuMoo+oUO34h9fr9zs/wDhYI/58G/7+Uf8LBH/AD4N/wB/K4yij6hQ7fiH1+v3Oz/4WCP+fBv+/lH/AAsEf8+Df9/K4yij6hQ7fiH1+v3Oz/4WCP8Anwb/AL+Uf8LBH/Pg3/fyuMoo+oUO34h9fr9zs/8AhYI/58G/7+Uf8LBH/Pg3/fyuMoo+oUO34h9fr9zs/wDhYI/58G/7+Uf8LBH/AD4N/wB/K4yij6hQ7fiH1+v3Oz/4WCv/AD4N/wB/KP8AhYI/58G/7+VxlFH1Ch2/EPr9fudn/wALBH/Pg3/fyj/hYI/58G/7+VxlFH1Ch2/EPr9fudn/AMLBH/Pg3/fyj/hYI/58G/7+VxlFH1Ch2/EPr9fudn/wsEf8+Df9/KP+Fgj/AJ8G/wC/lcZRR9QodvxD6/X7nZ/8LBH/AD4N/wB/Khf4gTnOywjHoTIT/SuSoprA0F9kHjq7+0b8/jXVZlIRoYc9CiZI/Osm61S9vs/arqWQE/dLYH5dKrUVtChSh8KRhOvUn8TYlLRRWpkFFFFABRRRQAUUUUAFFFJQAtFT2en3eoSbLS3eVu5A4H1Paut0jwOqES6o28jkQoePxPf6D9a562Kp0l7z17G9HDVKr91adzn9E8P3OszKVBjtgfmlI/Qetej6dp1vplqILZdqDqe5PqaniijgjWOJFRFGAqjAFSV4WIxUq77Lse7hsJCgu77hRRRXMdZ4yfvUUHqaK+uPkAooooAKKKKACiiigAooooAKKKKACiiigAooooAKKKKACiiigAooooAKKKKACiiigAooooAKKKKACiiigAooooAKKKKACiiigAooooAKKKKACiiigAooooAKKKKACj+vFFbHhXT/AO0Nbi3LmKH94+fbp+uPyNZ1JqnBzfQulB1JqC6lpPA2pugJeBSRkgsamj8BXx+/cwJ9ATXfUV4bzCu+p7qy6iuhxkPw/H/Le+bP/TNMfzrVtPB+lWpDGEzMO8jZx+Fb1FYzxdae8mbQwlGG0RkcUcKBI0VFHQKMAU+iiufc6dgooooAKKKKAPGn++aSpbuBra6kif7y4z+Wair61NNXR8i007MKKKKYgooooAKKKKACiiigAooooAKKKKACiiigAooooAKKKKACiiigAooooAKKKKACiiigAooooAKKKKACiiigAooooAKKKKACiiigAooooAKKKKACiiigAooooASvRPBemmz0jz5BiS5O85HRe3+P41xOj6e2qanDajO1jlz6KOv+FeroixoqKMKowBXlZnWslTXqz1cso3bqPpoh1FFFeMe0FFFFABRRRQAUUUUAFFFFAHmnjCDyPEU3pIisPyx/SsSuq8fW+zULWcD78ZUn6Hj+Zrla+mwkuajF+X5HzGLjy1pLzCiiiug5wooooAKKKKACiiigAooooAKKKKACiiigAooooAKKKKACiiigAooooAKKKKACiiigAooooAKKKKACiiigAooooAKKKKACiiigAooooAKKKKACiiigAooq5pGntqmpw2q52scuw7KOv+H41M5KEXJ7IqEXKSit2df4I0v7PZPeyLiSfhM9kH+J5/KurpkUSwxrGihVUBQB2Ap9fL1qjqTc31PqKFJUoKKCiiiszUKKKKACiiigAooooAKKKKAOX8eQGTSIZh/yylGfx4rga9V161+16LdxcZMZIyO45/pXlI5ANe7ls70nHszwczhaqpd0LRRRXonnBRRRQAUUUUAFFFFABRRRQAUUUUAFFFFABRRRQAUUUUAFFFFABRRRQAUUUUAFFFFABRRRQAUUUUAFFFFABRRRQAUUUUAFFFFABRRRQAUUUUAFFFFACV6D4M0f7FYfa5VxPcDPPUL2H9a5fwxpB1bU13j/AEeAh5Pf0X8f5V6aAAAB0ryMxxH/AC6j8z1stw//AC9l8haKKK8g9kKKKKACiiigAooooAKKKKACiiigBOteTavaGw1a6t8EBHJXPcHkV6yK4Tx5Y+VewXqj5ZV2MQP4h/iOPwr0MtqctTlfU87MqfNSUl0OVooor3jwQooooAKKKKACiiigAooooAKKKKACiiigAooooAKKKKACiiigAooooAKKKKACiiigAooooAKKKKACiiigAooooAKKKKACiiigAooooAKKKKACnwwyXM6QRLukkbao9TUdd34O0E2sQv7lSJpBhFI+6vr9T/KufE4hUYOXXob4ag681FbdTb0XSk0jTkt05bq7f3m7mtGiivmpScm5Pdn00YqEVFbIKKKKRQUUUUAFFFFABRRRQAUUUUAFFFFABWN4o046jokyIMyR/vE+o/xGR+NbNIcEEHoaqEnCSkuhFSCnFxfU8Zpa0/EOmnS9ZliAxE53x/Q//XyKzK+ppzU4KS2Z8rUg4ScXugoooqyQooooAKKKKACiiigAooooAKKKKACiiigAooooAKKKKACiiigAooooAKKKKACiiigAooooAKKKKACiiigAooooAKKKKACiiigAoorV8P6FLrV4MgraxnMr+v8Asj3/AJVE6kacXKTskXTpupJRirtl3wnoH9pT/a7lT9mib5QR99v8BXoYGBxTIIY7eFIoUCIowqgcAU+vm8RiHWnzPbofSYbDqhDlW4tFFFYHQFFFFABRRRQAUUUUAFFFFABRRRQAUUUUAFFFFAHOeMdIN/pv2iJcz22WGByy9x/WvO69mxnIPQ15j4m0c6TqrCMf6PNl4vb1H4fyr18txGjpS+R42ZUNVVXzMiiiivXPJCiiigAooooAKKKKACiiigAooooAKKKKACiiigAooooAKKKKACiiigAooooAKKKKACiiigAooooAKKKKACiiigAooooAKKK1tD8Pz61KDho7UH5pCOvsPWonUjTTlJ2SLp05VGoxV2xmhaFPrV1tXKW6H95Ljp7D3r0uzs4bC1S3t0CRoOAKLOzhsLZILaMJGgwAKnr57FYqVeXZdEfQ4XCxoR7ti0UUVynWFFFFABRRRQAUUUUAFFFFABRRRQAUUUUAFFFFABRRRQAVm63pUer6c9u/D9Ub+63atKinGTi1JbomUVOLi+p47cW8tpcPDOhSRDhh/X6VHXoXinw6NUgN1bLi6jHQf8tB6f5+leekEEgggg4IIxivpMNiFXhfr1R83isO6E7PbowooorpOYKKKKACiiigAooooAKKKKACiiigAooooAKKKKACiiigAooooAKKKKACiiigAooooAKKKKACiiigAooooAKSpbe2mu51ht4mlkboFH+eK7jQvB0VntuNQAmnGCqD7qf4n9K5q+Jp0V7z17HRQw06z91adzG0DwlJqGLi+DQ22eFxhn/wFd/DDHbwpFEgREGFUDAAp4GMCivBr4ideV5bHv4fDwoq0dxaKKKwOgKKKKACiiigAooooAKKKKACiiigAooooAKKKKACiiigAooooAKKKKACuU8T+Fvtu68sVAuOroOBJ/8AX/nXV0VpSqypS5osyq0Y1Y8sjxplaN2R1ZXU4ZSMEUleka94Yg1dTLGRFdAcSAcH615/f6dc6bcGG7iKN2bs30Pevfw2LhWXZ9j5/E4SdF913K9FFFdZyhRRRQAUUUUAFFFFABRRRQAUUUUAFFFFABRRRQAUUUUAFFFFABRRRQAUUUUAFFFFABRSVsaZ4W1HUsN5fkxH/lpKMfkOp/SonUhTV5uxcKcqjtBXMit7R/CV5qWJJw1tbn+Jh8zfQf1P611uk+FrHSsSbfPnH/LSQdPoO1bQrycRmV9KS+Z6tDLba1X8ijpmkWmlQ+Xaxhc/eb+Jvqav0UV5cpOTu3dnqxioqyVgooopFBRRRQAUUUUAFFFFABRRRQAUUUUAFFFFABRRRQAUUUUAFFFFABRRRQAUUUUAFFFFABVa7s4L+AxXMSSIeoYf5xVmihNp3Qmk1ZnD6r4FkQmTTJN69fKkPI+jf4/rXLXNrcWcnl3ULwv6MMZr2Gobi1huoyk8SSIezDNejRzGpDSeqPOrZdCesNGeP0V3194GsLjc1o72znoB8y/kf6VgXfgvVLYkxLHcJngocH8j/wDXr0aeNoz62fmebUwNaHS68jAoqWe0uLUhbiCWInoGQjNQ11qSaujlaadmLRRRTEFFFFABRRRQAUUUUAFFFFABRRRQAUUUUAFFJ14HJ9uauWukahe4+z2krqeQ23AP4niplOMVeTsVGEpOyVypRXTWngW/mwbmWKBSM4Hzkf0/nW7Z+CtMtsGYPct/00PH5DiuSpj6MOt/Q6qeArT6WXmefwW011II7eJ5WPZBmui0/wAD3tzh7yRbdD/CPmY/4V3cFtDbIEgiSNR2UYqU1wVcym9IK35noUsthHWbuZOm+GtO0whooQ8g/wCWknzH/wCt+Fa/SiivPlOU3eTuehCEYK0VYKKKKksKKKKACiiigAooooAKKKKACiiigAooooAKKKKACiiigAooooAKKKKACiiigAooooAKKKKACiiigAooooAKKKKACiiigBrIrqVZQwPUEVm3Hh3SrrmSyhz6qNv8q1KT8qcZyi7xbREoRkrSVzmLjwJp0gPkyzxMeh3ZAqhN8P5B/qL5T/10T/Cu3pK6I42vH7RzywVCW8Tz2bwNqcf+reCX6MRVaTwhrEf/AC7I3+5IK9MorZZlWW9mZPLaL2ujys+G9XGf9Al/Db/jTDoOqr10+f8ALNer0Vf9p1OyI/sun3Z5N/Yupf8APhP/AN8Uo0PUz0sJ/wDvmvWKKf8Aac/5UL+y4fzM8qHh3Vz0sJvxwKlj8K6xJ/y5Mv8AvMBXqGKKTzOp2Q1ldPuzzdPBWruw3JCoPUmTOP0q5H4BvDjzLqFR3ABOK7yis3mNZ7WXyNFl1FdGzkYfAFuGBmvJXHcKoWr8HgzSIc7oGmz/AM9HJx+Vb2KWsJYqtLeTN44SjHaJTt9LsrTHkWsKEDAIQZ/OrnSj8aKxbb1bNlFJaIKKKKRQUUUUAFFFFABRRRQAUUUUAFFFFABRRRQAUUUUAFFFFABRRRQAUUUUAFFFFABRRRQAUUUUAFFFFABRRRQAUUUUAFFFFABRRRQAUUUUAFFFFABRRRQAUUUUAFFFFABRRRQAUUUUAFFFFABRRRQAUUUUAFFFFABRRRQAUUUUAFFFFABRRRQAUUUUAFFFFABRRRQAUUUUAFFFFABRRRQAUUUUAFFFFABRRRQAUUUUAFFFFABRRRQAUUUUAFFFFABRRRQAUUUUAFFFFABRRRQAUUUUAFFFFABRRRQAUUUUAFFFFABRRRQAUUUUAFFFFABRRRQAUUUUAFFFFABRRRQAUUUUAFFFFABRRRQAUUUUAFFFFABRRRQAUUUUAFFFFABRRRQAUUUUAFFFFABRRRQAUUUUAFFFFABRRRQAUUUUAFFFFABRRRQAUUUUAFFFFABRRRQAUUUUAFFFFABRRRQAUUUUAFFFFABRRRQAUUUUAFFFFABRRRQAUUUUAFFFFABRRRQAUUUUAFFFFABRRRQAUUUUAFFFFABRRRQAUUUUAFFFFABRS0UAJRS0UAJRS0UAJRS0UAJRS0UAJRS0UAJRS0UAJRS0UAJRS0UAJRS0UAJRS0UAJRS0UAJRS0UAJRS0UAJRS0UAJRS0UAJRS0UAJRS0UAJRS0UAJRS0UAJRS0UAJRS0UAJRS0UAJRS0UAJRS0UAJRS0UAJRS0UAJRS0UAJRS0UAJRS0UAf/2Q==;" vertex="1" parent="1">
          <mxGeometry x="350" y="460" width="20" height="20" as="geometry" />
        </mxCell>
      </root>
    </mxGraphModel>
  </diagram>
</mxfile>
